<svg width="36" height="36" viewBox="0 0 36 36" fill="none" xmlns="http://www.w3.org/2000/svg">
<g id="all_inclusive_24dp_5F6368_FILL0_wght300_GRAD0_opsz24 1">
<g id="Vector">
<path d="M8.25 25.875C6.0545 25.875 4.19312 25.1115 2.66587 23.5845C1.13862 22.0575 0.375 20.1964 0.375 18.0011C0.375 15.8061 1.13862 13.9448 2.66587 12.417C4.19313 10.889 6.0545 10.125 8.25 10.125C9.12425 10.125 9.963 10.2802 10.7663 10.5907C11.5695 10.9015 12.2942 11.3424 12.9405 11.9134L15.8078 14.4405L14.106 15.9461L11.4345 13.5866C10.9963 13.2096 10.503 12.9134 9.95475 12.6979C9.40675 12.4826 8.83813 12.375 8.24888 12.375C6.69563 12.375 5.37 12.9244 4.272 14.0231C3.174 15.1216 2.625 16.448 2.625 18.0023C2.625 19.5565 3.174 20.8822 4.272 21.9795C5.37 23.0765 6.69563 23.625 8.24888 23.625C8.83813 23.625 9.40675 23.5174 9.95475 23.3021C10.503 23.0866 10.9963 22.7904 11.4345 22.4134L23.0595 11.9134C23.6963 11.3326 24.4178 10.8894 25.224 10.5836C26.0305 10.2779 26.8725 10.125 27.75 10.125C29.9455 10.125 31.8069 10.8885 33.3341 12.4155C34.8614 13.9425 35.625 15.8036 35.625 17.9989C35.625 20.1939 34.8614 22.0553 33.3341 23.583C31.8069 25.111 29.9455 25.875 27.75 25.875C26.873 25.875 26.036 25.7173 25.239 25.4018C24.4417 25.0865 23.7153 24.6481 23.0595 24.0866L20.2211 21.5595L21.894 20.0393L24.5655 22.4134C25.0038 22.8019 25.497 23.101 26.0452 23.3108C26.5933 23.5203 27.1619 23.625 27.7511 23.625C29.3044 23.625 30.63 23.0756 31.728 21.9769C32.826 20.8784 33.375 19.552 33.375 17.9978C33.375 16.4435 32.826 15.1178 31.728 14.0205C30.63 12.9235 29.3044 12.375 27.7511 12.375C27.1619 12.375 26.5933 12.4826 26.0452 12.6979C25.497 12.9134 25.0038 13.2096 24.5655 13.5866L12.9405 24.0866C12.3038 24.6674 11.5822 25.1106 10.776 25.4164C9.9695 25.7221 9.1275 25.875 8.25 25.875Z" fill="#FEFEFE"/>
<path d="M8.25 25.875C6.0545 25.875 4.19312 25.1115 2.66587 23.5845C1.13862 22.0575 0.375 20.1964 0.375 18.0011C0.375 15.8061 1.13862 13.9448 2.66587 12.417C4.19313 10.889 6.0545 10.125 8.25 10.125C9.12425 10.125 9.963 10.2802 10.7663 10.5907C11.5695 10.9015 12.2942 11.3424 12.9405 11.9134L15.8078 14.4405L14.106 15.9461L11.4345 13.5866C10.9963 13.2096 10.503 12.9134 9.95475 12.6979C9.40675 12.4826 8.83813 12.375 8.24888 12.375C6.69563 12.375 5.37 12.9244 4.272 14.0231C3.174 15.1216 2.625 16.448 2.625 18.0023C2.625 19.5565 3.174 20.8822 4.272 21.9795C5.37 23.0765 6.69563 23.625 8.24888 23.625C8.83813 23.625 9.40675 23.5174 9.95475 23.3021C10.503 23.0866 10.9963 22.7904 11.4345 22.4134L23.0595 11.9134C23.6963 11.3326 24.4178 10.8894 25.224 10.5836C26.0305 10.2779 26.8725 10.125 27.75 10.125C29.9455 10.125 31.8069 10.8885 33.3341 12.4155C34.8614 13.9425 35.625 15.8036 35.625 17.9989C35.625 20.1939 34.8614 22.0553 33.3341 23.583C31.8069 25.111 29.9455 25.875 27.75 25.875C26.873 25.875 26.036 25.7173 25.239 25.4018C24.4417 25.0865 23.7153 24.6481 23.0595 24.0866L20.2211 21.5595L21.894 20.0393L24.5655 22.4134C25.0038 22.8019 25.497 23.101 26.0452 23.3108C26.5933 23.5203 27.1619 23.625 27.7511 23.625C29.3044 23.625 30.63 23.0756 31.728 21.9769C32.826 20.8784 33.375 19.552 33.375 17.9978C33.375 16.4435 32.826 15.1178 31.728 14.0205C30.63 12.9235 29.3044 12.375 27.7511 12.375C27.1619 12.375 26.5933 12.4826 26.0452 12.6979C25.497 12.9134 25.0038 13.2096 24.5655 13.5866L12.9405 24.0866C12.3038 24.6674 11.5822 25.1106 10.776 25.4164C9.9695 25.7221 9.1275 25.875 8.25 25.875Z" fill="url(#paint0_angular_1257_2218)" style="mix-blend-mode:difference"/>
</g>
</g>
<defs>
<radialGradient id="paint0_angular_1257_2218" cx="0" cy="0" r="1" gradientUnits="userSpaceOnUse" gradientTransform="translate(17.2213 19.5441) rotate(78.5049) scale(7.8251 17.2616)">
<stop offset="0.0267408" stop-color="#2D2B2B"/>
<stop offset="0.144403" stop-color="#3D3838"/>
<stop offset="0.226247" stop-color="#201C1C"/>
<stop offset="0.411006"/>
<stop offset="0.492082" stop-color="#342B2B"/>
<stop offset="0.793963"/>
<stop offset="0.939288" stop-color="#262424"/>
</radialGradient>
</defs>
</svg>
