<svg width="37" height="36" viewBox="0 0 37 36" fill="none" xmlns="http://www.w3.org/2000/svg">
<g id="deployed_code_update_24dp_5F6368_FILL0_wght300_GRAD0_opsz24 1">
<g id="Vector">
<path d="M18.1034 6.13002L9.07148 11.3541L18.334 16.708L27.5965 11.3541L18.5646 6.13002C18.4879 6.08202 18.411 6.05802 18.334 6.05802C18.257 6.05802 18.1801 6.08202 18.1034 6.13002ZM5.58398 23.6886L5.58398 12.3119C5.58398 11.8196 5.70261 11.3688 5.93986 10.9593C6.17711 10.5498 6.51048 10.2199 6.93998 9.96964L16.9784 4.19164C17.2091 4.06664 17.431 3.97389 17.644 3.91339C17.857 3.85264 18.0867 3.82227 18.3332 3.82227C18.58 3.82227 18.8162 3.85264 19.042 3.91339C19.268 3.97389 19.4839 4.06664 19.6896 4.19164L29.728 9.96964C30.1575 10.2199 30.4909 10.5498 30.7281 10.9593C30.9654 11.3688 31.084 11.8196 31.084 12.3119L31.084 16.7598C31.084 17.0785 30.9761 17.3458 30.7604 17.5615C30.5446 17.777 30.2774 17.8848 29.9586 17.8848C29.6396 17.8848 29.3725 17.777 29.1572 17.5615C28.9417 17.3458 28.834 17.0785 28.834 16.7598L28.834 13.2175L19.6521 18.5166C19.2221 18.7626 18.7695 18.8856 18.2942 18.8856C17.8187 18.8856 17.3676 18.7626 16.9409 18.5166L7.83398 13.2175L7.83398 23.6658C7.83398 23.7425 7.85323 23.8146 7.89173 23.8821C7.93023 23.9494 7.98786 24.007 8.06461 24.055L16.7331 29.1003C16.9019 29.194 17.0377 29.3254 17.1407 29.4944C17.244 29.6631 17.2956 29.8506 17.2956 30.0569C17.2956 30.4884 17.1105 30.8094 16.7402 31.0199C16.37 31.2304 15.9974 31.2319 15.6224 31.0244L6.93998 26.0309C6.51048 25.7806 6.17711 25.4508 5.93986 25.0413C5.70261 24.6318 5.58398 24.1809 5.58398 23.6886ZM27.334 35.0628C25.461 35.0628 23.8677 34.406 22.5542 33.0925C21.2407 31.779 20.584 30.1858 20.584 28.3128C20.584 26.4398 21.2407 24.8465 22.5542 23.533C23.8677 22.2195 25.461 21.5628 27.334 21.5628C29.207 21.5628 30.8002 22.2195 32.1137 23.533C33.4272 24.8465 34.084 26.4398 34.084 28.3128C34.084 30.1858 33.4272 31.779 32.1137 33.0925C30.8002 34.406 29.207 35.0628 27.334 35.0628ZM26.6706 29.977L24.5822 27.8886C24.4515 27.7579 24.2981 27.6901 24.1221 27.6854C23.9461 27.6806 23.7879 27.7484 23.6474 27.8886C23.5071 28.0291 23.437 28.1849 23.437 28.3559C23.437 28.5271 23.5071 28.6829 23.6474 28.8231L26.3849 31.5606C26.5254 31.7011 26.6741 31.8003 26.8311 31.858C26.9881 31.9158 27.1564 31.9446 27.3359 31.9446C27.5154 31.9446 27.683 31.9158 27.8387 31.858C27.9945 31.8003 28.1426 31.7011 28.2831 31.5606L31.0206 28.8231C31.1514 28.6924 31.2191 28.5391 31.2239 28.3634C31.2286 28.1874 31.1609 28.0291 31.0206 27.8886C30.8801 27.7484 30.7244 27.6783 30.5534 27.6783C30.3821 27.6783 30.2246 27.75 30.0809 27.8935L27.9974 29.977L27.9974 24.7791C27.9974 24.6021 27.931 24.4473 27.7982 24.3145C27.6657 24.182 27.511 24.1158 27.334 24.1158C27.157 24.1158 27.0022 24.182 26.8697 24.3145C26.737 24.4473 26.6706 24.6021 26.6706 24.7791L26.6706 29.977Z" fill="#FEFEFE"/>
<path d="M18.1034 6.13002L9.07148 11.3541L18.334 16.708L27.5965 11.3541L18.5646 6.13002C18.4879 6.08202 18.411 6.05802 18.334 6.05802C18.257 6.05802 18.1801 6.08202 18.1034 6.13002ZM5.58398 23.6886L5.58398 12.3119C5.58398 11.8196 5.70261 11.3688 5.93986 10.9593C6.17711 10.5498 6.51048 10.2199 6.93998 9.96964L16.9784 4.19164C17.2091 4.06664 17.431 3.97389 17.644 3.91339C17.857 3.85264 18.0867 3.82227 18.3332 3.82227C18.58 3.82227 18.8162 3.85264 19.042 3.91339C19.268 3.97389 19.4839 4.06664 19.6896 4.19164L29.728 9.96964C30.1575 10.2199 30.4909 10.5498 30.7281 10.9593C30.9654 11.3688 31.084 11.8196 31.084 12.3119L31.084 16.7598C31.084 17.0785 30.9761 17.3458 30.7604 17.5615C30.5446 17.777 30.2774 17.8848 29.9586 17.8848C29.6396 17.8848 29.3725 17.777 29.1572 17.5615C28.9417 17.3458 28.834 17.0785 28.834 16.7598L28.834 13.2175L19.6521 18.5166C19.2221 18.7626 18.7695 18.8856 18.2942 18.8856C17.8187 18.8856 17.3676 18.7626 16.9409 18.5166L7.83398 13.2175L7.83398 23.6658C7.83398 23.7425 7.85323 23.8146 7.89173 23.8821C7.93023 23.9494 7.98786 24.007 8.06461 24.055L16.7331 29.1003C16.9019 29.194 17.0377 29.3254 17.1407 29.4944C17.244 29.6631 17.2956 29.8506 17.2956 30.0569C17.2956 30.4884 17.1105 30.8094 16.7402 31.0199C16.37 31.2304 15.9974 31.2319 15.6224 31.0244L6.93998 26.0309C6.51048 25.7806 6.17711 25.4508 5.93986 25.0413C5.70261 24.6318 5.58398 24.1809 5.58398 23.6886ZM27.334 35.0628C25.461 35.0628 23.8677 34.406 22.5542 33.0925C21.2407 31.779 20.584 30.1858 20.584 28.3128C20.584 26.4398 21.2407 24.8465 22.5542 23.533C23.8677 22.2195 25.461 21.5628 27.334 21.5628C29.207 21.5628 30.8002 22.2195 32.1137 23.533C33.4272 24.8465 34.084 26.4398 34.084 28.3128C34.084 30.1858 33.4272 31.779 32.1137 33.0925C30.8002 34.406 29.207 35.0628 27.334 35.0628ZM26.6706 29.977L24.5822 27.8886C24.4515 27.7579 24.2981 27.6901 24.1221 27.6854C23.9461 27.6806 23.7879 27.7484 23.6474 27.8886C23.5071 28.0291 23.437 28.1849 23.437 28.3559C23.437 28.5271 23.5071 28.6829 23.6474 28.8231L26.3849 31.5606C26.5254 31.7011 26.6741 31.8003 26.8311 31.858C26.9881 31.9158 27.1564 31.9446 27.3359 31.9446C27.5154 31.9446 27.683 31.9158 27.8387 31.858C27.9945 31.8003 28.1426 31.7011 28.2831 31.5606L31.0206 28.8231C31.1514 28.6924 31.2191 28.5391 31.2239 28.3634C31.2286 28.1874 31.1609 28.0291 31.0206 27.8886C30.8801 27.7484 30.7244 27.6783 30.5534 27.6783C30.3821 27.6783 30.2246 27.75 30.0809 27.8935L27.9974 29.977L27.9974 24.7791C27.9974 24.6021 27.931 24.4473 27.7982 24.3145C27.6657 24.182 27.511 24.1158 27.334 24.1158C27.157 24.1158 27.0022 24.182 26.8697 24.3145C26.737 24.4473 26.6706 24.6021 26.6706 24.7791L26.6706 29.977Z" fill="url(#paint0_angular_1257_1373)" style="mix-blend-mode:difference"/>
</g>
</g>
<defs>
<radialGradient id="paint0_angular_1257_1373" cx="0" cy="0" r="1" gradientUnits="userSpaceOnUse" gradientTransform="translate(19.2044 22.5053) rotate(85.2614) scale(15.2621 14.1931)">
<stop offset="0.0267408" stop-color="#2D2B2B"/>
<stop offset="0.144403" stop-color="#3D3838"/>
<stop offset="0.226247" stop-color="#201C1C"/>
<stop offset="0.411006"/>
<stop offset="0.492082" stop-color="#342B2B"/>
<stop offset="0.793963"/>
<stop offset="0.939288" stop-color="#262424"/>
</radialGradient>
</defs>
</svg>
