<svg width="37" height="36" viewBox="0 0 37 36" fill="none" xmlns="http://www.w3.org/2000/svg">
<g id="rebase_edit_24dp_5F6368_FILL0_wght300_GRAD0_opsz24 (1) 1">
<g id="Vector">
<path d="M16.2255 30.3184L16.2255 27.2292C16.2255 27.0502 16.2581 26.8823 16.3233 26.7255C16.3888 26.5688 16.4917 26.4203 16.632 26.28L26.9763 15.9589C27.2031 15.7359 27.4536 15.5685 27.7278 15.4568C28.0018 15.3453 28.286 15.2895 28.5802 15.2895C28.8745 15.2895 29.1595 15.3429 29.4352 15.4497C29.7112 15.5564 29.9608 15.7213 30.1841 15.9443L31.9061 17.6607C32.1233 17.8934 32.2877 18.1478 32.3992 18.4238C32.5107 18.6998 32.5713 18.9819 32.5811 19.2702C32.5906 19.5587 32.5357 19.8409 32.4165 20.1169C32.2972 20.3929 32.129 20.6473 31.9117 20.88L21.5475 31.2675C21.407 31.4078 21.2585 31.5107 21.102 31.5762C20.9452 31.6414 20.7773 31.674 20.5983 31.674L17.5811 31.674C17.1971 31.674 16.8751 31.5442 16.6151 31.2844C16.3553 31.0244 16.2255 30.7024 16.2255 30.3184ZM18.4755 29.424L20.2061 29.424L26.7858 22.8443L25.9207 21.9788L25.0121 21.0848L18.4755 27.6214L18.4755 29.424ZM8.41158 31.674C7.37083 31.674 6.48508 31.3095 5.75433 30.5805C5.02358 29.8513 4.6582 28.9658 4.6582 27.924C4.6582 27.0838 4.9057 26.3439 5.4007 25.7044C5.89595 25.0652 6.52345 24.6214 7.2832 24.3732L7.2832 11.652C6.52345 11.404 5.89595 10.9565 5.4007 10.3095C4.9057 9.6623 4.6582 8.91855 4.6582 8.0783C4.6582 7.03655 5.0227 6.15105 5.7517 5.4218C6.48095 4.6928 7.36645 4.3283 8.4082 4.3283C9.24845 4.3283 9.9922 4.5758 10.6395 5.0708C11.2865 5.56605 11.734 6.19355 11.982 6.9533L18.0022 6.9533L15.6656 4.63092C15.4331 4.40692 15.3168 4.14567 15.3168 3.84717C15.3168 3.54867 15.4331 3.28305 15.6656 3.0503C15.8983 2.81755 16.1657 2.70117 16.4677 2.70117C16.7695 2.70117 17.0367 2.81755 17.2695 3.0503L21.3483 7.12917C21.6196 7.40017 21.7552 7.71655 21.7552 8.0783C21.7552 8.4398 21.6196 8.75605 21.3483 9.02705L17.2466 13.1292C17.0233 13.3522 16.7622 13.466 16.4632 13.4708C16.1642 13.4758 15.8983 13.3619 15.6656 13.1292C15.4331 12.8964 15.3168 12.629 15.3168 12.327C15.3168 12.0253 15.4331 11.758 15.6656 11.5253L18.0022 9.2033L11.982 9.2033C11.7955 9.79555 11.4887 10.305 11.0617 10.7318C10.635 11.1588 10.1255 11.4655 9.5332 11.652L9.5332 24.3503C10.2927 24.5983 10.9201 25.0458 11.4153 25.6928C11.9103 26.34 12.1578 27.0838 12.1578 27.924C12.1578 28.9658 11.7936 29.8513 11.0651 30.5805C10.3366 31.3095 9.45208 31.674 8.41158 31.674ZM28.2506 4.3283C29.2913 4.3283 30.1771 4.69255 30.9078 5.42105C31.6386 6.14955 32.004 7.03417 32.004 8.07492C32.004 9.11542 31.6397 10.001 30.9112 10.7318C30.1827 11.4625 29.2981 11.8279 28.2573 11.8279C27.2168 11.8279 26.3312 11.4637 25.6005 10.7352C24.8697 10.0067 24.5043 9.12217 24.5043 8.08167C24.5043 7.04092 24.8686 6.15517 25.5971 5.42442C26.3256 4.69367 27.2101 4.3283 28.2506 4.3283ZM8.4082 29.424C8.8332 29.424 9.18945 29.2803 9.47695 28.9928C9.76445 28.7053 9.9082 28.349 9.9082 27.924C9.9082 27.499 9.76445 27.1428 9.47695 26.8553C9.18945 26.5678 8.8332 26.424 8.4082 26.424C7.9832 26.424 7.62695 26.5678 7.33945 26.8553C7.05195 27.1428 6.9082 27.499 6.9082 27.924C6.9082 28.349 7.05195 28.7053 7.33945 28.9928C7.62695 29.2803 7.9832 29.424 8.4082 29.424ZM8.4082 9.5783C8.8332 9.5783 9.18945 9.43455 9.47695 9.14705C9.76445 8.85955 9.9082 8.5033 9.9082 8.0783C9.9082 7.6533 9.76445 7.29705 9.47695 7.00955C9.18945 6.72205 8.8332 6.5783 8.4082 6.5783C7.9832 6.5783 7.62695 6.72205 7.33945 7.00955C7.05195 7.29705 6.9082 7.6533 6.9082 8.0783C6.9082 8.5033 7.05195 8.85955 7.33945 9.14705C7.62695 9.43455 7.9832 9.5783 8.4082 9.5783ZM28.254 9.5783C28.679 9.5783 29.0352 9.43455 29.3227 9.14705C29.6102 8.85955 29.754 8.5033 29.754 8.0783C29.754 7.6533 29.6102 7.29705 29.3227 7.00955C29.0352 6.72205 28.679 6.5783 28.254 6.5783C27.829 6.5783 27.4727 6.72205 27.1852 7.00955C26.8977 7.29705 26.754 7.6533 26.754 8.0783C26.754 8.5033 26.8977 8.85955 27.1852 9.14705C27.4727 9.43455 27.829 9.5783 28.254 9.5783Z" fill="#FEFEFE"/>
<path d="M16.2255 30.3184L16.2255 27.2292C16.2255 27.0502 16.2581 26.8823 16.3233 26.7255C16.3888 26.5688 16.4917 26.4203 16.632 26.28L26.9763 15.9589C27.2031 15.7359 27.4536 15.5685 27.7278 15.4568C28.0018 15.3453 28.286 15.2895 28.5802 15.2895C28.8745 15.2895 29.1595 15.3429 29.4352 15.4497C29.7112 15.5564 29.9608 15.7213 30.1841 15.9443L31.9061 17.6607C32.1233 17.8934 32.2877 18.1478 32.3992 18.4238C32.5107 18.6998 32.5713 18.9819 32.5811 19.2702C32.5906 19.5587 32.5357 19.8409 32.4165 20.1169C32.2972 20.3929 32.129 20.6473 31.9117 20.88L21.5475 31.2675C21.407 31.4078 21.2585 31.5107 21.102 31.5762C20.9452 31.6414 20.7773 31.674 20.5983 31.674L17.5811 31.674C17.1971 31.674 16.8751 31.5442 16.6151 31.2844C16.3553 31.0244 16.2255 30.7024 16.2255 30.3184ZM18.4755 29.424L20.2061 29.424L26.7858 22.8443L25.9207 21.9788L25.0121 21.0848L18.4755 27.6214L18.4755 29.424ZM8.41158 31.674C7.37083 31.674 6.48508 31.3095 5.75433 30.5805C5.02358 29.8513 4.6582 28.9658 4.6582 27.924C4.6582 27.0838 4.9057 26.3439 5.4007 25.7044C5.89595 25.0652 6.52345 24.6214 7.2832 24.3732L7.2832 11.652C6.52345 11.404 5.89595 10.9565 5.4007 10.3095C4.9057 9.6623 4.6582 8.91855 4.6582 8.0783C4.6582 7.03655 5.0227 6.15105 5.7517 5.4218C6.48095 4.6928 7.36645 4.3283 8.4082 4.3283C9.24845 4.3283 9.9922 4.5758 10.6395 5.0708C11.2865 5.56605 11.734 6.19355 11.982 6.9533L18.0022 6.9533L15.6656 4.63092C15.4331 4.40692 15.3168 4.14567 15.3168 3.84717C15.3168 3.54867 15.4331 3.28305 15.6656 3.0503C15.8983 2.81755 16.1657 2.70117 16.4677 2.70117C16.7695 2.70117 17.0367 2.81755 17.2695 3.0503L21.3483 7.12917C21.6196 7.40017 21.7552 7.71655 21.7552 8.0783C21.7552 8.4398 21.6196 8.75605 21.3483 9.02705L17.2466 13.1292C17.0233 13.3522 16.7622 13.466 16.4632 13.4708C16.1642 13.4758 15.8983 13.3619 15.6656 13.1292C15.4331 12.8964 15.3168 12.629 15.3168 12.327C15.3168 12.0253 15.4331 11.758 15.6656 11.5253L18.0022 9.2033L11.982 9.2033C11.7955 9.79555 11.4887 10.305 11.0617 10.7318C10.635 11.1588 10.1255 11.4655 9.5332 11.652L9.5332 24.3503C10.2927 24.5983 10.9201 25.0458 11.4153 25.6928C11.9103 26.34 12.1578 27.0838 12.1578 27.924C12.1578 28.9658 11.7936 29.8513 11.0651 30.5805C10.3366 31.3095 9.45208 31.674 8.41158 31.674ZM28.2506 4.3283C29.2913 4.3283 30.1771 4.69255 30.9078 5.42105C31.6386 6.14955 32.004 7.03417 32.004 8.07492C32.004 9.11542 31.6397 10.001 30.9112 10.7318C30.1827 11.4625 29.2981 11.8279 28.2573 11.8279C27.2168 11.8279 26.3312 11.4637 25.6005 10.7352C24.8697 10.0067 24.5043 9.12217 24.5043 8.08167C24.5043 7.04092 24.8686 6.15517 25.5971 5.42442C26.3256 4.69367 27.2101 4.3283 28.2506 4.3283ZM8.4082 29.424C8.8332 29.424 9.18945 29.2803 9.47695 28.9928C9.76445 28.7053 9.9082 28.349 9.9082 27.924C9.9082 27.499 9.76445 27.1428 9.47695 26.8553C9.18945 26.5678 8.8332 26.424 8.4082 26.424C7.9832 26.424 7.62695 26.5678 7.33945 26.8553C7.05195 27.1428 6.9082 27.499 6.9082 27.924C6.9082 28.349 7.05195 28.7053 7.33945 28.9928C7.62695 29.2803 7.9832 29.424 8.4082 29.424ZM8.4082 9.5783C8.8332 9.5783 9.18945 9.43455 9.47695 9.14705C9.76445 8.85955 9.9082 8.5033 9.9082 8.0783C9.9082 7.6533 9.76445 7.29705 9.47695 7.00955C9.18945 6.72205 8.8332 6.5783 8.4082 6.5783C7.9832 6.5783 7.62695 6.72205 7.33945 7.00955C7.05195 7.29705 6.9082 7.6533 6.9082 8.0783C6.9082 8.5033 7.05195 8.85955 7.33945 9.14705C7.62695 9.43455 7.9832 9.5783 8.4082 9.5783ZM28.254 9.5783C28.679 9.5783 29.0352 9.43455 29.3227 9.14705C29.6102 8.85955 29.754 8.5033 29.754 8.0783C29.754 7.6533 29.6102 7.29705 29.3227 7.00955C29.0352 6.72205 28.679 6.5783 28.254 6.5783C27.829 6.5783 27.4727 6.72205 27.1852 7.00955C26.8977 7.29705 26.754 7.6533 26.754 8.0783C26.754 8.5033 26.8977 8.85955 27.1852 9.14705C27.4727 9.43455 27.829 9.5783 28.254 9.5783Z" fill="url(#paint0_angular_1257_1471)" style="mix-blend-mode:difference"/>
</g>
</g>
<defs>
<radialGradient id="paint0_angular_1257_1471" cx="0" cy="0" r="1" gradientUnits="userSpaceOnUse" gradientTransform="translate(18.0033 20.0281) rotate(84.9951) scale(14.1599 13.9007)">
<stop offset="0.0267408" stop-color="#2D2B2B"/>
<stop offset="0.144403" stop-color="#3D3838"/>
<stop offset="0.226247" stop-color="#201C1C"/>
<stop offset="0.411006"/>
<stop offset="0.492082" stop-color="#342B2B"/>
<stop offset="0.793963"/>
<stop offset="0.939288" stop-color="#262424"/>
</radialGradient>
</defs>
</svg>
