<svg width="272" height="266" viewBox="0 0 272 266" fill="none" xmlns="http://www.w3.org/2000/svg">
<g opacity="0.1">
<path d="M136 227.462C194.252 227.462 241.476 224.766 241.476 221.44C241.476 218.114 194.252 215.418 136 215.418C77.7467 215.418 30.5234 218.114 30.5234 221.44C30.5234 224.766 77.7467 227.462 136 227.462Z" fill="#F5F5F5"/>
</g>
<g opacity="0.8">
<path opacity="0.5" d="M90.1029 54.1948C90.1104 58.7445 88.5225 63.1591 85.604 66.7022C83.9659 68.6818 82.6418 70.8913 81.6763 73.2564C81.2915 74.2218 80.6191 75.052 79.7461 75.6391C78.8731 76.2263 77.8398 76.5435 76.7803 76.5495H62.4894C61.4308 76.5458 60.3978 76.2307 59.5247 75.6454C58.6516 75.06 57.9787 74.2313 57.5934 73.267C56.6038 70.8466 55.2627 68.5782 53.6113 66.5319C51.6016 64.0274 50.233 61.0895 49.6197 57.9629C49.0064 54.8363 49.1661 51.6116 50.0855 48.5576C51.0048 45.5036 52.6573 42.7087 54.9051 40.4058C57.1529 38.1029 59.931 36.3588 63.0078 35.3187C66.0846 34.2787 69.371 33.9728 72.5932 34.4267C75.8153 34.8805 78.8799 36.0809 81.5315 37.9278C84.1832 39.7747 86.345 42.2147 87.8369 45.0443C89.3288 47.8739 90.1076 51.0112 90.1083 54.1948H90.1029Z" fill="white"/>
<path d="M77.0467 82.6398H62.2989C61.6741 82.637 61.0758 82.3927 60.6345 81.9602C60.1932 81.5276 59.9448 80.942 59.9434 80.331C59.9448 79.7204 60.1934 79.1353 60.6349 78.7037C61.0763 78.272 61.6746 78.0288 62.2989 78.0274H77.0467C77.3577 78.0253 77.666 78.0833 77.954 78.198C78.2419 78.3128 78.5039 78.4821 78.7248 78.6961C78.9457 78.9102 79.1212 79.1648 79.2412 79.4453C79.3612 79.7259 79.4233 80.0269 79.424 80.331C79.4233 80.6353 79.3612 80.9365 79.2413 81.2174C79.1213 81.4982 78.946 81.7532 78.7251 81.9677C78.5043 82.1821 78.2424 82.3519 77.9544 82.4672C77.6664 82.5826 77.3579 82.6412 77.0467 82.6398Z" fill="white"/>
<path d="M77.0467 88.8415H62.2989C61.6746 88.8401 61.0763 88.5969 60.6349 88.1652C60.1934 87.7335 59.9448 87.1484 59.9434 86.5379C59.9448 85.9274 60.1934 85.3423 60.6349 84.9106C61.0763 84.4789 61.6746 84.2358 62.2989 84.2344H77.0467C77.671 84.2358 78.2693 84.4789 78.7107 84.9106C79.1522 85.3423 79.4008 85.9274 79.4022 86.5379C79.4008 87.1484 79.1522 87.7335 78.7107 88.1652C78.2693 88.5969 77.671 88.8401 77.0467 88.8415Z" fill="white"/>
<path d="M69.6704 63.0414C68.1224 63.0404 66.6094 62.5905 65.3228 61.7487C64.0362 60.9068 63.0336 59.7108 62.442 58.3119C61.8503 56.9129 61.6961 55.3738 61.9987 53.8892C62.3014 52.4045 63.0474 51.0409 64.1424 49.9708C65.2374 48.9007 66.6323 48.1721 68.1506 47.8772C69.669 47.5822 71.2427 47.7341 72.6728 48.3137C74.1029 48.8933 75.3251 49.8745 76.1851 51.1333C77.045 52.3922 77.504 53.8721 77.504 55.386C77.5011 57.4164 76.6747 59.3627 75.2061 60.798C73.7374 62.2332 71.7466 63.04 69.6704 63.0414ZM69.6704 48.2625C68.2299 48.2635 66.8222 48.6822 65.625 49.4656C64.4278 50.249 63.4951 51.3619 62.9446 52.6636C62.3941 53.9653 62.2506 55.3975 62.5323 56.7789C62.814 58.1604 63.5081 59.4292 64.5271 60.4249C65.546 61.4206 66.8439 62.0985 68.2567 62.3729C69.6696 62.6474 71.1339 62.506 72.4646 61.9667C73.7953 61.4274 74.9326 60.5143 75.7327 59.343C76.5329 58.1717 76.96 56.7946 76.96 55.386C76.9585 53.4962 76.1899 51.6843 74.823 50.3486C73.4561 49.0128 71.6028 48.2625 69.6704 48.2625Z" fill="#D3D3D7"/>
<path d="M75.1098 63.0414C73.5618 63.0404 72.0488 62.5905 70.7622 61.7487C69.4756 60.9068 68.4731 59.7108 67.8814 58.3119C67.2898 56.9129 67.1355 55.3738 67.4382 53.8892C67.7409 52.4045 68.4868 51.0409 69.5819 49.9708C70.6769 48.9007 72.0717 48.1721 73.5901 47.8772C75.1084 47.5822 76.6821 47.7341 78.1122 48.3137C79.5423 48.8933 80.7646 49.8745 81.6245 51.1333C82.4845 52.3922 82.9434 53.8721 82.9434 55.386C82.9406 57.4164 82.1141 59.3627 80.6455 60.798C79.1769 62.2332 77.1861 63.04 75.1098 63.0414ZM75.1098 48.2625C73.6694 48.2635 72.2616 48.6822 71.0645 49.4656C69.8673 50.249 68.9345 51.3619 68.384 52.6636C67.8335 53.9653 67.6901 55.3975 67.9717 56.7789C68.2534 58.1604 68.9476 59.4292 69.9665 60.4249C70.9854 61.4206 72.2834 62.0985 73.6962 62.3729C75.109 62.6474 76.5734 62.506 77.9041 61.9667C79.2347 61.4274 80.372 60.5143 81.1722 59.343C81.9724 58.1717 82.3994 56.7946 82.3994 55.386C82.398 53.4962 81.6293 51.6843 80.2624 50.3486C78.8955 49.0128 77.0422 48.2625 75.1098 48.2625Z" fill="#D3D3D7"/>
<path d="M64.2309 63.0414C62.6829 63.0404 61.1699 62.5905 59.8833 61.7487C58.5967 60.9068 57.5942 59.7108 57.0025 58.3119C56.4109 56.9129 56.2566 55.3738 56.5593 53.8892C56.862 52.4045 57.6079 51.0409 58.7029 49.9708C59.798 48.9007 61.1928 48.1721 62.7112 47.8772C64.2295 47.5822 65.8032 47.7341 67.2333 48.3137C68.6634 48.8933 69.8857 49.8745 70.7456 51.1333C71.6056 52.3922 72.0645 53.8721 72.0645 55.386C72.0616 57.4164 71.2352 59.3627 69.7666 60.798C68.298 62.2332 66.3071 63.04 64.2309 63.0414ZM64.2309 48.2625C62.7905 48.2635 61.3827 48.6822 60.1855 49.4656C58.9884 50.249 58.0556 51.3619 57.5051 52.6636C56.9546 53.9653 56.8112 55.3975 57.0928 56.7789C57.3745 58.1604 58.0687 59.4292 59.0876 60.4249C60.1065 61.4206 61.4045 62.0985 62.8173 62.3729C64.2301 62.6474 65.6945 62.506 67.0251 61.9667C68.3558 61.4274 69.4931 60.5143 70.2933 59.343C71.0935 58.1717 71.5205 56.7946 71.5205 55.386C71.5191 53.4962 70.7504 51.6843 69.3835 50.3486C68.0166 49.0128 66.1633 48.2625 64.2309 48.2625Z" fill="#D3D3D7"/>
<path d="M64.7356 76.5477H64.1916C64.1916 72.3715 62.0591 68.5677 59.9973 64.9022C58.1423 61.5985 56.3906 58.481 56.3906 55.3848H56.9346C56.9346 58.3427 58.6537 61.4017 60.4706 64.6416C62.5596 68.3762 64.7356 72.2332 64.7356 76.5477Z" fill="#D3D3D7"/>
<path d="M75.1436 76.5477H74.5996C74.5996 72.2332 76.7756 68.3762 78.8646 64.6416C80.6815 61.4017 82.4006 58.3427 82.4006 55.3848H82.9446C82.9446 58.481 81.1929 61.5985 79.3378 64.9022C77.2761 68.573 75.1436 72.3502 75.1436 76.5477Z" fill="#D3D3D7"/>
<path d="M155.501 48.826C157.285 45.7824 156.208 41.9008 153.095 40.1563C149.983 38.4117 146.014 39.4649 144.23 42.5085C142.446 45.5522 143.523 49.4337 146.635 51.1783C149.748 52.9228 153.717 51.8696 155.501 48.826Z" fill="white"/>
<path d="M136.06 64.0689C138.371 64.0689 140.244 62.2372 140.244 59.9778C140.244 57.7184 138.371 55.8867 136.06 55.8867C133.75 55.8867 131.877 57.7184 131.877 59.9778C131.877 62.2372 133.75 64.0689 136.06 64.0689Z" fill="white"/>
<path d="M129.352 68.9619C129.352 69.4249 129.211 69.8774 128.948 70.2624C128.685 70.6473 128.311 70.9473 127.874 71.1245C127.437 71.3017 126.955 71.348 126.491 71.2577C126.027 71.1674 125.6 70.9445 125.266 70.6171C124.931 70.2897 124.703 69.8726 124.61 69.4186C124.518 68.9645 124.565 68.4938 124.747 68.0661C124.928 67.6384 125.235 67.2728 125.628 67.0156C126.022 66.7584 126.485 66.6211 126.958 66.6211C127.593 66.6211 128.202 66.8677 128.651 67.3067C129.099 67.7457 129.352 68.3411 129.352 68.9619Z" fill="white"/>
<path d="M112.609 39.2654C113.133 41.1583 112.973 43.1703 112.156 44.9611C111.338 46.7519 109.914 48.2117 108.123 49.0937C106.331 49.9758 104.284 50.226 102.326 49.8019C100.368 49.3779 98.6198 48.3057 97.377 46.7666C98.824 47.1444 100.347 47.1444 101.794 46.7666C103.2 46.4073 104.491 45.7097 105.551 44.7372C106.61 43.7648 107.403 42.5485 107.859 41.1992C108.314 39.85 108.417 38.4107 108.158 37.0127C107.898 35.6147 107.285 34.3023 106.375 33.1953C107.872 33.5744 109.238 34.3366 110.334 35.4034C111.429 36.4703 112.215 37.8033 112.609 39.2654Z" fill="white"/>
<path d="M213.139 36.7057C201.894 31.6889 196.928 41.9884 196.928 41.9884L213.014 44.8506L213.139 36.7057Z" fill="#263238"/>
<path d="M218.59 47.4172C215.908 59.217 204.506 56.8922 204.506 56.8922L211.866 42.6133L218.59 47.4172Z" fill="#263238"/>
<path d="M240.012 30.3227C223.219 27.4712 203.842 40.1966 203.842 40.1966L201.279 49.1662L210.152 52.5816C210.152 52.5816 232.217 45.1283 240.012 30.3227Z" fill="#3B6C65"/>
<path d="M205.719 41.5801C193.654 42.6441 192.25 49.5601 192.25 49.5601L207.678 44.9104L205.719 41.5801Z" fill="#263238"/>
<path d="M210.141 50.2718C202.019 59.0605 195.529 55.9855 195.529 55.9855L208.623 46.75L210.141 50.2718Z" fill="#263238"/>
<path d="M220.777 45.0437C219.91 45.4615 218.936 45.6191 217.978 45.4965C217.019 45.3739 216.12 44.9766 215.392 44.3547C214.664 43.7328 214.14 42.9141 213.887 42.0018C213.634 41.0895 213.663 40.1244 213.97 39.2281C214.277 38.3318 214.849 37.5444 215.613 36.9652C216.376 36.386 217.299 36.0408 218.263 35.9732C219.227 35.9056 220.19 36.1186 221.03 36.5853C221.871 37.052 222.551 37.7516 222.986 38.5958C223.566 39.7376 223.659 41.0575 223.245 42.2663C222.83 43.475 221.943 44.4738 220.777 45.0437Z" fill="white"/>
<path opacity="0.4" d="M220.401 44.3035C219.679 44.6578 218.867 44.7944 218.066 44.6962C217.265 44.598 216.511 44.2693 215.902 43.7518C215.292 43.2343 214.853 42.5514 214.641 41.7896C214.429 41.0279 214.453 40.2217 214.71 39.4734C214.967 38.725 215.446 38.0682 216.085 37.5863C216.725 37.1044 217.496 36.8191 218.302 36.7666C219.107 36.7141 219.911 36.8968 220.61 37.2915C221.309 37.6862 221.872 38.2751 222.229 38.9835C222.703 39.9268 222.777 41.0152 222.435 42.0116C222.093 43.0081 221.361 43.8319 220.401 44.3035Z" fill="#3B6C65"/>
<path opacity="0.7" d="M95.0858 36.9725C93.6551 37.446 93.2634 37.829 92.7792 39.2282C92.2951 37.829 91.9034 37.446 90.4727 36.9725C91.9034 36.499 92.2951 36.116 92.7792 34.7168C93.2634 36.116 93.6551 36.499 95.0858 36.9725Z" fill="white"/>
</g>
<path d="M124.211 106.555C123.993 110.811 129.738 115.216 132.975 115.274C133.692 115.313 134.407 115.173 135.053 114.868C135.699 114.563 136.256 114.102 136.67 113.528C137.085 112.955 137.343 112.288 137.422 111.591C137.501 110.893 137.397 110.187 137.12 109.539C134.498 112.268 129.814 109.305 127.943 106.672C126.072 104.038 124.407 102.815 124.211 106.555Z" fill="#263238"/>
<path d="M137.79 113.453C134.286 114.176 131.691 110.394 130.652 107.824L132.66 115.272C135.456 116.278 137.387 116.161 137.79 113.453Z" fill="#263238"/>
<path d="M114.354 187.796C114.632 186.113 115.501 184.578 116.812 183.454C118.123 182.331 119.793 181.689 121.535 181.641H127.84L133.035 145.364C133.271 143.897 134.022 142.557 135.159 141.573C136.296 140.59 137.747 140.024 139.264 139.974H166.655C167.347 139.956 168.034 140.088 168.668 140.362C169.301 140.636 169.863 141.045 170.314 141.559C170.765 142.073 171.093 142.679 171.274 143.332C171.455 143.986 171.484 144.671 171.36 145.337L166.595 178.752C165.86 183.891 161.002 188.051 155.753 188.051H114.316L114.354 187.796Z" fill="#263238"/>
<path d="M151.025 221.625H156.514L155.66 188.051H151.874L151.025 221.625Z" fill="#E0E0E0"/>
<path opacity="0.3" d="M151.836 189.62L155.72 190.503L155.66 188.051H151.874L151.836 189.62Z" fill="#263238"/>
<path d="M138.66 221.625H144.149L143.295 188.051H139.509L138.66 221.625Z" fill="#E0E0E0"/>
<path opacity="0.3" d="M139.471 189.62L143.355 190.503L143.295 188.051H139.509L139.471 189.62Z" fill="#263238"/>
<path d="M129.65 221.625H135.145L134.291 188.051H130.504L129.65 221.625Z" fill="#E0E0E0"/>
<path opacity="0.3" d="M130.467 189.62L134.351 190.503L134.291 188.051H130.505L130.467 189.62Z" fill="#263238"/>
<path d="M117.285 221.625H122.78L121.925 188.051H118.139L117.285 221.625Z" fill="#E0E0E0"/>
<path opacity="0.3" d="M118.102 189.62L121.986 190.503L121.926 188.051H118.14L118.102 189.62Z" fill="#263238"/>
<path d="M120.3 115.102C115.083 115.405 114.468 109.324 116.193 106.957C117.959 108.538 119.935 109.878 122.068 110.942C120.768 116.123 120.3 115.102 120.3 115.102Z" fill="#263238"/>
<path d="M131.755 139.15C131.315 140.129 130.858 141.48 130.303 143.065C130.026 143.863 129.694 144.714 129.291 145.635C128.856 146.65 128.324 147.622 127.703 148.539C126.956 149.643 126.038 150.627 124.983 151.455C123.865 152.313 122.599 152.969 121.245 153.391C120.038 153.763 118.784 153.969 117.519 154.003C116.427 154.018 115.335 153.947 114.255 153.79L113.983 153.753C113.359 153.667 112.762 153.453 112.229 153.125C111.696 152.797 111.241 152.362 110.893 151.849C110.532 151.312 110.245 150.73 110.039 150.12C109.88 149.639 109.766 149.146 109.696 148.646C109.589 147.872 109.573 147.088 109.647 146.31C109.768 145.098 110.003 143.9 110.349 142.73C110.963 140.714 111.737 138.748 112.666 136.851C113.553 135.021 114.511 133.266 115.539 131.531C116.567 129.797 117.633 128.18 118.852 126.541C119.213 126.055 119.741 125.71 120.339 125.57C120.937 125.429 121.567 125.502 122.115 125.775C122.663 126.049 123.094 126.504 123.329 127.06C123.565 127.616 123.59 128.235 123.4 128.808V128.882C122.812 130.632 122.181 132.436 121.604 134.202C121.028 135.968 120.457 137.74 119.972 139.49C119.483 141.152 119.097 142.842 118.819 144.549C118.705 145.239 118.659 145.937 118.683 146.635C118.687 146.816 118.72 146.996 118.781 147.167C118.781 147.199 118.781 147.167 118.781 147.082C118.739 146.921 118.669 146.768 118.574 146.63L115.218 144.704C115.776 144.718 116.335 144.686 116.888 144.608C117.264 144.547 117.629 144.438 117.976 144.283C118.185 144.185 118.371 144.043 118.52 143.869C118.734 143.651 118.917 143.406 119.064 143.14C119.307 142.684 119.523 142.215 119.711 141.735C119.945 141.166 120.163 140.496 120.418 139.767C120.964 138.009 121.656 136.297 122.486 134.649C123.107 133.49 124.163 132.612 125.432 132.199C126.702 131.786 128.085 131.871 129.292 132.435C130.499 133 131.435 134 131.904 135.225C132.372 136.45 132.337 137.806 131.804 139.006L131.755 139.15Z" fill="#FFC3BD"/>
<path d="M116.007 122.593L116.143 123.093C116.623 124.869 117.559 126.496 118.863 127.818L119.32 128.286C119.703 128.653 120.176 128.916 120.694 129.05C121.212 129.183 121.757 129.182 122.274 129.046C124.113 128.616 125.391 126.918 125.049 125.408C124.781 124.384 124.33 123.415 123.716 122.545L122.628 120.167C122.402 119.761 122.031 119.45 121.585 119.294C121.14 119.138 120.651 119.148 120.213 119.322L117.656 120.125C116.481 120.492 115.741 121.604 116.007 122.593Z" fill="#FFC3BD"/>
<path opacity="0.2" d="M125.055 125.408C124.787 124.384 124.336 123.415 123.722 122.545L122.634 120.167C122.408 119.761 122.037 119.45 121.592 119.294C121.146 119.138 120.657 119.148 120.219 119.322L119.131 119.651C119.751 121.591 120.697 123.416 121.932 125.051C122.666 125.997 123.636 126.741 124.75 127.211C125.07 126.665 125.178 126.025 125.055 125.408Z" fill="black"/>
<path d="M109.773 208.332C110.617 207.747 115.703 207.391 115.703 207.391C116.607 211.114 117.283 214.888 117.727 218.69L111.286 217.919C111.286 217.919 110.9 211.636 109.773 208.332Z" fill="#FF8B7B"/>
<path d="M117.531 207.714C116.149 197.745 118.695 188.131 117.286 181.944C124.385 183.173 139.046 185.705 141.499 175.917C142.446 172.113 146.542 167.484 146.21 165.367C140.036 165.367 119.865 165.144 112.515 166.516C100.504 168.756 101.042 176.848 104.268 190.504C105.525 195.824 106.188 196.76 107.766 203.708C108.615 207.432 108.435 209.762 109.534 212.194C112.287 214.088 115.817 213.21 117.52 212.359C118.918 211.06 117.808 209.757 117.531 207.714Z" fill="#3B6C65"/>
<path d="M132.561 208.916C133.143 208.012 137.636 205.623 137.636 205.623C139.617 208.884 141.394 212.26 142.956 215.731L136.891 217.588C136.891 217.588 134.601 211.661 132.561 208.916Z" fill="#FF8B7B"/>
<path d="M130.014 128.542C138.251 129.755 132.936 144.949 130.014 149.758C125.51 147.316 119.542 145.922 118.699 142.342C120.875 138.277 119.678 127.026 130.014 128.542Z" fill="#263238"/>
<path d="M147.233 122.105C141.059 122.712 129.896 125.776 124.494 129.218C121.828 130.92 120.729 134.272 121.295 137.73C123.357 150.392 124.744 157.164 124.369 165.74C127.089 169.331 152.657 172.214 159.049 166.804C159.93 162.016 161.268 149.844 158.847 131.357C157.993 124.829 152.901 121.552 147.233 122.105Z" fill="white"/>
<path opacity="0.2" d="M158.847 131.36C158.847 131.185 158.798 131.014 158.765 130.828C146.509 132.19 142.908 154.401 159.821 160.86C160.387 154.502 160.572 144.538 158.847 131.36Z" fill="black"/>
<path d="M133.823 113.41C134.655 118.102 137.087 122.412 140.541 123.816C140.541 123.816 137.484 129.668 130.205 134.834C126.74 131.759 127.137 128.774 127.137 128.774C128.404 127.109 129.253 125.311 127.539 123.486L133.823 113.41Z" fill="#FFC3BD"/>
<path opacity="0.2" d="M132.192 118.923L127.965 123.998C128.282 124.445 128.47 124.966 128.51 125.508C128.55 126.05 128.441 126.592 128.193 127.079C129.537 126.44 131.669 125.132 132.431 123.509C133.688 120.796 132.97 118.726 132.192 118.923Z" fill="black"/>
<path d="M132.316 109.186C134.161 114.251 135.499 117.107 134.057 120.89C131.881 126.572 124.662 127.391 121.311 123.082C118.292 119.198 115.784 111.569 119.87 107.175C123.955 102.781 130.472 104.121 132.316 109.186Z" fill="#FFC3BD"/>
<path d="M126.959 108.038C126.203 110.81 130.816 111.986 130.419 115.183C132.753 115.034 134.667 113.289 135.38 110.682C136.093 108.076 133.835 102.793 130.484 104.995C128.156 105.485 127.476 106.134 126.959 108.038Z" fill="#263238"/>
<path d="M126.022 116.017C126.169 116.432 126.066 116.847 125.788 116.943C125.511 117.038 125.163 116.778 125.011 116.363C124.858 115.948 124.967 115.533 125.244 115.432C125.522 115.331 125.87 115.597 126.022 116.017Z" fill="#263238"/>
<path d="M121.083 118.258C121.23 118.673 121.126 119.088 120.849 119.184C120.572 119.28 120.223 119.019 120.071 118.604C119.919 118.189 120.028 117.774 120.305 117.678C120.582 117.583 120.931 117.838 121.083 118.258Z" fill="#263238"/>
<path d="M127.79 121.541C127.59 121.694 127.377 121.829 127.153 121.945C127.138 121.954 127.121 121.959 127.104 121.961C127.086 121.963 127.069 121.961 127.052 121.956C127.035 121.951 127.02 121.943 127.006 121.932C126.993 121.921 126.982 121.907 126.974 121.892C126.964 121.877 126.958 121.861 126.956 121.844C126.954 121.826 126.955 121.809 126.96 121.792C126.966 121.776 126.974 121.76 126.986 121.747C126.998 121.734 127.012 121.724 127.028 121.717C127.527 121.467 127.959 121.107 128.288 120.664C128.618 120.221 128.837 119.709 128.927 119.168C128.931 119.134 128.948 119.103 128.976 119.081C129.003 119.059 129.038 119.048 129.074 119.051C129.091 119.053 129.107 119.057 129.123 119.065C129.138 119.073 129.152 119.083 129.163 119.096C129.174 119.109 129.182 119.124 129.188 119.14C129.193 119.156 129.195 119.173 129.193 119.19C129.056 120.122 128.552 120.966 127.79 121.541Z" fill="#263238"/>
<path d="M125.886 113.406C125.851 113.415 125.815 113.416 125.779 113.409C125.743 113.403 125.709 113.389 125.68 113.369C125.41 113.178 125.097 113.053 124.768 113.003C124.439 112.953 124.103 112.98 123.787 113.082C123.722 113.108 123.649 113.109 123.583 113.083C123.518 113.057 123.466 113.007 123.438 112.943C123.424 112.912 123.417 112.878 123.416 112.844C123.415 112.809 123.422 112.775 123.435 112.744C123.448 112.712 123.468 112.683 123.493 112.659C123.518 112.635 123.547 112.616 123.58 112.603C123.978 112.468 124.404 112.429 124.821 112.487C125.238 112.545 125.635 112.7 125.979 112.938C126.037 112.977 126.078 113.037 126.091 113.105C126.104 113.172 126.089 113.243 126.05 113.3C126.031 113.327 126.007 113.351 125.979 113.369C125.951 113.387 125.92 113.4 125.886 113.406Z" fill="#263238"/>
<path d="M119.772 115.731C119.835 115.707 119.904 115.707 119.967 115.731C120 115.743 120.029 115.762 120.054 115.785C120.079 115.809 120.099 115.837 120.113 115.868C120.127 115.899 120.134 115.933 120.134 115.967C120.134 116.001 120.128 116.034 120.114 116.066C119.968 116.452 119.73 116.798 119.42 117.075C119.109 117.353 118.736 117.554 118.33 117.662C118.296 117.669 118.26 117.669 118.226 117.663C118.191 117.656 118.159 117.644 118.129 117.625C118.1 117.606 118.075 117.582 118.055 117.553C118.035 117.525 118.022 117.493 118.014 117.46C118.001 117.392 118.016 117.322 118.054 117.265C118.093 117.207 118.153 117.166 118.221 117.151C118.543 117.064 118.838 116.902 119.082 116.68C119.326 116.458 119.512 116.182 119.625 115.874C119.652 115.809 119.705 115.758 119.772 115.731Z" fill="#263238"/>
<path d="M157.494 129.441C157.82 130.356 158.081 131.159 158.337 132.021C158.593 132.883 158.827 133.723 159.06 134.58C159.501 136.293 159.904 138.027 160.219 139.809C160.377 140.698 160.524 141.592 160.649 142.507C160.774 143.422 160.861 144.353 160.926 145.305C160.992 146.257 161.035 147.236 160.997 148.268C160.975 149.392 160.854 150.512 160.633 151.615L160.578 151.881C160.449 152.491 160.182 153.066 159.795 153.562C159.222 154.281 158.53 154.903 157.749 155.402C157.1 155.815 156.4 156.148 155.666 156.392C154.499 156.767 153.286 156.985 152.059 157.041C151.031 157.096 149.999 157.069 148.975 156.961C147.996 156.865 147.06 156.732 146.146 156.557C144.368 156.206 142.616 155.741 140.902 155.163C139.21 154.603 137.557 153.938 135.951 153.173C135.412 152.91 134.984 152.471 134.741 151.932C134.497 151.393 134.453 150.787 134.617 150.22C134.781 149.653 135.141 149.16 135.637 148.825C136.133 148.49 136.733 148.334 137.333 148.385H137.469C139.025 148.529 140.684 148.704 142.273 148.811C143.861 148.917 145.444 149.002 146.956 148.986C148.34 149.006 149.722 148.884 151.08 148.625C151.533 148.546 151.969 148.393 152.369 148.172C152.484 148.093 152.527 148.029 152.505 148.024C152.484 148.018 152.375 148.055 152.266 148.167L151.428 150.114C151.45 149.545 151.434 148.974 151.379 148.407C151.308 147.747 151.238 147.039 151.118 146.316C150.879 144.858 150.574 143.337 150.188 141.799C149.802 140.262 149.415 138.714 148.975 137.165L147.664 132.558L147.631 132.441C147.274 131.177 147.433 129.826 148.076 128.674C148.718 127.522 149.794 126.66 151.075 126.27C152.356 125.88 153.741 125.992 154.939 126.582C156.137 127.173 157.053 128.196 157.494 129.435V129.441Z" fill="#FFC3BD"/>
<path d="M126.915 152.906C126.801 152.907 126.69 152.873 126.597 152.808C126.504 152.744 126.434 152.653 126.397 152.548C126.36 152.443 126.357 152.329 126.39 152.222C126.422 152.116 126.488 152.022 126.578 151.954L139.4 142.234C139.456 142.191 139.521 142.159 139.591 142.14C139.66 142.121 139.732 142.116 139.804 142.125C139.875 142.134 139.944 142.157 140.006 142.192C140.069 142.227 140.123 142.274 140.167 142.33C140.255 142.441 140.293 142.582 140.275 142.722C140.257 142.862 140.183 142.988 140.069 143.075L127.247 152.794C127.152 152.866 127.035 152.906 126.915 152.906Z" fill="#263238"/>
<path d="M131.876 147.726L134.003 147.524C134.837 147.443 135.677 147.571 136.446 147.896L138.578 148.806C139.088 149.054 139.514 149.441 139.803 149.921C140.093 150.4 140.234 150.952 140.21 151.508C140.21 153.216 139.052 154.78 137.545 154.987C136.468 155.099 135.38 155.023 134.33 154.764L131.648 154.583C131.183 154.525 130.758 154.295 130.46 153.941C130.162 153.588 130.013 153.136 130.043 152.679L129.994 150.072C129.962 149.524 130.136 148.983 130.482 148.551C130.829 148.119 131.324 147.826 131.876 147.726Z" fill="#FFC3BD"/>
<path d="M139.846 202.069C135.456 193.115 138.257 192.317 134.308 183.805C141.206 184.513 153.582 185.098 157.743 176.23C159.413 172.671 159.06 168.558 159.049 166.808C154.316 164.318 139.149 164.994 131.849 166.537C119.881 169.058 114.468 171.325 119.337 185.689C120.936 190.407 123.188 194.674 127.954 202.218C130.01 205.468 131.076 210.544 133.046 212.379C134.961 213.948 136.854 210.682 140.727 211.113C142.364 208.74 140.754 203.926 139.846 202.069Z" fill="#3B6C65"/>
<path opacity="0.4" d="M139.846 202.069C135.456 193.115 138.257 192.317 134.308 183.805C141.206 184.513 153.582 185.098 157.743 176.23C159.413 172.671 159.06 168.558 159.049 166.808C154.316 164.318 139.149 164.994 131.849 166.537C119.881 169.058 114.468 171.325 119.337 185.689C120.936 190.407 123.188 194.674 127.954 202.218C130.01 205.468 131.076 210.544 133.046 212.379C134.961 213.948 136.854 210.682 140.727 211.113C142.364 208.74 140.754 203.926 139.846 202.069Z" fill="#3B6C65"/>
<path d="M143.381 213.8C142.054 213.028 137.941 214.896 137.941 214.896C137.87 214.382 137.685 213.89 137.397 213.454C136.892 212.571 134.373 213.496 133.589 214.592C132.806 215.688 135.107 216.215 135.107 216.215C133.883 218.641 134.688 219.939 130.956 220.918C130.179 221.12 130.461 222.716 132.311 222.743C135.379 222.785 135.118 221.727 137.626 221.014C139.769 220.402 142.522 219.652 144.731 218.987C144.825 218.967 144.914 218.928 144.992 218.872C145.07 218.817 145.135 218.746 145.184 218.664C145.233 218.583 145.263 218.492 145.274 218.398C145.285 218.305 145.276 218.21 145.247 218.12L143.381 213.8Z" fill="#263238"/>
<path d="M118.15 217.349C117.117 216.232 112.634 216.843 112.634 216.843C112.723 216.335 112.699 215.815 112.563 215.317C112.346 214.322 109.658 214.492 108.592 215.317C107.526 216.141 109.555 217.301 109.555 217.301C107.662 219.269 107.308 219.961 103.571 220.919C102.793 221.121 103.071 222.717 104.926 222.743C107.988 222.786 107.912 222.573 110.523 222.61C112.759 222.642 115.61 222.711 117.922 222.711C118.018 222.717 118.115 222.702 118.206 222.669C118.297 222.636 118.379 222.585 118.449 222.519C118.518 222.453 118.573 222.373 118.61 222.286C118.646 222.198 118.664 222.104 118.662 222.009L118.15 217.349Z" fill="#263238"/>
<path d="M81.8497 157.164H143.947V152.897H81.8497V157.164Z" fill="#3B6C65"/>
<path opacity="0.3" d="M121.126 157.164H143.947V152.897H121.126V157.164Z" fill="#263238"/>
<path d="M110.121 223.531H115.675L114.234 157.164H111.563L110.121 223.531Z" fill="#E0E0E0"/>
<path opacity="0.3" d="M111.52 159.356L114.31 160.617L114.234 157.164H111.563L111.52 159.356Z" fill="#263238"/>
<path d="M112.911 150.246C111.1 150.73 99.2186 152.108 93.8711 150.778C95.0951 151.576 99.3546 152.906 103.07 152.906H131.946C131.946 152.906 134.943 152.906 135.623 152.119C131.543 152.507 115.539 152.018 112.911 150.246Z" fill="#3B6C65"/>
<path opacity="0.7" d="M112.911 150.246C111.1 150.73 99.2186 152.108 93.8711 150.778C95.0951 151.576 99.3546 152.906 103.07 152.906H131.946C131.946 152.906 134.943 152.906 135.623 152.119C131.543 152.507 115.539 152.018 112.911 150.246Z" fill="white"/>
<path d="M136.26 113.72C136.329 114.352 136.258 114.991 136.05 115.594C135.843 116.196 135.504 116.748 135.057 117.21C133.899 118.311 132.337 117.119 131.88 115.353C131.451 113.757 131.532 111.278 133.083 110.874C134.633 110.469 136.129 112.012 136.26 113.72Z" fill="#FFC3BD"/>
<path d="M127.839 108.787C125.619 112.437 118.335 113.006 115.604 111.303C112.966 109.66 112.928 105.765 115.604 103.855C116.246 107.553 121.637 108.048 124.689 106.867C127.741 105.686 129.814 105.569 127.839 108.787Z" fill="#263238"/>
<path d="M126.011 107.82C122.361 103.607 125.739 99.2176 130.048 99.3506C127.3 102.612 129.204 104.703 130.815 105.07C128.595 108.134 126.011 107.82 126.011 107.82Z" fill="#263238"/>
<path d="M124.755 111.262C119.951 113.699 113.668 112.752 112.912 110.358C115.317 111.236 117.863 110.395 118.091 109.459C119.946 110.757 124.755 111.262 124.755 111.262Z" fill="#263238"/>
<path d="M130.479 104.995C132.453 103.298 135.875 105.442 136.327 107.352C134.499 106.538 133.492 107.538 133.335 108.273C131.855 107.288 130.479 104.995 130.479 104.995Z" fill="#263238"/>
<path d="M118.445 107.916C116.079 104.724 118.026 100.032 122.215 99.207C120.969 101.335 125.392 104.261 127.269 103.186C129.287 107.751 127.481 108.98 124.059 109.937C121.508 110.656 119.272 109.017 118.445 107.916Z" fill="#263238"/>
<path d="M126.344 104.037C127.258 101.766 133.275 100.782 134.667 102.973C132.578 103.473 133.34 106.165 132.992 107.761C132.442 110.272 124.924 107.554 126.344 104.037Z" fill="#263238"/>
</svg>
