<svg width="266" height="266" viewBox="0 0 266 266" fill="none" xmlns="http://www.w3.org/2000/svg">
<g opacity="0.1">
<path d="M132.999 227.462C189.967 227.462 236.149 224.766 236.149 221.44C236.149 218.114 189.967 215.418 132.999 215.418C76.0312 215.418 29.8496 218.114 29.8496 221.44C29.8496 224.766 76.0312 227.462 132.999 227.462Z" fill="#F5F5F5"/>
</g>
<path d="M153.06 54.9772L153 55.5059L155.791 55.8224L155.851 55.2938L153.06 54.9772Z" fill="#3B6C65"/>
<path d="M140.956 53.6081L140.896 54.1367L149.952 55.1636L150.012 54.635L140.956 53.6081Z" fill="#3B6C65"/>
<path opacity="0.1" d="M208.032 63.0918L112.317 52.2371C110.886 52.0749 109.595 53.103 109.433 54.5336L101.161 127.477C100.998 128.907 102.027 130.198 103.457 130.361L199.173 141.215C200.603 141.378 201.895 140.349 202.057 138.919L210.329 65.9757C210.491 64.5452 209.463 63.254 208.032 63.0918Z" fill="#3B6C65"/>
<path opacity="0.7" d="M102.558 126.617L110.597 55.7068C110.625 55.4563 110.703 55.2138 110.825 54.9935C110.948 54.7731 111.113 54.5792 111.31 54.4229C111.508 54.2667 111.735 54.1511 111.978 54.0829C112.22 54.0147 112.474 53.9953 112.725 54.0256L207.261 64.7401C207.511 64.7692 207.753 64.8473 207.973 64.97C208.193 65.0927 208.387 65.2577 208.543 65.4553C208.699 65.653 208.815 65.8795 208.883 66.122C208.952 66.3644 208.972 66.618 208.942 66.8681L200.882 137.752C200.855 138.003 200.777 138.245 200.655 138.466C200.533 138.687 200.368 138.881 200.17 139.037C199.972 139.194 199.745 139.309 199.502 139.377C199.259 139.445 199.005 139.464 198.754 139.433L104.218 128.713C103.721 128.652 103.269 128.398 102.958 128.005C102.648 127.613 102.504 127.114 102.558 126.617Z" fill="#263238"/>
<path opacity="0.1" d="M193.114 82.2168L153.277 77.6992L153.055 79.6604L192.891 84.178L193.114 82.2168Z" fill="#3B6C65"/>
<path opacity="0.1" d="M199.22 86.0714L157.016 81.2852L156.793 83.2463L198.998 88.0325L199.22 86.0714Z" fill="#3B6C65"/>
<path opacity="0.1" d="M191.626 88.3796L156.658 84.4141L156.436 86.3752L191.403 90.3407L191.626 88.3796Z" fill="#3B6C65"/>
<path opacity="0.1" d="M187.625 91.0948L156.305 87.543L156.082 89.5041L187.403 93.056L187.625 91.0948Z" fill="#3B6C65"/>
<path opacity="0.1" d="M177.514 95.103L151.633 92.168L151.41 94.1291L177.291 97.0641L177.514 95.103Z" fill="#3B6C65"/>
<path opacity="0.1" d="M182.451 105.171L154.662 102.02L154.44 103.981L182.229 107.132L182.451 105.171Z" fill="#3B6C65"/>
<path opacity="0.1" d="M178.044 101.502L155.018 98.8906L154.795 100.852L177.821 103.463L178.044 101.502Z" fill="#3B6C65"/>
<path opacity="0.1" d="M180.731 98.6393L155.373 95.7637L155.151 97.7248L180.508 100.6L180.731 98.6393Z" fill="#3B6C65"/>
<path opacity="0.1" d="M174.811 118.962L148.93 116.027L148.707 117.988L174.588 120.924L174.811 118.962Z" fill="#3B6C65"/>
<path opacity="0.1" d="M179.744 129.032L151.955 125.881L151.733 127.842L179.522 130.993L179.744 129.032Z" fill="#3B6C65"/>
<path opacity="0.1" d="M175.036 124.444L152.094 121.895L151.877 123.849L174.819 126.398L175.036 124.444Z" fill="#3B6C65"/>
<path opacity="0.1" d="M178.024 122.501L152.666 119.625L152.444 121.586L177.801 124.462L178.024 122.501Z" fill="#3B6C65"/>
<path opacity="0.1" d="M136.051 60.9636L115.033 58.5801L114.811 60.5412L135.828 62.9247L136.051 60.9636Z" fill="white"/>
<path opacity="0.1" d="M139.854 70.8945L117.293 68.3359L117.071 70.2971L139.632 72.8556L139.854 70.8945Z" fill="white"/>
<path opacity="0.1" d="M136.343 67.3332L117.646 65.2129L117.424 67.174L136.121 69.2944L136.343 67.3332Z" fill="white"/>
<path opacity="0.1" d="M138.584 64.4131L117.994 62.0781L117.772 64.0393L138.361 66.3742L138.584 64.4131Z" fill="white"/>
<path opacity="0.1" d="M181.385 114.558L153.596 111.406L153.373 113.367L181.162 116.519L181.385 114.558Z" fill="#3B6C65"/>
<path opacity="0.1" d="M176.977 110.889L153.951 108.277L153.729 110.238L176.755 112.85L176.977 110.889Z" fill="#3B6C65"/>
<path opacity="0.1" d="M179.664 108.024L154.307 105.148L154.084 107.11L179.442 109.985L179.664 108.024Z" fill="#3B6C65"/>
<path d="M122.604 219.317L119.087 219.237L118.598 211.076L122.114 211.156L122.604 219.317Z" fill="#FFC3BD"/>
<path d="M118.96 218.828L122.801 218.913C122.87 218.915 122.937 218.941 122.99 218.985C123.043 219.029 123.08 219.09 123.094 219.158L123.722 222.302C123.733 222.378 123.728 222.456 123.707 222.53C123.685 222.604 123.648 222.673 123.597 222.731C123.547 222.789 123.484 222.836 123.414 222.867C123.343 222.899 123.267 222.915 123.19 222.914C121.807 222.861 119.806 222.738 118.067 222.696C116.029 222.653 115.662 223.01 113.279 222.76C111.842 222.611 111.592 221.116 112.215 221.047C115.013 220.733 115.683 220.515 118.067 219.084C118.333 218.913 118.644 218.825 118.96 218.828Z" fill="#263238"/>
<path opacity="0.2" d="M118.598 211.082L118.853 215.285L122.37 215.365L122.12 211.162L118.598 211.082Z" fill="black"/>
<path d="M117.039 103.468C115.869 105.761 114.634 107.979 113.315 110.192C111.996 112.405 110.655 114.565 109.059 116.736C108.857 117.007 108.633 117.268 108.421 117.561C108.33 117.683 108.176 117.858 108.037 118.013C107.899 118.167 107.756 118.337 107.601 118.481C107.004 119.081 106.325 119.593 105.585 120.002C104.204 120.776 102.672 121.244 101.095 121.375C99.6646 121.503 98.2235 121.433 96.8123 121.167C96.1316 121.046 95.4585 120.886 94.796 120.689C94.1234 120.496 93.4641 120.26 92.8223 119.981L93.6735 117.295C94.2055 117.353 94.8119 117.417 95.3865 117.449C95.9611 117.481 96.5569 117.481 97.1315 117.449C98.2344 117.437 99.3323 117.298 100.403 117.034C101.338 116.819 102.221 116.419 102.999 115.858C103.337 115.608 103.641 115.314 103.904 114.986C103.972 114.907 104.034 114.823 104.09 114.736C104.154 114.65 104.207 114.581 104.292 114.448L104.76 113.73C106.011 111.73 107.218 109.533 108.415 107.346L112.006 100.781L117.039 103.468Z" fill="#FFC3BD"/>
<path d="M120.194 100.017C120.726 103.209 113.433 112.832 113.433 112.832L108.086 106.401C109.605 103.79 111.35 101.318 113.3 99.0111C116.071 95.9042 119.604 96.4947 120.194 100.017Z" fill="white"/>
<path opacity="0.2" d="M118.487 102.745C116.359 103.277 112.773 105.538 111.039 109.933L113.449 112.837C113.449 112.837 117.774 107.15 119.519 103.064C119.401 102.911 119.239 102.798 119.054 102.741C118.869 102.684 118.671 102.685 118.487 102.745Z" fill="black"/>
<path d="M116.423 97.0003C116.423 97.0003 110.815 104.15 111.188 124.787L130.132 128.213C130.787 125.329 131.021 113.599 136.303 100.405C134.282 99.6231 132.211 98.9727 130.106 98.4579C127.452 97.8151 124.762 97.3284 122.051 97.0003C120.178 96.8541 118.296 96.8541 116.423 97.0003Z" fill="white"/>
<path opacity="0.2" d="M132.292 108.459C131.484 109.603 130.994 112.715 132.085 114.843C132.34 113.524 132.643 112.14 133.005 110.699L132.292 108.459Z" fill="black"/>
<path d="M122.051 97C122.051 97 119.779 101.463 122.429 103.783C127.062 103.389 130.105 98.463 130.105 98.463L122.051 97Z" fill="#263238"/>
<path d="M87.3965 115.512L87.455 118.156L89.7426 119.81L90.7747 116.182L87.3965 115.512Z" fill="#FFC3BD"/>
<path d="M94.8494 117.572L90.7743 116.184L89.7422 119.812C89.7422 119.812 92.1149 120.844 93.9982 119.461L94.8494 117.572Z" fill="#FFC3BD"/>
<path d="M130.947 89.2422C129.968 91.7426 128.606 96.3976 130.106 98.4564C130.106 98.4564 128.042 100.866 123.408 101.26C120.748 98.9405 122.052 97.0041 122.052 97.0041C125.068 96.8338 125.377 94.6792 125.244 92.5725L130.947 89.2422Z" fill="#FFC3BD"/>
<path opacity="0.2" d="M128.62 90.5996L125.242 92.568C125.282 93.0584 125.282 93.5513 125.242 94.0417C126.742 94.8131 127.966 94.0044 128.62 92.3818C128.754 91.7953 128.754 91.1861 128.62 90.5996Z" fill="black"/>
<path d="M123.466 86.3692C123.684 87.9652 128.605 85.3637 129.435 84.8158C130.265 84.2678 129.313 82.3686 127.445 80.8364C125.578 79.3043 122.961 82.6399 123.466 86.3692Z" fill="#263238"/>
<path d="M133.563 87.1037C132.058 90.3436 131.345 92.3173 128.999 93.3601C125.477 94.9561 121.971 91.8119 122.477 88.189C122.929 84.9279 125.312 80.1771 129.079 80.1239C129.91 80.1084 130.732 80.3059 131.465 80.6976C132.199 81.0894 132.82 81.6623 133.269 82.3619C133.719 83.0616 133.982 83.8646 134.033 84.6946C134.085 85.5246 133.923 86.3539 133.563 87.1037Z" fill="#FFC3BD"/>
<path d="M132.234 90.1376C130.638 90.377 131.766 84.924 132.059 83.977C132.351 83.03 134.883 82.1629 136.315 84.11C138.033 86.488 135.958 89.5843 132.234 90.1376Z" fill="#263238"/>
<path d="M131.754 79.0444C130.323 78.7571 130.733 77.2409 131.786 77.3207C130.94 76.294 125.934 75.3576 125.663 78.6773C125.391 81.997 131.844 83.8377 133.589 84.0718L136.191 84.8006C139.697 83.0504 135.808 79.8584 131.754 79.0444Z" fill="#263238"/>
<path d="M133.74 91.0252C133.082 91.6386 132.207 91.9658 131.308 91.9349C130.122 91.8817 129.893 90.7326 130.532 89.8069C131.101 88.9664 132.415 87.9822 133.463 88.4876C133.688 88.6028 133.882 88.7722 134.025 88.9807C134.169 89.1891 134.259 89.43 134.286 89.6817C134.314 89.9334 134.278 90.188 134.183 90.4225C134.087 90.657 133.935 90.8641 133.74 91.0252Z" fill="#FFC3BD"/>
<path d="M111.9 212.719L108.448 213.4L106.756 205.431L110.209 204.75L111.9 212.719Z" fill="#FFC3BD"/>
<path d="M108.23 213.029L112.002 212.285C112.07 212.272 112.142 212.282 112.203 212.315C112.265 212.348 112.314 212.401 112.342 212.466L113.624 215.397C113.652 215.468 113.664 215.544 113.66 215.62C113.656 215.696 113.636 215.771 113.601 215.838C113.565 215.906 113.516 215.965 113.456 216.012C113.396 216.059 113.326 216.092 113.252 216.11C111.884 216.354 109.905 216.642 108.198 216.998C106.197 217.392 105.538 217.434 103.213 217.897C101.792 218.174 101.117 216.833 101.686 216.573C104.272 215.45 105.41 215.36 107.453 213.46C107.666 213.246 107.935 213.097 108.23 213.029Z" fill="#263238"/>
<path opacity="0.2" d="M106.756 205.431L107.628 209.538L111.081 208.857L110.209 204.75L106.756 205.431Z" fill="black"/>
<path d="M106.931 213.863C106.708 213.966 106.456 213.988 106.218 213.927C106.138 213.899 106.067 213.851 106.011 213.787C105.955 213.724 105.917 213.648 105.899 213.565C105.881 213.519 105.876 213.468 105.886 213.419C105.895 213.37 105.918 213.325 105.952 213.288C106.25 212.964 107.59 213.23 107.739 213.262C107.756 213.265 107.772 213.274 107.784 213.286C107.796 213.298 107.805 213.314 107.809 213.331C107.811 213.347 107.809 213.364 107.803 213.379C107.796 213.394 107.785 213.407 107.771 213.416C107.509 213.596 107.227 213.746 106.931 213.863ZM106.175 213.331C106.14 213.343 106.107 213.363 106.08 213.389C106.08 213.389 106.042 213.437 106.08 213.501C106.091 213.558 106.116 213.61 106.153 213.654C106.191 213.698 106.238 213.731 106.292 213.751C106.734 213.787 107.171 213.651 107.516 213.373C107.069 213.269 106.606 213.254 106.154 213.331H106.175Z" fill="#3B6C65"/>
<path d="M107.734 213.4H107.692C107.271 213.337 106.324 212.868 106.255 212.443C106.245 212.379 106.258 212.314 106.291 212.259C106.324 212.203 106.375 212.161 106.436 212.14C106.495 212.112 106.56 212.098 106.625 212.098C106.69 212.098 106.755 212.112 106.814 212.14C107.346 212.315 107.761 213.262 107.782 213.299C107.79 213.312 107.794 213.327 107.794 213.342C107.794 213.357 107.79 213.372 107.782 213.384C107.769 213.396 107.752 213.401 107.734 213.4ZM106.548 212.267H106.511C106.415 212.32 106.42 212.374 106.425 212.395C106.463 212.629 107.101 213.033 107.543 213.172C107.399 212.9 107.085 212.368 106.761 212.257C106.691 212.236 106.616 212.24 106.548 212.267Z" fill="#3B6C65"/>
<path d="M111.187 124.785C111.187 124.785 102.776 156.801 100.345 167.51C97.823 178.655 106.319 208.772 106.319 208.772L111.932 207.665C111.932 207.665 109.575 176.958 110.378 172.085C113.597 160.286 123.641 127.041 123.641 127.041L111.187 124.785Z" fill="#3B6C65"/>
<path opacity="0.2" d="M112.251 151.323C111.902 155.782 111.973 160.263 112.464 164.708C114.868 156.34 118.209 145.115 120.614 137.098C118.188 138.146 113.15 141.471 112.251 151.323Z" fill="black"/>
<path d="M117.732 125.973C117.732 125.973 113.327 158.595 113.705 169.139C114.114 180.678 116.843 214.237 116.843 214.237L123.424 214.396C123.424 214.396 123.323 182.668 123.956 171.421C124.616 159.217 129.968 128.196 129.968 128.196L117.732 125.973Z" fill="#3B6C65"/>
<path d="M123.866 214.529L116.764 214.375L116.205 211.683L124.068 211.635L123.866 214.529Z" fill="#263238"/>
<path d="M113.038 207.591L106.069 208.963L104.941 206.452L112.666 205.074L113.038 207.591Z" fill="#263238"/>
<path d="M128.37 86.1357C128.264 86.407 128.035 86.572 127.838 86.5028C127.642 86.4336 127.604 86.157 127.711 85.8857C127.817 85.6144 128.046 85.4548 128.243 85.5239C128.44 85.5931 128.471 85.8697 128.37 86.1357Z" fill="#263238"/>
<path d="M125.312 84.9451C125.205 85.2111 124.977 85.376 124.78 85.3068C124.583 85.2377 124.546 84.961 124.652 84.695C124.758 84.429 124.987 84.2588 125.184 84.3279C125.381 84.3971 125.418 84.6738 125.312 84.9451Z" fill="#263238"/>
<path d="M126.025 85.375C125.379 86.076 124.64 86.6846 123.828 87.1838C123.962 87.3877 124.138 87.5603 124.345 87.6898C124.551 87.8193 124.783 87.9025 125.025 87.9339L126.025 85.375Z" fill="#ED847E"/>
<path d="M124.978 89.2441C124.966 89.2405 124.956 89.2345 124.947 89.2266C124.938 89.2186 124.93 89.2088 124.925 89.1978C124.921 89.1869 124.918 89.175 124.918 89.163C124.918 89.1509 124.921 89.1391 124.925 89.1281C124.93 89.1171 124.938 89.1073 124.946 89.0993C124.955 89.0913 124.966 89.0853 124.978 89.0817C124.989 89.0781 125.001 89.077 125.013 89.0784C125.025 89.0798 125.036 89.0837 125.047 89.0898C125.375 89.2415 125.734 89.3143 126.095 89.3023C126.456 89.2903 126.81 89.1938 127.127 89.0207C127.136 89.0137 127.147 89.0087 127.158 89.0061C127.17 89.0034 127.182 89.0032 127.193 89.0054C127.205 89.0075 127.216 89.012 127.225 89.0186C127.235 89.0252 127.243 89.0338 127.25 89.0437C127.256 89.0536 127.26 89.0647 127.262 89.0763C127.264 89.0879 127.263 89.0997 127.26 89.1111C127.257 89.1224 127.251 89.133 127.244 89.1421C127.237 89.1513 127.228 89.1589 127.217 89.1643C126.878 89.3572 126.497 89.4651 126.107 89.479C125.717 89.4929 125.33 89.4123 124.978 89.2441Z" fill="#263238"/>
<path d="M130.063 85.5232C130.041 85.5097 130.022 85.4919 130.007 85.4709C129.993 85.4498 129.983 85.426 129.978 85.4008C129.95 85.1863 129.872 84.9814 129.75 84.803C129.628 84.6245 129.465 84.4775 129.275 84.3741C129.235 84.3555 129.203 84.3216 129.187 84.2798C129.171 84.238 129.172 84.1916 129.19 84.1506C129.21 84.1095 129.245 84.0777 129.287 84.0618C129.33 84.0459 129.377 84.0472 129.419 84.0655C129.657 84.1935 129.861 84.3768 130.014 84.5998C130.166 84.8229 130.264 85.0793 130.297 85.3476C130.301 85.37 130.3 85.3929 130.295 85.415C130.289 85.4371 130.28 85.458 130.266 85.4763C130.253 85.4946 130.236 85.5101 130.217 85.5218C130.197 85.5335 130.176 85.5412 130.153 85.5445C130.122 85.5454 130.09 85.538 130.063 85.5232Z" fill="#263238"/>
<path d="M124.54 83.1186C124.518 83.1066 124.499 83.0881 124.487 83.0654C124.474 83.0467 124.466 83.0257 124.462 83.0036C124.458 82.9815 124.458 82.9588 124.463 82.9369C124.468 82.915 124.477 82.8943 124.491 82.8761C124.504 82.858 124.521 82.8427 124.54 82.8313C124.767 82.6844 125.026 82.5938 125.296 82.567C125.565 82.5402 125.837 82.5779 126.088 82.677C126.129 82.6967 126.161 82.7315 126.177 82.7742C126.193 82.8169 126.192 82.8641 126.173 82.9058C126.164 82.9262 126.15 82.9444 126.133 82.9594C126.117 82.9745 126.097 82.9861 126.076 82.9935C126.054 83.0009 126.032 83.004 126.009 83.0027C125.987 83.0013 125.965 82.9955 125.945 82.9856C125.745 82.9093 125.53 82.8816 125.317 82.9047C125.104 82.9278 124.9 83.0011 124.721 83.1186C124.694 83.1356 124.663 83.1446 124.631 83.1446C124.599 83.1446 124.567 83.1356 124.54 83.1186Z" fill="#263238"/>
<path d="M133.611 99.2561L132.728 99.0166C132.686 99.0044 132.64 99.0086 132.601 99.0283C132.562 99.048 132.531 99.0818 132.515 99.1231C127.61 112.04 126.445 126.484 126.445 126.484L127.43 126.659C128.545 117.401 130.657 108.29 133.728 99.4848C133.737 99.4622 133.742 99.4379 133.741 99.4136C133.739 99.3893 133.733 99.3654 133.722 99.3438C133.711 99.3221 133.695 99.303 133.676 99.2879C133.657 99.2728 133.635 99.2619 133.611 99.2561Z" fill="#3B6C65"/>
<g opacity="0.99">
<path d="M127.573 126.685C127.581 126.644 127.58 126.601 127.571 126.56C127.562 126.518 127.545 126.479 127.521 126.444C127.497 126.41 127.466 126.38 127.43 126.358C127.394 126.335 127.354 126.32 127.313 126.313L126.632 126.185C126.555 126.174 126.477 126.19 126.412 126.231C126.346 126.272 126.298 126.335 126.275 126.409C126.251 126.483 126.255 126.563 126.286 126.634C126.316 126.705 126.371 126.763 126.44 126.797L126.291 127.643C126.281 127.697 126.282 127.753 126.294 127.807C126.306 127.861 126.328 127.913 126.36 127.958C126.392 128.003 126.432 128.042 126.479 128.072C126.525 128.102 126.577 128.122 126.632 128.132C126.686 128.142 126.742 128.141 126.796 128.129C126.85 128.117 126.901 128.095 126.947 128.063C126.992 128.032 127.031 127.991 127.061 127.945C127.091 127.898 127.111 127.846 127.121 127.792L127.275 126.946C127.347 126.941 127.415 126.913 127.469 126.866C127.523 126.819 127.559 126.755 127.573 126.685Z" fill="#263238"/>
</g>
<path d="M118.578 96.7227H117.663C117.626 96.7232 117.59 96.7353 117.56 96.7572C117.531 96.7792 117.509 96.8099 117.498 96.845C113.199 109.879 112.773 123.977 112.773 123.977L113.758 124.158C114.917 109.336 118.205 98.6219 118.748 96.9195C118.751 96.8952 118.749 96.8705 118.741 96.847C118.734 96.8236 118.722 96.8019 118.706 96.7833C118.69 96.7648 118.671 96.7498 118.648 96.7394C118.626 96.7289 118.602 96.7232 118.578 96.7227Z" fill="#3B6C65"/>
<path opacity="0.99" d="M113.901 124.217C113.912 124.131 113.89 124.044 113.838 123.974C113.787 123.903 113.71 123.855 113.625 123.84L112.944 123.712C112.902 123.704 112.86 123.705 112.819 123.715C112.778 123.724 112.739 123.742 112.705 123.767C112.672 123.792 112.643 123.823 112.622 123.86C112.601 123.896 112.587 123.936 112.582 123.978C112.574 124.05 112.59 124.123 112.626 124.186C112.662 124.249 112.718 124.299 112.784 124.329L112.672 125.18C112.658 125.293 112.688 125.408 112.755 125.5C112.822 125.592 112.922 125.654 113.034 125.675C113.088 125.686 113.144 125.685 113.198 125.673C113.251 125.661 113.302 125.638 113.347 125.606C113.391 125.573 113.428 125.532 113.456 125.484C113.484 125.437 113.501 125.384 113.508 125.329L113.619 124.478C113.69 124.475 113.756 124.447 113.808 124.399C113.86 124.352 113.893 124.287 113.901 124.217Z" fill="#263238"/>
<path d="M117.496 219.333C117.258 219.387 117.008 219.357 116.789 219.248C116.718 219.202 116.659 219.139 116.617 219.065C116.576 218.991 116.552 218.908 116.549 218.823C116.543 218.774 116.549 218.724 116.569 218.679C116.589 218.634 116.621 218.595 116.661 218.567C117.028 218.312 118.257 218.86 118.417 218.924C118.432 218.931 118.445 218.943 118.454 218.957C118.463 218.971 118.469 218.987 118.47 219.004C118.468 219.02 118.461 219.036 118.451 219.049C118.44 219.062 118.427 219.072 118.411 219.078C118.118 219.199 117.811 219.285 117.496 219.333ZM116.869 218.653C116.83 218.655 116.794 218.668 116.762 218.69C116.745 218.701 116.732 218.717 116.724 218.736C116.717 218.755 116.715 218.776 116.72 218.796C116.721 218.854 116.736 218.911 116.764 218.962C116.792 219.013 116.831 219.056 116.879 219.089C117.302 219.217 117.757 219.177 118.151 218.977C117.748 218.788 117.313 218.678 116.869 218.653Z" fill="#3B6C65"/>
<path d="M118.396 219.082H118.354C117.955 218.928 117.135 218.247 117.157 217.837C117.162 217.773 117.188 217.713 117.231 217.666C117.275 217.619 117.333 217.587 117.396 217.577C117.46 217.561 117.527 217.558 117.592 217.569C117.657 217.58 117.719 217.604 117.774 217.641C118.231 217.922 118.46 218.939 118.465 218.981C118.469 218.996 118.469 219.012 118.464 219.027C118.459 219.043 118.451 219.056 118.439 219.066C118.433 219.072 118.426 219.076 118.419 219.079C118.412 219.081 118.404 219.083 118.396 219.082ZM117.481 217.736H117.439C117.332 217.768 117.332 217.821 117.327 217.843C117.327 218.082 117.859 218.609 118.258 218.838C118.175 218.434 117.975 218.064 117.683 217.774C117.623 217.737 117.551 217.723 117.481 217.736Z" fill="#3B6C65"/>
<path d="M119.943 137.149L122.917 139.251L125.146 137.607L122.295 134.133L119.943 137.149Z" fill="#FFC3BD"/>
<path d="M126.503 133.5L122.295 134.133L125.146 137.607C125.146 137.607 128.067 136.894 127.908 134.553L126.503 133.5Z" fill="#FFC3BD"/>
<path d="M138.9 105.91C139.06 108.687 139.145 111.454 139.161 114.241C139.161 115.63 139.161 117.024 139.161 118.428C139.161 119.125 139.134 119.827 139.097 120.556L139.044 121.62L139.017 122.152C139.017 122.402 138.964 122.684 138.927 122.95C138.767 123.879 138.462 124.776 138.023 125.61C137.641 126.331 137.207 127.022 136.724 127.68C135.825 128.882 134.827 130.006 133.74 131.042C131.659 133.029 129.383 134.803 126.946 136.335L125.223 134.101C126.148 133.165 127.117 132.191 128.01 131.191C128.904 130.191 129.793 129.196 130.606 128.174C131.404 127.191 132.131 126.153 132.782 125.067C133.069 124.577 133.319 124.067 133.532 123.541C133.705 123.13 133.818 122.696 133.868 122.253C133.862 122.173 133.862 122.094 133.868 122.014V121.524L133.841 120.524L133.756 118.497L133.532 114.38C133.394 111.645 133.282 108.889 133.208 106.15L138.9 105.91Z" fill="#FFC3BD"/>
<path d="M136.304 100.406C140.852 102.097 140.815 114.264 140.815 114.264L133.117 115.679C133.117 115.679 131.255 110.152 132.175 105.8C133.053 101.645 132.846 99.1128 136.304 100.406Z" fill="white"/>
<path d="M77.587 116.057L56.9667 108.332L53.3438 86.6161L70.3678 72.6191L90.9721 80.3331L94.595 102.055L77.587 116.057ZM57.8338 107.619L77.4008 114.945L93.5257 101.645L90.089 81.0407L70.522 73.7151L54.3971 87.0151L57.8338 107.619Z" fill="#3B6C65"/>
<path d="M73.1233 75.0984C74.1836 73.6136 73.8394 71.5503 72.3546 70.4899C70.8697 69.4296 68.8064 69.7738 67.7461 71.2587C66.6857 72.7435 67.0299 74.8068 68.5148 75.8672C69.9997 76.9275 72.0629 76.5833 73.1233 75.0984Z" fill="#3B6C65"/>
<path d="M80.178 117.419C81.2383 115.934 80.8941 113.871 79.4092 112.81C77.9244 111.75 75.8611 112.094 74.8007 113.579C73.7404 115.064 74.0846 117.127 75.5695 118.187C77.0543 119.248 79.1176 118.904 80.178 117.419Z" fill="#3B6C65"/>
<path d="M88.6042 83.3866C88.0724 83.0068 87.6652 82.4777 87.4341 81.8664C87.203 81.2551 87.1585 80.589 87.306 79.9524C87.4536 79.3157 87.7866 78.7371 88.263 78.2898C88.7395 77.8425 89.3378 77.5465 89.9825 77.4393C90.6272 77.3321 91.2892 77.4185 91.8847 77.6876C92.4803 77.9567 92.9826 78.3963 93.3283 78.951C93.6739 79.5056 93.8473 80.1503 93.8265 80.8035C93.8057 81.4567 93.5916 82.089 93.2113 82.6205C92.7018 83.3328 91.9302 83.8136 91.0663 83.9572C90.2024 84.1009 89.3168 83.8956 88.6042 83.3866Z" fill="#3B6C65"/>
<path d="M51.9446 89.4665C51.4125 89.0872 51.0048 88.5586 50.7732 87.9476C50.5415 87.3366 50.4963 86.6706 50.6431 86.0338C50.79 85.3971 51.1224 84.8182 51.5983 84.3704C52.0742 83.9226 52.6722 83.6259 53.3167 83.518C53.9612 83.4101 54.6233 83.4957 55.2191 83.7641C55.8149 84.0325 56.3178 84.4715 56.664 85.0257C57.0103 85.5799 57.1845 86.2243 57.1645 86.8775C57.1445 87.5306 56.9313 88.1632 56.5517 88.6951C56.0421 89.4071 55.271 89.888 54.4075 90.0326C53.544 90.1772 52.6584 89.9736 51.9446 89.4665Z" fill="#3B6C65"/>
<path d="M92.1364 104.587C91.605 104.207 91.1982 103.678 90.9673 103.067C90.7364 102.456 90.6917 101.791 90.839 101.154C90.9863 100.518 91.3189 99.9397 91.7948 99.4924C92.2707 99.045 92.8685 98.7487 93.5127 98.641C94.1569 98.5332 94.8186 98.6189 95.4141 98.887C96.0097 99.1552 96.5124 99.5939 96.8587 100.148C97.205 100.701 97.3794 101.345 97.3599 101.998C97.3403 102.651 97.1277 103.284 96.7488 103.816C96.4969 104.17 96.1776 104.47 95.8094 104.7C95.4411 104.931 95.031 105.086 94.6026 105.158C94.1742 105.23 93.7358 105.216 93.3126 105.118C92.8895 105.02 92.4898 104.84 92.1364 104.587Z" fill="#3B6C65"/>
<path d="M55.4831 110.656C54.9513 110.276 54.5441 109.747 54.313 109.136C54.082 108.525 54.0374 107.859 54.1849 107.222C54.3325 106.585 54.6655 106.007 55.1419 105.559C55.6184 105.112 56.2168 104.816 56.8614 104.709C57.5061 104.602 58.1681 104.688 58.7636 104.957C59.3592 105.226 59.8616 105.666 60.2072 106.221C60.5528 106.775 60.7262 107.42 60.7054 108.073C60.6846 108.726 60.4705 109.359 60.0902 109.89C59.8384 110.243 59.5193 110.543 59.1513 110.773C58.7833 111.003 58.3736 111.158 57.9456 111.229C57.5176 111.3 57.0798 111.286 56.6573 111.188C56.2347 111.09 55.8357 110.909 55.4831 110.656Z" fill="#3B6C65"/>
<path d="M66.9997 88.8454L71.1653 88.1484L72.3835 95.4528C72.6251 96.6266 72.6844 97.8307 72.5591 99.0225C72.3942 99.9159 71.9354 100.729 71.2557 101.331C70.4104 102.082 69.3562 102.557 68.2339 102.693C67.1655 102.933 66.0572 102.933 64.9887 102.693C64.2036 102.464 63.5063 102.002 62.9884 101.369C62.4198 100.635 62.0251 99.7819 61.834 98.8736L65.7123 97.6659C65.7751 98.1145 65.9023 98.5517 66.09 98.964C66.2281 99.2246 66.4412 99.4377 66.7018 99.5758C66.9251 99.6709 67.1726 99.6933 67.4093 99.6396C67.6134 99.6198 67.8082 99.545 67.9731 99.4233C68.138 99.3015 68.2667 99.1372 68.3457 98.948C68.5137 98.362 68.5266 97.7424 68.3829 97.1499L66.9997 88.8454Z" fill="#263238"/>
<path d="M74.7092 96.793L78.6247 95.8886C78.7541 96.4074 79.0184 96.8827 79.3908 97.2664C79.6535 97.5061 79.9697 97.6795 80.3131 97.772C80.6564 97.8646 81.0169 97.8736 81.3645 97.7984C81.8615 97.7502 82.3234 97.5211 82.6626 97.1547C82.7934 97.0133 82.8906 96.8442 82.9468 96.6599C83.003 96.4757 83.0168 96.2811 82.9871 96.0907C82.9533 95.9108 82.8806 95.7404 82.774 95.5915C82.6674 95.4426 82.5295 95.3188 82.37 95.2289C81.6551 94.9287 80.884 94.7854 80.109 94.8086C78.2186 94.7022 76.8283 94.3741 75.9381 93.8244C75.5099 93.5689 75.1443 93.2208 74.8681 92.8057C74.592 92.3905 74.4122 91.9188 74.3421 91.4251C74.2304 90.7265 74.3266 90.0105 74.6187 89.3662C74.955 88.6406 75.4994 88.0314 76.1828 87.616C77.1654 87.0524 78.2506 86.6907 79.3748 86.552C81.095 86.2647 82.4587 86.3658 83.4659 86.8552C84.0003 87.1367 84.4673 87.5307 84.8347 88.0101C85.2021 88.4896 85.4611 89.043 85.5939 89.6322L81.7156 90.5154C81.6621 90.267 81.5581 90.0322 81.4101 89.8256C81.2621 89.6191 81.0733 89.4451 80.8554 89.3144C80.6375 89.1837 80.395 89.0992 80.1431 89.066C79.8912 89.0329 79.6351 89.0517 79.3908 89.1215C78.9893 89.1532 78.6121 89.3267 78.3268 89.611C78.2269 89.7181 78.1528 89.8466 78.1104 89.9868C78.068 90.127 78.0583 90.2751 78.0821 90.4196C78.1043 90.5326 78.1518 90.639 78.2208 90.7312C78.2899 90.8233 78.3789 90.8986 78.4811 90.9516C78.9494 91.1445 79.454 91.2334 79.96 91.2123C81.3433 91.2292 82.7199 91.4078 84.0617 91.7443C84.8155 91.954 85.4955 92.3705 86.0248 92.9466C86.4843 93.4891 86.7845 94.1484 86.892 94.8512C87.0378 95.6978 86.9267 96.5687 86.5728 97.3516C86.2113 98.173 85.6106 98.8664 84.8491 99.3412C83.8884 99.9226 82.818 100.299 81.705 100.448C79.4174 100.831 77.7611 100.654 76.7361 99.9158C75.7064 99.153 74.9867 98.0441 74.7092 96.793Z" fill="#263238"/>
</svg>
