<svg width="266" height="266" viewBox="0 0 266 266" fill="none" xmlns="http://www.w3.org/2000/svg">
<g opacity="0.1">
<path d="M132.999 227.462C189.967 227.462 236.149 224.766 236.149 221.44C236.149 218.114 189.967 215.418 132.999 215.418C76.0312 215.418 29.8496 218.114 29.8496 221.44C29.8496 224.766 76.0312 227.462 132.999 227.462Z" fill="#F5F5F5"/>
</g>
<path d="M174.293 62.9718V220.694C174.294 220.999 174.233 221.302 174.116 221.584C173.999 221.867 173.826 222.123 173.609 222.338C173.391 222.552 173.133 222.722 172.85 222.836C172.566 222.95 172.263 223.007 171.957 223.003H98.5413C98.2696 223.007 97.9998 222.957 97.7477 222.855C97.4955 222.754 97.2662 222.603 97.073 222.412C96.8729 222.212 96.7148 221.974 96.6079 221.711C96.501 221.449 96.4475 221.168 96.4506 220.885V62.7749C96.4319 62.2819 96.6096 61.8016 96.9447 61.4395C97.2799 61.0774 97.7451 60.8631 98.2381 60.8438H119.087C119.378 60.8493 119.661 60.9413 119.9 61.108C120.139 61.2747 120.322 61.5087 120.428 61.7801L121.295 63.9081C121.401 64.1789 121.585 64.4121 121.823 64.5779C122.062 64.7437 122.345 64.8346 122.636 64.8391H148.172C148.461 64.8373 148.743 64.7493 148.982 64.5863C149.221 64.4233 149.405 64.1927 149.512 63.924L150.379 61.796C150.484 61.5236 150.667 61.2886 150.906 61.1209C151.145 60.9531 151.428 60.8604 151.72 60.8544H172.266C172.811 60.8803 173.325 61.1144 173.702 61.5085C174.079 61.9025 174.291 62.4263 174.293 62.9718Z" fill="#616161" fill-opacity="0.05"/>
<path opacity="0.6" d="M106.139 67.2031H107.225V65.7561H106.139V67.2031Z" fill="white"/>
<path opacity="0.6" d="M104.366 67.2031H105.451V65.2773H104.366V67.2031Z" fill="white"/>
<path opacity="0.6" d="M102.606 67.2031H103.691V64.7932H102.606V67.2031Z" fill="white"/>
<path opacity="0.6" d="M100.835 67.2031H101.92V64.309H100.835V67.2031Z" fill="white"/>
<path opacity="0.6" d="M164.355 65.2285H163.711V66.6756H164.355V65.2285Z" fill="white"/>
<path opacity="0.6" d="M164.803 67.2031H169.926V64.7027H164.803V67.2031Z" fill="white"/>
<g opacity="0.2">
<path d="M131.478 64.8405L109.059 148.769L108.809 149.716L108.405 151.232L108.149 152.174L96.4453 196V142.959L118.369 60.8398H119.082C119.373 60.8447 119.656 60.9364 119.895 61.1032C120.134 61.27 120.318 61.5044 120.423 61.7762L121.29 63.9042C121.395 64.1754 121.579 64.409 121.818 64.5749C122.056 64.7408 122.34 64.8315 122.63 64.8352L131.478 64.8405Z" fill="white"/>
<path d="M174.294 107.703V160.744L160.323 213.092L159.983 214.364L157.674 223.003H143.518L145.821 214.369L146.194 212.986L148.04 206.049L148.412 204.66L149.157 201.888L149.524 200.5L150.263 197.728L150.63 196.34L162.281 152.705V152.7L162.819 150.689V150.683L174.294 107.703Z" fill="white"/>
<path d="M139.149 64.8396L116.885 148.247L116.746 148.747L115.528 153.317L115.395 153.817L97.0835 222.413C96.8834 222.212 96.7253 221.974 96.6184 221.712C96.5115 221.45 96.458 221.169 96.4611 220.886V212.799L112.214 153.795L112.347 153.295L113.565 148.725L113.698 148.225L135.967 64.8184L139.149 64.8396Z" fill="white"/>
</g>
<path opacity="0.23" d="M174.293 71.1289H96.4609V216.019H174.293V71.1289Z" fill="white"/>
<path opacity="0.1" d="M159.317 134.799C160.036 134.799 160.726 134.513 161.235 134.004C161.744 133.495 162.03 132.805 162.03 132.085V89.286C162.029 88.5673 161.742 87.8786 161.233 87.3709C160.725 86.8632 160.035 86.5781 159.317 86.5781C158.598 86.5781 157.909 86.8632 157.4 87.3709C156.891 87.8786 156.605 88.5673 156.604 89.286V132.085C156.604 132.805 156.889 133.495 157.398 134.004C157.907 134.513 158.597 134.799 159.317 134.799Z" fill="#3B6C65"/>
<path opacity="0.3" d="M159.317 133.735C158.88 133.735 158.46 133.561 158.151 133.251C157.842 132.942 157.668 132.523 157.668 132.085V89.2859C157.668 88.8485 157.842 88.429 158.151 88.1198C158.46 87.8105 158.88 87.6367 159.317 87.6367C159.755 87.6367 160.174 87.8105 160.483 88.1198C160.793 88.429 160.966 88.8485 160.966 89.2859V132.085C160.966 132.523 160.793 132.942 160.483 133.251C160.174 133.561 159.755 133.735 159.317 133.735Z" fill="black"/>
<path d="M163.204 94.1409C163.552 91.9976 162.096 89.9782 159.953 89.6303C157.81 89.2824 155.79 90.7378 155.442 92.881C155.095 95.0243 156.55 97.0437 158.693 97.3916C160.836 97.7395 162.856 96.2841 163.204 94.1409Z" fill="#3B6C65"/>
<path opacity="0.1" d="M143.358 134.799C143.714 134.799 144.067 134.728 144.396 134.592C144.725 134.456 145.024 134.256 145.276 134.004C145.528 133.752 145.728 133.453 145.864 133.124C146.001 132.795 146.071 132.442 146.071 132.085V89.286C146.07 88.5673 145.783 87.8786 145.274 87.3709C144.766 86.8632 144.076 86.5781 143.358 86.5781C142.639 86.5781 141.95 86.8632 141.441 87.3709C140.932 87.8786 140.646 88.5673 140.645 89.286V132.085C140.645 132.805 140.93 133.495 141.439 134.004C141.948 134.513 142.638 134.799 143.358 134.799Z" fill="#3B6C65"/>
<path opacity="0.3" d="M143.356 133.735C142.919 133.735 142.499 133.561 142.19 133.251C141.881 132.942 141.707 132.523 141.707 132.085V89.2859C141.707 88.8485 141.881 88.429 142.19 88.1198C142.499 87.8105 142.919 87.6367 143.356 87.6367C143.794 87.6367 144.213 87.8105 144.522 88.1198C144.832 88.429 145.005 88.8485 145.005 89.2859V132.085C145.005 132.523 144.832 132.942 144.522 133.251C144.213 133.561 143.794 133.735 143.356 133.735Z" fill="black"/>
<path d="M147.243 126.059C147.591 123.916 146.135 121.896 143.992 121.548C141.849 121.2 139.829 122.656 139.481 124.799C139.134 126.942 140.589 128.962 142.732 129.31C144.875 129.658 146.895 128.202 147.243 126.059Z" fill="#3B6C65"/>
<path opacity="0.1" d="M127.397 134.799C128.116 134.799 128.806 134.513 129.315 134.004C129.824 133.495 130.11 132.805 130.11 132.085V89.286C130.109 88.5673 129.822 87.8786 129.313 87.3709C128.805 86.8632 128.115 86.5781 127.397 86.5781C126.678 86.5781 125.989 86.8632 125.48 87.3709C124.971 87.8786 124.685 88.5673 124.684 89.286V132.085C124.684 132.805 124.969 133.495 125.478 134.004C125.987 134.513 126.677 134.799 127.397 134.799Z" fill="#3B6C65"/>
<path opacity="0.3" d="M127.397 133.735C126.96 133.735 126.54 133.561 126.231 133.251C125.922 132.942 125.748 132.523 125.748 132.085V89.2859C125.748 88.8485 125.922 88.429 126.231 88.1198C126.54 87.8105 126.96 87.6367 127.397 87.6367C127.835 87.6367 128.254 87.8105 128.563 88.1198C128.873 88.429 129.046 88.8485 129.046 89.2859V132.085C129.046 132.523 128.873 132.942 128.563 133.251C128.254 133.561 127.835 133.735 127.397 133.735Z" fill="black"/>
<path d="M131.284 104.78C131.632 102.636 130.176 100.617 128.033 100.269C125.89 99.921 123.87 101.376 123.523 103.52C123.175 105.663 124.63 107.682 126.773 108.03C128.917 108.378 130.936 106.923 131.284 104.78Z" fill="#3B6C65"/>
<path opacity="0.1" d="M111.438 134.799C112.157 134.799 112.848 134.513 113.356 134.004C113.865 133.495 114.151 132.805 114.151 132.085V89.286C114.15 88.5673 113.863 87.8786 113.354 87.3709C112.846 86.8632 112.156 86.5781 111.438 86.5781C110.719 86.5781 110.03 86.8632 109.521 87.3709C109.012 87.8786 108.726 88.5673 108.725 89.286V132.085C108.725 132.805 109.01 133.495 109.519 134.004C110.028 134.513 110.718 134.799 111.438 134.799Z" fill="#3B6C65"/>
<path opacity="0.3" d="M111.436 133.735C110.999 133.735 110.579 133.561 110.27 133.251C109.961 132.942 109.787 132.523 109.787 132.085V89.2859C109.787 88.8485 109.961 88.429 110.27 88.1198C110.579 87.8105 110.999 87.6367 111.436 87.6367C111.874 87.6367 112.293 87.8105 112.602 88.1198C112.912 88.429 113.086 88.8485 113.086 89.2859V132.085C113.086 132.523 112.912 132.942 112.602 133.251C112.293 133.561 111.874 133.735 111.436 133.735Z" fill="black"/>
<path d="M115.321 120.739C115.669 118.595 114.213 116.576 112.07 116.228C109.927 115.88 107.908 117.335 107.56 119.479C107.212 121.622 108.667 123.641 110.81 123.989C112.954 124.337 114.973 122.882 115.321 120.739Z" fill="#3B6C65"/>
<path opacity="0.6" d="M163.204 94.1409C163.552 91.9976 162.096 89.9782 159.953 89.6303C157.81 89.2824 155.79 90.7378 155.442 92.881C155.095 95.0243 156.55 97.0437 158.693 97.3916C160.836 97.7395 162.856 96.2841 163.204 94.1409Z" fill="white"/>
<path opacity="0.6" d="M159.317 96.3717C158.75 96.3717 158.195 96.2035 157.724 95.8884C157.252 95.5733 156.885 95.1255 156.667 94.6015C156.45 94.0776 156.394 93.501 156.504 92.9448C156.615 92.3885 156.888 91.8776 157.289 91.4766C157.69 91.0756 158.201 90.8025 158.757 90.6918C159.314 90.5812 159.89 90.638 160.414 90.855C160.938 91.072 161.386 91.4396 161.701 91.9111C162.016 92.3827 162.184 92.9371 162.184 93.5042C162.183 94.2643 161.88 94.9928 161.343 95.5303C160.805 96.0677 160.077 96.3703 159.317 96.3717Z" fill="white"/>
<path opacity="0.6" d="M147.243 126.059C147.591 123.916 146.135 121.896 143.992 121.548C141.849 121.2 139.829 122.656 139.481 124.799C139.134 126.942 140.589 128.962 142.732 129.31C144.875 129.658 146.895 128.202 147.243 126.059Z" fill="white"/>
<path opacity="0.6" d="M143.358 128.294C142.791 128.294 142.236 128.125 141.765 127.81C141.293 127.495 140.926 127.047 140.709 126.523C140.491 125.999 140.435 125.423 140.545 124.867C140.656 124.31 140.929 123.799 141.33 123.398C141.731 122.997 142.242 122.724 142.798 122.614C143.355 122.503 143.931 122.56 144.455 122.777C144.979 122.994 145.427 123.361 145.742 123.833C146.057 124.305 146.225 124.859 146.225 125.426C146.224 126.186 145.921 126.915 145.384 127.452C144.846 127.99 144.118 128.292 143.358 128.294Z" fill="white"/>
<path opacity="0.6" d="M131.284 104.78C131.632 102.636 130.176 100.617 128.033 100.269C125.89 99.921 123.87 101.376 123.523 103.52C123.175 105.663 124.63 107.682 126.773 108.03C128.917 108.378 130.936 106.923 131.284 104.78Z" fill="white"/>
<path opacity="0.6" d="M127.397 107.012C126.83 107.012 126.275 106.844 125.804 106.529C125.332 106.214 124.965 105.766 124.748 105.242C124.531 104.718 124.474 104.142 124.584 103.585C124.695 103.029 124.968 102.518 125.369 102.117C125.77 101.716 126.281 101.443 126.837 101.332C127.394 101.222 127.97 101.279 128.494 101.496C129.018 101.713 129.466 102.08 129.781 102.552C130.096 103.023 130.264 103.578 130.264 104.145C130.263 104.905 129.96 105.633 129.423 106.171C128.885 106.708 128.157 107.011 127.397 107.012Z" fill="white"/>
<path opacity="0.6" d="M115.321 120.739C115.669 118.595 114.213 116.576 112.07 116.228C109.927 115.88 107.908 117.335 107.56 119.479C107.212 121.622 108.667 123.641 110.81 123.989C112.954 124.337 114.973 122.882 115.321 120.739Z" fill="white"/>
<path opacity="0.6" d="M111.438 122.973C110.871 122.973 110.316 122.805 109.845 122.49C109.373 122.175 109.006 121.727 108.789 121.203C108.572 120.679 108.515 120.103 108.625 119.546C108.736 118.99 109.009 118.479 109.41 118.078C109.811 117.677 110.322 117.404 110.878 117.293C111.435 117.183 112.011 117.24 112.535 117.457C113.059 117.674 113.507 118.041 113.822 118.513C114.137 118.984 114.305 119.539 114.305 120.106C114.304 120.866 114.001 121.594 113.464 122.132C112.926 122.669 112.198 122.972 111.438 122.973Z" fill="white"/>
<path opacity="0.3" d="M169.069 144.471H101.686C100.878 144.471 100.223 145.126 100.223 145.934V208.869C100.223 209.677 100.878 210.332 101.686 210.332H169.069C169.877 210.332 170.532 209.677 170.532 208.869V145.934C170.532 145.126 169.877 144.471 169.069 144.471Z" fill="#868686"/>
<path opacity="0.4" d="M103 173.763V178.199L105.288 178.412C105.589 179.873 106.167 181.264 106.99 182.509L105.522 184.27L108.66 187.403L110.432 185.935C111.678 186.757 113.067 187.337 114.528 187.642L114.747 189.925H119.183L119.396 187.642C120.858 187.338 122.248 186.758 123.493 185.935L125.264 187.403L128.403 184.27L126.935 182.493C127.759 181.248 128.339 179.858 128.642 178.396L130.925 178.183V173.747L128.642 173.528C128.337 172.067 127.757 170.678 126.935 169.432L128.403 167.66L125.264 164.522L123.493 165.99C122.246 165.17 120.856 164.593 119.396 164.288L119.183 162H114.747L114.528 164.288C113.069 164.594 111.679 165.171 110.432 165.99L108.66 164.522L105.522 167.66L106.99 169.432C106.169 170.678 105.591 172.068 105.288 173.528L103 173.763ZM116.965 169.975C118.153 169.975 119.314 170.327 120.302 170.987C121.29 171.647 122.059 172.585 122.514 173.682C122.969 174.78 123.088 175.988 122.856 177.153C122.624 178.318 122.052 179.388 121.212 180.228C120.372 181.068 119.302 181.64 118.137 181.872C116.972 182.104 115.764 181.985 114.666 181.53C113.569 181.075 112.631 180.306 111.971 179.318C111.311 178.33 110.959 177.169 110.959 175.981C110.959 174.388 111.592 172.86 112.718 171.734C113.844 170.607 115.372 169.975 116.965 169.975Z" fill="white"/>
<path opacity="0.6" d="M121.237 174.831L118.109 171.703L113.837 172.852L112.688 177.124L115.816 180.252L120.093 179.109L121.237 174.831Z" fill="white"/>
<path opacity="0.2" d="M148 150.863V154.587L149.921 154.768C150.179 155.995 150.664 157.162 151.352 158.21L150.117 159.694L152.777 162.354L154.262 161.12C155.31 161.808 156.477 162.293 157.704 162.551L157.885 164.472H161.609L161.789 162.551C163.016 162.294 164.184 161.809 165.231 161.12L166.721 162.354L169.354 159.694L168.12 158.21C168.808 157.162 169.293 155.995 169.551 154.768L171.472 154.587V150.863L169.551 150.682C169.294 149.456 168.809 148.288 168.12 147.24L169.354 145.751L166.721 143.117L165.231 144.352C164.186 143.659 163.018 143.173 161.789 142.921L161.609 141H157.885L157.704 142.921C156.476 143.174 155.307 143.66 154.262 144.352L152.777 143.117L150.117 145.751L151.352 147.24C150.663 148.288 150.178 149.456 149.921 150.682L148 150.863ZM159.731 147.671C160.729 147.671 161.706 147.968 162.536 148.523C163.366 149.077 164.014 149.866 164.395 150.789C164.777 151.712 164.877 152.727 164.682 153.707C164.487 154.686 164.005 155.586 163.299 156.292C162.592 156.998 161.692 157.478 160.712 157.672C159.733 157.866 158.717 157.766 157.795 157.383C156.872 157 156.084 156.352 155.53 155.521C154.976 154.69 154.681 153.713 154.682 152.715C154.684 152.052 154.817 151.396 155.072 150.784C155.328 150.172 155.702 149.617 156.172 149.149C156.642 148.682 157.2 148.312 157.813 148.06C158.427 147.808 159.084 147.68 159.747 147.682L159.731 147.671Z" fill="white"/>
<path opacity="0.4" d="M162.869 154.54V150.912L159.73 149.098L156.586 150.912V154.54L159.73 156.354L162.869 154.54Z" fill="white"/>
<path d="M106.15 145.87L68.8353 104.321C69.5327 102.806 69.8 101.129 69.6078 99.473C69.4157 97.8168 68.7715 96.2453 67.7459 94.9308C66.7203 93.6162 65.3528 92.6092 63.793 92.0199C62.2333 91.4307 60.5415 91.282 58.9029 91.5901C58.7888 91.6084 58.6819 91.6573 58.5935 91.7317C58.5051 91.806 58.4385 91.9029 58.4008 92.0121C58.3631 92.1213 58.3558 92.2387 58.3796 92.3518C58.4033 92.4648 58.4573 92.5693 58.5358 92.6541L63.4302 98.1071C63.5245 98.2111 63.5895 98.3384 63.6185 98.4758C63.6474 98.6132 63.6394 98.7558 63.5951 98.8891L62.5311 102.14C62.4868 102.273 62.4086 102.392 62.304 102.485C62.1995 102.578 62.0724 102.643 61.9353 102.672L58.589 103.379C58.4514 103.408 58.3088 103.4 58.1753 103.356C58.0418 103.312 57.9221 103.234 57.8283 103.129L52.9339 97.6814C52.8566 97.6029 52.7604 97.5457 52.6545 97.5153C52.5487 97.485 52.4367 97.4825 52.3296 97.5083C52.2226 97.534 52.1239 97.5869 52.0434 97.662C51.9628 97.7371 51.903 97.8318 51.8699 97.9368C51.3882 99.5325 51.355 101.23 51.7739 102.843C52.1928 104.457 53.0477 105.924 54.2448 107.083C55.442 108.243 56.9353 109.051 58.5611 109.419C60.1869 109.786 61.8825 109.699 63.4621 109.167L100.777 150.717C100.08 152.231 99.8126 153.907 100.005 155.563C100.197 157.218 100.84 158.789 101.865 160.104C102.89 161.418 104.257 162.425 105.816 163.015C107.374 163.605 109.066 163.754 110.704 163.447C110.818 163.43 110.926 163.381 111.015 163.307C111.104 163.233 111.171 163.136 111.21 163.027C111.248 162.918 111.256 162.8 111.232 162.687C111.209 162.573 111.155 162.468 111.076 162.383L106.166 156.941C106.071 156.836 106.007 156.708 105.978 156.569C105.949 156.431 105.957 156.288 106.001 156.154L107.065 152.908C107.108 152.775 107.186 152.655 107.291 152.562C107.396 152.468 107.523 152.404 107.661 152.376L111.002 151.669C111.139 151.64 111.282 151.648 111.416 151.691C111.549 151.735 111.669 151.814 111.762 151.919L116.662 157.367C116.739 157.447 116.835 157.505 116.941 157.536C117.047 157.568 117.16 157.571 117.268 157.545C117.375 157.519 117.474 157.465 117.555 157.389C117.635 157.313 117.694 157.217 117.726 157.111C118.206 155.516 118.238 153.819 117.818 152.207C117.398 150.594 116.543 149.128 115.347 147.969C114.15 146.81 112.658 146.002 111.033 145.633C109.408 145.265 107.713 145.351 106.134 145.881L106.15 145.87Z" fill="#3B6C65"/>
<path opacity="0.7" d="M106.15 145.87L68.8353 104.321C69.5327 102.806 69.8 101.129 69.6078 99.473C69.4157 97.8168 68.7715 96.2453 67.7459 94.9308C66.7203 93.6162 65.3528 92.6092 63.793 92.0199C62.2333 91.4307 60.5415 91.282 58.9029 91.5901C58.7888 91.6084 58.6819 91.6573 58.5935 91.7317C58.5051 91.806 58.4385 91.9029 58.4008 92.0121C58.3631 92.1213 58.3558 92.2387 58.3796 92.3518C58.4033 92.4648 58.4573 92.5693 58.5358 92.6541L63.4302 98.1071C63.5245 98.2111 63.5895 98.3384 63.6185 98.4758C63.6474 98.6132 63.6394 98.7558 63.5951 98.8891L62.5311 102.14C62.4868 102.273 62.4086 102.392 62.304 102.485C62.1995 102.578 62.0724 102.643 61.9353 102.672L58.589 103.379C58.4514 103.408 58.3088 103.4 58.1753 103.356C58.0418 103.312 57.9221 103.234 57.8283 103.129L52.9339 97.6814C52.8566 97.6029 52.7604 97.5457 52.6545 97.5153C52.5487 97.485 52.4367 97.4825 52.3296 97.5083C52.2226 97.534 52.1239 97.5869 52.0434 97.662C51.9628 97.7371 51.903 97.8318 51.8699 97.9368C51.3882 99.5325 51.355 101.23 51.7739 102.843C52.1928 104.457 53.0477 105.924 54.2448 107.083C55.442 108.243 56.9353 109.051 58.5611 109.419C60.1869 109.786 61.8825 109.699 63.4621 109.167L100.777 150.717C100.08 152.231 99.8126 153.907 100.005 155.563C100.197 157.218 100.84 158.789 101.865 160.104C102.89 161.418 104.257 162.425 105.816 163.015C107.374 163.605 109.066 163.754 110.704 163.447C110.818 163.43 110.926 163.381 111.015 163.307C111.104 163.233 111.171 163.136 111.21 163.027C111.248 162.918 111.256 162.8 111.232 162.687C111.209 162.573 111.155 162.468 111.076 162.383L106.166 156.941C106.071 156.836 106.007 156.708 105.978 156.569C105.949 156.431 105.957 156.288 106.001 156.154L107.065 152.908C107.108 152.775 107.186 152.655 107.291 152.562C107.396 152.468 107.523 152.404 107.661 152.376L111.002 151.669C111.139 151.64 111.282 151.648 111.416 151.691C111.549 151.735 111.669 151.814 111.762 151.919L116.662 157.367C116.739 157.447 116.835 157.505 116.941 157.536C117.047 157.568 117.16 157.571 117.268 157.545C117.375 157.519 117.474 157.465 117.555 157.389C117.635 157.313 117.694 157.217 117.726 157.111C118.206 155.516 118.238 153.819 117.818 152.207C117.398 150.594 116.543 149.128 115.347 147.969C114.15 146.81 112.658 146.002 111.033 145.633C109.408 145.265 107.713 145.351 106.134 145.881L106.15 145.87Z" fill="white"/>
<path d="M63.9951 96.9102C63.9951 96.9102 52.9135 98.3625 51.4771 100.336C50.0407 102.31 49.9609 104.145 56.5099 106.029L58.4304 104.629C58.4304 104.629 55.7119 103.592 56.0311 102.954C56.3503 102.315 64.0111 102.555 64.0111 102.555L63.9951 96.9102Z" fill="#E4897B"/>
<path d="M68.1546 96.7655L66.6118 102.144L64.021 102.538L58.5946 103.362L58.435 101.192L58.1211 96.9038C58.1211 96.9038 63.4517 95.8345 68.1546 96.7655Z" fill="#3B6C65"/>
<path opacity="0.2" d="M65.4363 99.043L64.0372 102.544L58.6108 103.368L58.4512 101.198C61.1803 99.0536 65.4363 99.043 65.4363 99.043Z" fill="black"/>
<path d="M64.3555 219.04L68.6647 219.493L68.8881 216.992L69.4733 210.188L65.1588 209.73L64.5044 217.248L64.3555 219.04Z" fill="#E4897B"/>
<path d="M42.8164 218.494H46.9979L47.0405 217.547V217.43L47.2586 211.365V211.243L47.349 208.918H43.1622L42.8164 218.494Z" fill="#E4897B"/>
<path opacity="0.2" d="M65.1602 209.73L64.5059 217.248L68.8895 216.992L69.4747 210.188L65.1602 209.73Z" fill="black"/>
<path opacity="0.2" d="M42.8418 217.962H42.8524L47.0393 217.43L47.2574 211.578L43.0599 211.913L42.8524 217.781L42.8418 217.962Z" fill="black"/>
<path d="M47.5771 218.243H42.4965C42.4131 218.242 42.332 218.271 42.267 218.323C42.2021 218.375 42.1572 218.449 42.1401 218.53L41.3155 222.254C41.2824 222.414 41.3143 222.581 41.4041 222.718C41.4938 222.854 41.6342 222.95 41.7943 222.983C41.8384 222.988 41.8831 222.988 41.9273 222.983C43.5711 222.957 44.7681 222.855 46.8323 222.855C48.1038 222.855 51.9395 222.988 53.6951 222.988C55.4507 222.988 55.6795 221.254 54.9613 221.094C51.7373 220.392 49.3114 219.419 48.2793 218.493C48.0862 218.322 47.8346 218.233 47.5771 218.243Z" fill="#263238"/>
<path d="M69.124 218.12H64.0434C63.9599 218.119 63.8789 218.148 63.8139 218.2C63.749 218.252 63.7041 218.326 63.6869 218.407L62.8623 222.131C62.8293 222.291 62.8612 222.458 62.951 222.595C63.0407 222.731 63.181 222.827 63.3411 222.86C63.3853 222.865 63.4299 222.865 63.4741 222.86C65.118 222.833 66.315 222.732 68.3792 222.732C69.6506 222.732 73.4864 222.865 75.242 222.865C76.9976 222.865 77.2263 221.131 76.5081 220.971C73.2842 220.269 70.8583 219.296 69.8262 218.37C69.6331 218.199 69.3815 218.11 69.124 218.12Z" fill="#263238"/>
<path d="M69.8723 216.364H63.7383C63.7383 216.364 61.9774 163.324 55.3274 145.502C56.1413 178.661 48.3263 216.896 48.3263 216.896H42.2828C42.2828 216.896 45.0545 186.96 45.0545 173.868C45.0545 150.667 38.6705 139.341 44.8842 124.328H67.0793C72.5163 157.073 74.6071 180.188 69.8723 216.364Z" fill="#3B6C65"/>
<path d="M70.5588 214.637L70.2609 216.366H63.0098V214.77L70.5588 214.637Z" fill="#3B6C65"/>
<path d="M49.04 215.301L48.343 216.897H42.2623L41.8633 215.301H49.04Z" fill="#3B6C65"/>
<path d="M86.1846 98.7133C86.0197 98.8463 85.8548 98.9687 85.6845 99.0804C84.7094 99.7376 83.5566 100.081 82.3808 100.065C82.0833 100.061 81.7863 100.036 81.4924 99.9901C80.3612 99.8203 79.3162 99.2866 78.5156 98.4696C77.715 97.6527 77.2024 96.5972 77.0555 95.4628C76.6352 92.5155 78.1195 90.5844 80.4071 87.121C80.9244 86.3029 81.6425 85.6307 82.493 85.1685C83.3436 84.7064 84.2983 84.4696 85.2662 84.4808C86.2341 84.492 87.1831 84.7508 88.0227 85.2325C88.8623 85.7142 89.5647 86.4028 90.0629 87.2328C92.3558 90.9727 89.1372 96.2555 86.1846 98.7133Z" fill="#E4897B"/>
<path opacity="0.2" d="M82.3963 100.064C82.0988 100.061 81.8019 100.036 81.5079 99.9895C80.7324 99.8729 79.9928 99.5845 79.343 99.1455C78.6932 98.7064 78.1496 98.1278 77.752 97.4519C78.1956 97.1626 78.6749 96.9319 79.1777 96.7656C80.5448 97.5335 81.6621 98.6785 82.3963 100.064Z" fill="black"/>
<path d="M72.5176 99.4158C73.0496 102.118 77.4705 104.539 77.4705 104.539C77.4705 104.539 80.4816 105.709 80.5348 104.539C79.2367 103.204 79.0346 101.985 79.391 100.884C79.6362 100.22 80.0105 99.6103 80.4923 99.0912C80.7475 98.7925 81.0211 98.51 81.3115 98.2454L79.0771 90.8984C77.928 93.8032 75.4223 98.8518 72.5176 99.4158Z" fill="#E4897B"/>
<path d="M91.9244 87.7382C91.4722 85.2166 90.1954 85.0782 90.1954 85.0782C90.073 83.0673 85.3276 81.035 82.2154 81.6894C79.1032 82.3438 76.9911 85.0836 76.1399 87.6052C74.9057 91.2814 75.6505 95.8406 75.6505 95.8406C78.1668 97.7558 80.7843 98.1069 81.577 96.6918C82.3696 95.2767 84.338 94.7872 84.338 94.7872C85.535 95.8246 87.429 94.7872 87.429 94.7872C87.429 94.7872 89.557 94.0477 89.9453 91.9517C90.3337 89.8556 92.3021 89.8662 91.9244 87.7382Z" fill="#263238"/>
<path d="M84.2532 93.6315C84.0814 93.9903 83.9922 94.3829 83.9922 94.7807C83.9922 95.1784 84.0814 95.5711 84.2532 95.9298C84.716 96.7171 85.8492 96.0947 86.5089 95.0201C87.0728 94.0678 87.541 92.4824 86.6951 92.11C85.8492 91.7376 84.6788 92.5675 84.2532 93.6315Z" fill="#E4897B"/>
<path d="M84.7949 81.6837C89.4606 80.2952 93.2165 87.9507 93.0356 92.0098C92.8813 95.3082 89.418 94.9092 89.418 94.9092C89.418 94.9092 91.3332 94.7815 91.147 92.4673C91.147 92.4673 90.3171 95.3029 88.4604 93.4409C86.6037 91.5789 88.8062 87.142 88.8062 87.142L84.7949 81.6837Z" fill="#263238"/>
<path opacity="0.2" d="M54.834 167.182C54.3137 162.041 53.5306 156.931 52.4879 151.871C46.205 143.976 49.6364 136.688 49.6364 136.688C50.4769 141.757 55.3288 145.503 55.3288 145.503C55.5203 152.637 55.2969 160.005 54.834 167.182Z" fill="black"/>
<path d="M72.5059 98.2027C72.5059 98.2027 73.8518 97.2025 76.3469 98.6762C77.9083 99.6868 79.0762 101.202 79.6559 102.969L72.5059 98.2027Z" fill="#3B6C65"/>
<path d="M69.475 134.798C69.475 134.798 69.475 121.855 83.009 106.187C83.009 106.187 76.9336 97.7073 68.1556 96.7656C68.1556 96.7656 51.9509 102.325 43.125 126.026L69.475 134.798Z" fill="#3B6C65"/>
<path d="M82.9915 106.189C81.5728 107.849 80.2871 109.473 79.1345 111.062C77.1158 113.841 75.3361 116.787 73.8145 119.866C69.4627 128.73 69.4627 134.8 69.4627 134.8L43.1074 126.022C51.9333 102.326 68.138 96.7617 68.138 96.7617C76.932 97.7087 82.9915 106.189 82.9915 106.189Z" fill="white"/>
<path d="M69.6389 132.943C69.5804 133.379 69.5431 133.741 69.5219 134.007L43.4805 125.085C43.6081 124.75 43.7411 124.42 43.8741 124.096L69.6389 132.943Z" fill="#3B6C65"/>
<path d="M70.0966 130.308C70.0168 130.686 69.9424 131.037 69.8838 131.372C60.8398 127.888 50.5882 123.999 44.7734 121.988C44.9171 121.658 45.066 121.339 45.215 121.02C51.7001 123.249 62.9253 127.537 70.0966 130.308Z" fill="#3B6C65"/>
<path d="M70.7837 127.639C70.6773 127.995 70.5815 128.341 70.4911 128.671C63.3091 125.553 52.5361 121.026 46.2266 118.941C46.3915 118.616 46.5564 118.302 46.7213 117.988C53.1479 120.127 63.7028 124.569 70.7837 127.639Z" fill="#3B6C65"/>
<path d="M71.672 124.908C71.5497 125.259 71.4273 125.599 71.3156 125.929C64.3251 122.556 54.2916 117.949 47.8438 115.975C48.0246 115.656 48.2108 115.342 48.3758 115.039C54.9619 117.071 64.772 121.577 71.672 124.908Z" fill="#3B6C65"/>
<path d="M72.7729 122.158C72.6239 122.494 72.4856 122.823 72.3579 123.153C65.6707 119.578 56.3979 114.982 49.6309 113.093C49.8383 112.779 50.0511 112.465 50.2639 112.162C57.1108 114.136 66.1867 118.637 72.7729 122.158Z" fill="#3B6C65"/>
<path d="M74.0701 119.376C73.9052 119.705 73.7456 120.035 73.5913 120.36C67.303 116.636 58.7485 112.135 51.625 110.284C51.8591 109.97 52.0932 109.667 52.3326 109.363C59.5092 111.31 67.8776 115.721 74.0701 119.376Z" fill="#3B6C65"/>
<path d="M75.544 116.599C75.3578 116.924 75.1823 117.243 75.012 117.557C69.16 113.79 61.2971 109.406 53.8438 107.534C54.1098 107.225 54.3758 106.927 54.6524 106.635C62.127 108.598 69.825 112.88 75.544 116.599Z" fill="#3B6C65"/>
<path d="M77.2255 113.881C77.0287 114.179 76.8425 114.477 76.6563 114.775C71.2937 111.003 64.0479 106.795 56.3711 104.864C56.6743 104.566 56.9723 104.279 57.2702 104.002C64.8405 106.024 71.9374 110.168 77.2255 113.881Z" fill="#3B6C65"/>
<path d="M79.0774 111.187L78.4656 112.049C73.5978 108.325 66.9585 104.298 59.2285 102.297C59.5796 102.01 59.9201 101.733 60.2553 101.473C67.8044 103.547 74.2841 107.5 79.0774 111.187Z" fill="#3B6C65"/>
<path d="M81.1037 108.486C80.8803 108.768 80.6621 109.045 80.4493 109.327C75.2061 104.929 69.0957 101.684 62.5156 99.8037C62.9253 99.5271 63.3189 99.2717 63.6967 99.043C70.0695 101.001 75.9875 104.211 81.1037 108.486Z" fill="#3B6C65"/>
<path d="M82.9924 106.187L82.5721 106.682C77.8978 102.505 72.378 99.3837 66.3887 97.5319C67.043 97.2073 67.5378 96.9999 67.8304 96.8828C72.7832 98.5573 77.4024 101.091 81.4762 104.368C82.0145 104.946 82.5206 105.554 82.9924 106.187Z" fill="#3B6C65"/>
<path opacity="0.2" d="M79.1519 111.06C77.1332 113.84 75.3535 116.785 73.8319 119.865C73.7984 117.852 74.2224 115.857 75.0721 114.031C75.9218 112.206 77.1749 110.597 78.737 109.326L79.1519 111.06Z" fill="black"/>
<path d="M82.9918 110.188V126.616L89.3758 138.011L91.9879 140.921C91.9879 140.921 88.9343 142.804 88.0937 141.597C87.4142 140.461 86.851 139.26 86.4126 138.011C86.4126 138.011 80.1031 129.536 79.1135 127.515C78.124 125.493 77.7676 113.252 77.7676 113.252L82.9918 110.188Z" fill="#E4897B"/>
<path d="M82.9927 106.188C83.9928 108.954 83.9875 118.381 83.9875 118.381L76.8959 119.003L76.332 115.279C76.502 112.86 77.346 110.536 78.7686 108.571C79.2645 107.898 79.8974 107.338 80.6254 106.927C81.3535 106.516 82.1602 106.264 82.9927 106.188Z" fill="#3B6C65"/>
</svg>
