<svg width="266" height="266" viewBox="0 0 266 266" fill="none" xmlns="http://www.w3.org/2000/svg">
<g opacity="0.1">
<path d="M132.999 227.461C189.967 227.461 236.149 224.765 236.149 221.439C236.149 218.113 189.967 215.417 132.999 215.417C76.0312 215.417 29.8496 218.113 29.8496 221.439C29.8496 224.765 76.0312 227.461 132.999 227.461Z" fill="#F5F5F5"/>
</g>
<path d="M161.578 207.422L159.455 218.472L154.082 217.174L156.205 206.124L161.578 207.422Z" fill="#7F3E3B"/>
<path d="M154.251 214.928L160.226 216.226C160.318 216.244 160.401 216.296 160.457 216.372C160.513 216.448 160.539 216.542 160.529 216.636L160.114 221.025C160.1 221.135 160.064 221.241 160.007 221.336C159.95 221.431 159.874 221.514 159.783 221.578C159.692 221.642 159.589 221.686 159.481 221.708C159.372 221.73 159.26 221.73 159.151 221.706C157.273 221.264 156.715 220.988 154.337 220.472C151.565 219.86 150.581 220.025 147.325 219.312C145.356 218.881 145.447 216.817 146.33 216.811C148.662 216.817 150.955 216.206 152.975 215.04C153.37 214.841 153.827 214.801 154.251 214.928Z" fill="#263238"/>
<path opacity="0.2" d="M161.582 207.427L160.486 213.12L155.107 211.822L156.203 206.124L161.582 207.427Z" fill="black"/>
<path d="M170.93 164.867C177.234 146.322 182.225 124.435 182.225 124.435L164.243 123.297C164.243 123.297 161.583 151.695 160.21 164.793C158.774 178.401 154.311 209.124 154.311 209.124L162.424 210.768C162.424 210.768 170.031 181.838 170.93 164.867Z" fill="#263238"/>
<path opacity="0.2" d="M173.931 134.756L178.293 140.15C177.181 144.316 175.883 148.997 174.457 153.78C173.639 147.473 173.463 141.099 173.931 134.756Z" fill="#263238"/>
<path d="M154.428 210.278L161.876 211.906C162.024 211.939 162.18 211.916 162.312 211.842C162.445 211.767 162.545 211.646 162.594 211.502L163.413 209.103C163.442 209.021 163.453 208.935 163.445 208.849C163.438 208.763 163.413 208.68 163.371 208.605C163.329 208.53 163.272 208.464 163.203 208.412C163.135 208.36 163.056 208.324 162.972 208.305L154.891 206.416C154.806 206.396 154.717 206.394 154.632 206.411C154.546 206.427 154.465 206.462 154.393 206.512C154.322 206.562 154.262 206.627 154.217 206.702C154.173 206.777 154.145 206.861 154.135 206.948L153.949 209.608C153.932 209.759 153.972 209.911 154.06 210.035C154.149 210.158 154.28 210.245 154.428 210.278Z" fill="#263238"/>
<path opacity="0.1" d="M154.428 210.278L161.876 211.906C162.024 211.939 162.18 211.916 162.312 211.842C162.445 211.767 162.545 211.646 162.594 211.502L163.413 209.103C163.442 209.021 163.453 208.935 163.445 208.849C163.438 208.763 163.413 208.68 163.371 208.605C163.329 208.53 163.272 208.464 163.203 208.412C163.135 208.36 163.056 208.324 162.972 208.305L154.891 206.416C154.806 206.396 154.717 206.394 154.632 206.411C154.546 206.427 154.465 206.462 154.393 206.512C154.322 206.562 154.262 206.627 154.217 206.702C154.173 206.777 154.145 206.861 154.135 206.948L153.949 209.608C153.932 209.759 153.972 209.911 154.06 210.035C154.149 210.158 154.28 210.245 154.428 210.278Z" fill="white"/>
<path d="M191.156 207.038L191.491 218.439L186.038 218.365L185.703 206.964L191.156 207.038Z" fill="#7F3E3B"/>
<path d="M185.9 216.024L191.699 216.109C191.793 216.109 191.883 216.143 191.953 216.206C192.023 216.269 192.067 216.356 192.076 216.45L192.544 220.833C192.553 220.944 192.539 221.056 192.502 221.161C192.465 221.266 192.407 221.362 192.331 221.443C192.255 221.524 192.163 221.589 192.06 221.632C191.958 221.675 191.847 221.697 191.736 221.695C189.81 221.637 189.204 221.477 186.772 221.44C183.931 221.392 183.32 221.748 179.989 221.7C177.973 221.668 177.648 219.626 178.51 219.445C180.799 218.987 182.926 217.934 184.676 216.391C185.022 216.117 185.46 215.986 185.9 216.024Z" fill="#263238"/>
<path opacity="0.2" d="M191.161 207.044L191.332 212.917L185.873 212.842L185.703 206.964L191.161 207.044Z" fill="black"/>
<path d="M189.8 164.489C188.257 144.981 189.56 134.458 187.294 124.77L170.93 123.754C170.93 123.754 176.01 152.429 178.814 165.399C181.618 178.369 184.634 209.874 184.634 209.874L192.678 209.975C192.678 209.975 193.662 179.71 189.8 164.489Z" fill="#263238"/>
<path d="M184.656 211.321L192.269 211.439C192.426 211.44 192.578 211.382 192.694 211.275C192.81 211.168 192.88 211.021 192.891 210.864L193.056 208.353C193.062 208.27 193.052 208.187 193.025 208.108C192.998 208.029 192.956 207.957 192.9 207.895C192.844 207.833 192.776 207.783 192.701 207.749C192.625 207.714 192.543 207.695 192.46 207.693L184.177 207.438C184.085 207.435 183.993 207.452 183.909 207.489C183.824 207.526 183.749 207.582 183.69 207.652C183.63 207.722 183.586 207.805 183.563 207.894C183.54 207.983 183.537 208.076 183.554 208.167L184.086 210.827C184.115 210.96 184.186 211.08 184.288 211.169C184.391 211.258 184.52 211.312 184.656 211.321Z" fill="#263238"/>
<path opacity="0.1" d="M184.656 211.321L192.269 211.439C192.426 211.44 192.578 211.382 192.694 211.275C192.81 211.168 192.88 211.021 192.891 210.864L193.056 208.353C193.062 208.27 193.052 208.187 193.025 208.108C192.998 208.029 192.956 207.957 192.9 207.895C192.844 207.833 192.776 207.783 192.701 207.749C192.625 207.714 192.543 207.695 192.46 207.693L184.177 207.438C184.085 207.435 183.993 207.452 183.909 207.489C183.824 207.526 183.749 207.582 183.69 207.652C183.63 207.722 183.586 207.805 183.563 207.894C183.54 207.983 183.537 208.076 183.554 208.167L184.086 210.827C184.115 210.96 184.186 211.08 184.288 211.169C184.391 211.258 184.52 211.312 184.656 211.321Z" fill="white"/>
<path d="M170.402 93.7451C169.775 95.1017 169.12 96.304 168.407 97.5435C167.695 98.7831 166.944 99.9854 166.115 101.166C165.275 102.386 164.359 103.55 163.369 104.651C162.272 105.919 160.985 107.01 159.555 107.886L159.369 107.992C159.051 108.179 158.697 108.297 158.33 108.337C157.963 108.377 157.592 108.34 157.241 108.226C156.203 107.891 155.198 107.513 154.214 107.109C153.23 106.705 152.272 106.258 151.33 105.79C150.389 105.321 149.468 104.827 148.564 104.295C147.66 103.763 146.776 103.231 145.904 102.587C145.592 102.365 145.366 102.042 145.267 101.672C145.168 101.302 145.201 100.909 145.36 100.561C145.52 100.213 145.796 99.9314 146.141 99.7651C146.486 99.5989 146.878 99.5582 147.25 99.6503H147.308C148.261 99.879 149.245 100.156 150.202 100.406L153.081 101.166C154.033 101.427 154.99 101.645 155.932 101.879C156.874 102.113 157.815 102.294 158.741 102.486L156.448 102.832C157.245 102.171 157.959 101.417 158.576 100.587C159.305 99.6503 160.007 98.6182 160.704 97.5542C161.401 96.4902 162.034 95.3783 162.662 94.2505C163.29 93.1226 163.928 91.9575 164.492 90.8829L164.524 90.8244C164.948 90.1182 165.623 89.5976 166.413 89.3662C167.204 89.1349 168.053 89.2098 168.79 89.5761C169.528 89.9423 170.101 90.5731 170.395 91.3427C170.689 92.1123 170.682 92.9643 170.376 93.7291L170.402 93.7451Z" fill="#7F3E3B"/>
<path d="M171.711 84.4436C165.359 85.1671 160.539 95.0038 160.539 95.0038L167.093 101.978C167.093 101.978 170.014 98.499 173.153 94.0994C176.579 89.3061 176.738 83.8743 171.711 84.4436Z" fill="white"/>
<path d="M170.93 85.9182C173.372 85.0511 184.31 86.4502 184.31 86.4502C182.182 89.1953 180.405 111.928 180.208 124.994C177.883 125.313 168.967 124.701 166.908 124.222C167.174 119.094 169.313 95.0367 170.93 85.9182Z" fill="white"/>
<path d="M163.87 92.8136C164.157 90.4496 165.302 88.2733 167.088 86.6982C168.874 85.1231 171.176 84.2588 173.557 84.2696C178.128 84.3062 182.682 84.8089 187.15 85.7699C187.846 85.9172 188.505 86.2025 189.089 86.609C189.673 87.0156 190.169 87.535 190.548 88.1367C190.928 88.7383 191.183 89.4099 191.298 90.1118C191.413 90.8137 191.387 91.5316 191.22 92.223C187.852 106.348 188.741 119.749 187.842 125.984C184.636 127.162 181.232 127.704 177.819 127.58C177.819 127.58 177.899 122.201 178.649 113.12C179.244 105.901 180.314 88.9246 182.516 86.105C182.516 86.105 174.621 85.041 172.18 85.8976C170.365 96.1386 169.035 127.159 169.035 127.165C165.173 126.888 163.354 124.739 163.412 124.1C162.63 111.551 163.024 100.171 163.87 92.8136Z" fill="white"/>
<path d="M182.799 77.1016C182.059 79.2296 181.203 83.0014 182.57 85.1188C182.639 85.2172 182.686 85.3297 182.707 85.4483C182.727 85.5669 182.721 85.6885 182.689 85.8045C182.657 85.9206 182.6 86.028 182.521 86.1192C182.443 86.2103 182.345 86.283 182.235 86.3318C180.037 87.5994 177.498 88.1464 174.973 87.8958C171.542 87.6192 171.781 86.0711 172.664 85.0656C172.873 84.8334 173.162 84.6889 173.473 84.6613C176.713 84.2729 176.745 82.3205 176.276 80.4053L182.799 77.1016Z" fill="#7F3E3B"/>
<path opacity="0.2" d="M180.138 78.4609L176.281 80.424C176.403 80.8774 176.473 81.3433 176.489 81.8125C177.893 81.8125 179.883 80.8709 180.112 79.7909C180.229 79.3565 180.238 78.8998 180.138 78.4609Z" fill="black"/>
<path d="M177.656 69.7063C177.801 67.7873 176.757 66.1438 175.324 66.0356C173.891 65.9274 172.613 67.3953 172.468 69.3144C172.323 71.2334 173.366 72.8768 174.799 72.985C176.232 73.0933 177.511 71.6253 177.656 69.7063Z" fill="#263238"/>
<path d="M184.884 71.2881C184.171 75.4856 183.964 77.9806 181.633 79.9331C178.128 82.8644 173.207 80.3853 172.675 76.0601C172.19 72.1712 173.435 65.9521 177.681 64.6966C181.926 63.4411 185.597 67.0853 184.884 71.2881Z" fill="#7F3E3B"/>
<path d="M183.969 74.8367C183.916 74.8367 183.852 74.7675 183.794 74.7994C181.889 75.8634 181.272 73.5758 181.389 72.0543C181.428 71.5467 181.574 71.0531 181.817 70.6058C182.06 70.1584 182.395 69.7673 182.799 69.4582C180.735 69.6922 178.735 68.3622 178.703 67.1227C176.42 68.1282 173.67 68.1867 172.43 66.0587C171.191 63.9307 172.962 61.1483 175.324 61.8878C174.367 60.1748 178.415 56.7487 182.655 61.8027C182.788 58.1372 188.715 61.8027 187.741 65.4043C190.486 66.3513 192.838 71.5649 188.183 72.6768C187.874 77.5073 183.969 74.8367 183.969 74.8367Z" fill="#263238"/>
<path d="M186.214 76.157C185.57 76.9476 184.65 77.4647 183.639 77.604C182.363 77.7477 182.081 76.4496 182.735 75.2686C183.326 74.2046 184.698 72.8533 185.837 73.2682C186.975 73.6832 187.044 75.1462 186.214 76.157Z" fill="#7F3E3B"/>
<path d="M178.797 71.6018C178.765 71.9529 178.558 72.2136 178.329 72.1923C178.1 72.171 177.941 71.8731 177.973 71.522C178.005 71.1709 178.212 70.9155 178.441 70.9368C178.67 70.9581 178.824 71.256 178.797 71.6018Z" fill="#263238"/>
<path d="M174.675 71.1442C174.643 71.49 174.436 71.7506 174.207 71.7294C173.978 71.7081 173.824 71.4102 173.851 71.0644C173.877 70.7186 174.09 70.4526 174.319 70.4738C174.548 70.4951 174.728 70.793 174.675 71.1442Z" fill="#263238"/>
<path d="M176.288 71.3418C175.779 72.3617 175.133 73.3069 174.367 74.1508C174.588 74.3431 174.848 74.4851 175.129 74.5669C175.41 74.6487 175.706 74.6682 175.995 74.6242L176.288 71.3418Z" fill="#630F0F"/>
<path d="M177.069 76.3152C177.455 76.3423 177.843 76.2907 178.209 76.1636C178.575 76.0365 178.911 75.8365 179.197 75.5757C179.207 75.5659 179.214 75.5544 179.219 75.5417C179.224 75.5291 179.226 75.5156 179.226 75.502C179.226 75.4884 179.223 75.475 179.218 75.4625C179.212 75.4501 179.204 75.4388 179.195 75.4294C179.185 75.4199 179.173 75.4125 179.161 75.4076C179.148 75.4026 179.134 75.4002 179.121 75.4004C179.107 75.4007 179.094 75.4036 179.081 75.409C179.069 75.4144 179.058 75.4223 179.048 75.432C178.724 75.7187 178.337 75.9245 177.918 76.0327C177.499 76.1409 177.061 76.1484 176.638 76.0545C176.625 76.0514 176.612 76.051 176.599 76.0535C176.586 76.0559 176.573 76.061 176.562 76.0685C176.551 76.076 176.542 76.0857 176.535 76.0971C176.528 76.1084 176.523 76.1211 176.521 76.1343C176.516 76.161 176.522 76.1886 176.537 76.2113C176.552 76.2341 176.575 76.2503 176.601 76.2566C176.771 76.2832 176.92 76.3045 177.069 76.3152Z" fill="#263238"/>
<path d="M180.161 70.7573C180.194 70.7651 180.229 70.7651 180.262 70.7573C180.287 70.7464 180.309 70.7307 180.327 70.7111C180.346 70.6914 180.36 70.6683 180.37 70.643C180.379 70.6177 180.383 70.5908 180.382 70.5638C180.381 70.5369 180.375 70.5104 180.363 70.486C180.238 70.185 180.044 69.9178 179.796 69.7061C179.548 69.4944 179.254 69.3442 178.937 69.2677C178.884 69.26 178.829 69.2735 178.786 69.3053C178.742 69.3371 178.712 69.3847 178.703 69.438C178.696 69.4915 178.709 69.5459 178.741 69.5896C178.773 69.6333 178.82 69.6629 178.874 69.6721C179.123 69.7365 179.355 69.8586 179.549 70.0286C179.743 70.1986 179.894 70.4118 179.991 70.651C180.009 70.681 180.033 70.7064 180.063 70.7249C180.093 70.7434 180.126 70.7545 180.161 70.7573Z" fill="#263238"/>
<path d="M172.946 69.4472C172.979 69.456 173.014 69.4567 173.047 69.4493C173.081 69.4419 173.112 69.4266 173.138 69.4047C173.327 69.2329 173.555 69.1082 173.802 69.0407C174.048 68.9732 174.308 68.9648 174.558 69.0163C174.61 69.0311 174.665 69.0248 174.712 68.9989C174.759 68.9729 174.794 68.9295 174.808 68.878C174.823 68.8258 174.817 68.7698 174.791 68.7221C174.765 68.6743 174.722 68.6386 174.67 68.6226C174.354 68.5505 174.024 68.5559 173.71 68.6384C173.396 68.7208 173.107 68.8778 172.867 69.0961C172.848 69.1149 172.833 69.1373 172.822 69.1619C172.812 69.1866 172.807 69.213 172.807 69.2397C172.807 69.2664 172.812 69.2929 172.822 69.3175C172.833 69.3422 172.848 69.3646 172.867 69.3834C172.887 69.4115 172.914 69.4335 172.946 69.4472Z" fill="#263238"/>
<path d="M192.486 91.9357C192.832 92.6113 193.114 93.1965 193.39 93.8296C193.667 94.4627 193.922 95.0745 194.199 95.7022C194.731 96.9577 195.194 98.2345 195.63 99.5273C196.517 102.142 197.197 104.823 197.662 107.545L197.806 108.609L197.88 109.141V109.268V109.502C197.88 109.673 197.907 109.843 197.907 110.034C197.886 111.004 197.694 111.962 197.338 112.865C196.808 114.242 196.134 115.56 195.327 116.796C194.594 117.953 193.8 119.07 192.949 120.142C192.114 121.21 191.226 122.234 190.289 123.212C190.019 123.497 189.656 123.676 189.266 123.717C188.875 123.757 188.484 123.656 188.161 123.432C187.839 123.207 187.608 122.875 187.511 122.495C187.413 122.115 187.455 121.712 187.629 121.361V121.318C188.73 119.025 189.895 116.706 190.821 114.445C191.06 113.881 191.273 113.317 191.459 112.769C191.644 112.257 191.799 111.735 191.922 111.205C192.008 110.875 192.039 110.534 192.012 110.194L191.986 110.087L191.885 109.646L191.688 108.768C191.074 106.386 190.323 104.041 189.437 101.746C189.012 100.575 188.528 99.4209 188.06 98.2611C187.825 97.6866 187.575 97.112 187.325 96.5428L186.581 94.8829L186.538 94.7872C186.164 94.0041 186.117 93.1046 186.406 92.2865C186.695 91.4683 187.298 90.7987 188.081 90.4248C188.864 90.0509 189.763 90.0034 190.582 90.2927C191.4 90.582 192.069 91.1845 192.443 91.9676L192.486 91.9357Z" fill="#7F3E3B"/>
<path d="M187.699 85.9185C194.785 87.706 196.743 96.766 196.743 96.766L187.944 103.075C187.944 103.075 185.762 100.793 185.103 95.4306C184.8 92.8717 186.263 85.8493 187.699 85.9185Z" fill="white"/>
<path d="M188.79 120.232L184.693 121.765L187.832 125.967C187.832 125.967 191.37 124.132 190.7 122.094L188.79 120.232Z" fill="#7F3E3B"/>
<path d="M181.644 122.359C180.541 122.174 179.409 122.276 178.357 122.657L180.389 110.581C180.546 109.638 180.323 108.671 179.768 107.892C179.214 107.113 178.373 106.586 177.431 106.426L142.106 100.478C141.165 100.322 140.2 100.546 139.423 101.099C138.645 101.652 138.118 102.49 137.957 103.431L135.892 115.534C136.943 115.148 138.077 115.045 139.18 115.236C140.161 115.4 141.091 115.788 141.899 116.368C142.706 116.949 143.37 117.707 143.839 118.584C144.307 119.461 144.568 120.435 144.602 121.429C144.635 122.423 144.44 123.411 144.032 124.318C143.623 125.225 143.012 126.026 142.245 126.659C141.478 127.293 140.576 127.742 139.609 127.972C138.641 128.202 137.634 128.207 136.664 127.987C135.694 127.766 134.788 127.326 134.014 126.7L131.977 138.777C131.82 139.72 132.043 140.687 132.597 141.465C133.152 142.244 133.992 142.772 134.935 142.932L170.26 148.879C171.202 149.035 172.167 148.812 172.945 148.259C173.724 147.706 174.252 146.868 174.415 145.927L176.447 133.845C177.221 134.461 178.125 134.892 179.091 135.106C180.057 135.319 181.058 135.309 182.02 135.077C182.981 134.845 183.877 134.397 184.639 133.766C185.401 133.135 186.009 132.339 186.417 131.438C186.825 130.537 187.022 129.555 186.992 128.566C186.963 127.577 186.709 126.608 186.249 125.733C185.788 124.857 185.134 124.098 184.337 123.514C183.539 122.929 182.618 122.534 181.644 122.359Z" fill="#3B6C65"/>
<path opacity="0.6" d="M181.644 122.359C180.541 122.174 179.409 122.276 178.357 122.657L180.389 110.581C180.546 109.638 180.323 108.671 179.768 107.892C179.214 107.113 178.373 106.586 177.431 106.426L142.106 100.478C141.165 100.322 140.2 100.546 139.423 101.099C138.645 101.652 138.118 102.49 137.957 103.431L135.892 115.534C136.943 115.148 138.077 115.045 139.18 115.236C140.161 115.4 141.091 115.788 141.899 116.368C142.706 116.949 143.37 117.707 143.839 118.584C144.307 119.461 144.568 120.435 144.602 121.429C144.635 122.423 144.44 123.411 144.032 124.318C143.623 125.225 143.012 126.026 142.245 126.659C141.478 127.293 140.576 127.742 139.609 127.972C138.641 128.202 137.634 128.207 136.664 127.987C135.694 127.766 134.788 127.326 134.014 126.7L131.977 138.777C131.82 139.72 132.043 140.687 132.597 141.465C133.152 142.244 133.992 142.772 134.935 142.932L170.26 148.879C171.202 149.035 172.167 148.812 172.945 148.259C173.724 147.706 174.252 146.868 174.415 145.927L176.447 133.845C177.221 134.461 178.125 134.892 179.091 135.106C180.057 135.319 181.058 135.309 182.02 135.077C182.981 134.845 183.877 134.397 184.639 133.766C185.401 133.135 186.009 132.339 186.417 131.438C186.825 130.537 187.022 129.555 186.992 128.566C186.963 127.577 186.709 126.608 186.249 125.733C185.788 124.857 185.134 124.098 184.337 123.514C183.539 122.929 182.618 122.534 181.644 122.359Z" fill="white"/>
<path d="M182.777 125.893L184.123 127.18C184.382 127.429 184.722 127.578 185.08 127.599C185.439 127.621 185.794 127.514 186.081 127.297L187.831 125.983L184.692 121.78L182.75 123.727C182.608 123.87 182.495 124.04 182.418 124.227C182.342 124.414 182.304 124.614 182.307 124.816C182.309 125.017 182.352 125.217 182.433 125.402C182.514 125.587 182.631 125.754 182.777 125.893Z" fill="#7F3E3B"/>
<path d="M143.341 101.613L143.831 99.7985C143.912 99.5851 144.059 99.4027 144.25 99.2767C144.441 99.1508 144.666 99.0877 144.895 99.0962C145.588 99.068 146.28 99.1746 146.932 99.4101L149.698 100.432L149.565 101.559C149.454 102.528 148.374 103.336 147.15 103.374C146.329 103.384 145.509 103.297 144.708 103.113L144.41 103.049C144.241 103.037 144.076 102.989 143.927 102.907C143.777 102.825 143.648 102.713 143.546 102.576C143.445 102.44 143.374 102.283 143.338 102.117C143.303 101.95 143.304 101.779 143.341 101.613Z" fill="#7F3E3B"/>
<path d="M99.7641 76.5716C101.536 74.5127 104.201 69.1661 99.1895 67.1233C95.4921 65.6124 87.6451 66.3838 83.1391 73.4009C80.0588 74.4649 79.1491 81.317 86.2619 82.7587C93.3747 84.2005 99.7641 76.5716 99.7641 76.5716Z" fill="#263238"/>
<path d="M115.836 208.587L107.707 209.263L109.085 218.817L115.879 218.264L115.836 208.587Z" fill="#FFC3BD"/>
<path opacity="0.2" d="M115.837 208.593L107.703 209.268L108.48 214.62L115.864 214.009L115.837 208.593Z" fill="black"/>
<path d="M100.296 180.461C97.1042 168.225 88.8369 153.659 94.0771 141.886L116.852 141.816C116.852 141.816 117.416 166.049 117.576 177.46C117.735 189.393 116.74 211.844 116.74 211.844L107.425 212.551C107.425 212.551 101.041 194.181 100.296 180.461Z" fill="#3B6C65"/>
<path d="M106.963 212.918L117.029 212.178C117.115 212.171 117.195 212.133 117.255 212.072C117.316 212.01 117.352 211.929 117.358 211.843L117.571 208.119C117.575 208.068 117.567 208.016 117.548 207.968C117.529 207.919 117.5 207.876 117.462 207.84C117.425 207.805 117.38 207.778 117.33 207.762C117.281 207.745 117.229 207.74 117.178 207.747L106.006 209.231C105.955 209.237 105.906 209.253 105.862 209.28C105.819 209.307 105.782 209.343 105.754 209.385C105.726 209.428 105.708 209.477 105.701 209.527C105.694 209.578 105.698 209.629 105.713 209.678L106.596 212.668C106.621 212.744 106.67 212.811 106.737 212.856C106.803 212.901 106.883 212.923 106.963 212.918Z" fill="#263238"/>
<path opacity="0.2" d="M93.9972 153.467C93.9089 156.357 94.0263 159.249 94.3483 162.122C95.4602 165.969 96.8806 169.82 98.1574 173.555C99.8279 162.979 99.8332 150.652 93.9972 153.467Z" fill="black"/>
<path d="M85.7477 209.184L77.5868 209.263L77.5762 218.893L84.3964 218.839L85.7477 209.184Z" fill="#FFC3BD"/>
<path d="M76.9307 217.413C76.9388 217.359 76.9579 217.308 76.987 217.262C77.016 217.217 77.0543 217.177 77.0994 217.147C77.1445 217.117 77.1954 217.097 77.2488 217.088C77.3022 217.079 77.357 217.081 77.4095 217.094C79.4577 217.908 83.3413 217.285 84.8097 217.003C84.9717 216.97 85.1389 216.97 85.3009 217.004C85.4629 217.038 85.6162 217.105 85.7513 217.2C86.9524 217.971 88.2538 218.572 89.6189 218.988C89.9118 219.771 89.9854 220.619 89.8317 221.44H76.0742C76.4624 220.122 76.7487 218.775 76.9307 217.413Z" fill="#263238"/>
<path d="M108.187 217.413C108.195 217.359 108.214 217.308 108.243 217.262C108.272 217.217 108.31 217.177 108.355 217.147C108.4 217.117 108.451 217.097 108.505 217.088C108.558 217.079 108.613 217.081 108.665 217.094C110.714 217.908 114.597 217.285 116.066 217.003C116.228 216.97 116.395 216.97 116.557 217.004C116.719 217.038 116.872 217.105 117.007 217.2C118.571 218.307 122.742 218.988 122.742 218.988C123.035 219.771 123.107 220.619 122.95 221.44H107.33C107.718 220.122 108.005 218.775 108.187 217.413Z" fill="#263238"/>
<path opacity="0.2" d="M85.7477 209.188L77.5815 209.263L77.5762 214.657L84.9923 214.594L85.7477 209.188Z" fill="black"/>
<path d="M76.4366 176.503C75.33 164.144 71.8614 147.498 75.7982 141.816H102.451C102.451 141.816 97.0197 166.459 94.7906 177.865C92.4764 189.723 85.8211 212.493 85.8211 212.493L76.9952 212.519C76.9952 212.519 73.6489 190.611 76.4366 176.503Z" fill="#3B6C65"/>
<path opacity="0.2" d="M78.0375 209.992C77.9802 209.991 77.9246 209.972 77.8787 209.937C77.8328 209.903 77.799 209.855 77.7822 209.8C77.1491 207.672 77.2502 183.227 78.8462 176.534C78.8462 175.651 78.66 173.917 78.4472 171.719C77.7183 164.271 76.3671 150.439 78.3833 142.592C78.401 142.522 78.4459 142.461 78.5083 142.424C78.5706 142.386 78.6453 142.375 78.7158 142.393C78.7864 142.411 78.847 142.456 78.8844 142.518C78.9219 142.58 78.933 142.655 78.9153 142.725C76.9203 150.487 78.2663 164.266 78.9898 171.672C79.2079 173.906 79.3835 175.667 79.3941 176.561C79.3968 176.584 79.3968 176.607 79.3941 176.63C77.862 182.961 77.713 207.592 78.3301 209.651C78.3501 209.718 78.3429 209.79 78.31 209.852C78.2772 209.914 78.2213 209.96 78.1546 209.981C78.1174 209.996 78.0768 209.999 78.0375 209.992Z" fill="white"/>
<path d="M76.3831 212.849H86.3794C86.4593 212.851 86.5373 212.825 86.5989 212.774C86.6606 212.723 86.7017 212.651 86.7145 212.572L87.3742 209.024C87.3837 208.97 87.3811 208.915 87.3666 208.862C87.3522 208.81 87.3261 208.761 87.2905 208.72C87.2548 208.679 87.2104 208.646 87.1605 208.624C87.1105 208.602 87.0563 208.591 87.0018 208.593L76.1171 209.077C76.0711 209.078 76.026 209.089 75.9843 209.108C75.9427 209.128 75.9055 209.156 75.8751 209.19C75.8446 209.225 75.8216 209.265 75.8074 209.309C75.7932 209.352 75.7882 209.398 75.7926 209.444L76.016 212.508C76.0239 212.601 76.0659 212.687 76.1338 212.75C76.2016 212.813 76.2905 212.848 76.3831 212.849Z" fill="#263238"/>
<path d="M111.507 98.7712C112.039 100.899 112.528 103.027 113.002 105.155C113.475 107.283 113.922 109.411 114.337 111.539L114.976 114.731L115.571 117.923C115.981 120.051 116.343 122.211 116.715 124.36L115.848 122.419C115.964 122.817 116.214 123.163 116.556 123.397C117.237 123.858 118.004 124.174 118.811 124.328C119.887 124.577 120.985 124.721 122.088 124.759C122.679 124.791 123.285 124.813 123.897 124.802C124.2 124.802 124.509 124.802 124.818 124.802C125.126 124.802 125.461 124.802 125.674 124.802L126.43 124.855C127.065 124.896 127.67 125.142 128.154 125.557C128.637 125.972 128.973 126.533 129.11 127.155C129.246 127.777 129.177 128.426 128.913 129.006C128.648 129.585 128.202 130.063 127.643 130.367C127.217 130.601 126.914 130.776 126.552 130.963C126.19 131.149 125.855 131.308 125.488 131.495C124.775 131.803 124.046 132.096 123.291 132.34C122.524 132.592 121.745 132.801 120.955 132.968C120.124 133.134 119.284 133.251 118.439 133.319C117.526 133.384 116.609 133.37 115.699 133.277C114.687 133.192 113.69 132.981 112.731 132.649C111.654 132.29 110.632 131.785 109.693 131.149C108.702 130.463 107.82 129.632 107.075 128.686C106.754 128.286 106.515 127.827 106.373 127.334L106.208 126.744C105.623 124.648 105.022 122.557 104.469 120.45L103.623 117.301L102.819 114.141C102.287 112.013 101.755 109.917 101.271 107.799C100.787 105.682 100.303 103.543 99.8828 101.415C99.5816 99.8925 99.8866 98.3124 100.733 97.0111C101.579 95.7098 102.899 94.7901 104.413 94.4476C105.927 94.1052 107.515 94.367 108.839 95.1775C110.163 95.988 111.118 97.2831 111.502 98.7872L111.507 98.7712Z" fill="#FFC3BD"/>
<path d="M125.301 125.33L125.413 128.766C126.801 132.102 130.78 129.57 130.78 129.57L133.185 129.128C133.604 129.021 133.971 128.77 134.222 128.419C134.474 128.067 134.592 127.638 134.558 127.208L134.494 124.803C134.51 124.307 134.331 123.824 133.997 123.457C133.662 123.09 133.197 122.869 132.701 122.84L130.573 122.882C129.952 122.893 129.343 123.058 128.801 123.361L125.301 125.33Z" fill="#FFC3BD"/>
<path d="M107.43 92.8453C112.325 95.4202 115.522 104.507 115.522 104.507C114.49 108.763 110.33 116.525 106.478 116.477C106.478 116.477 100.823 109.183 100.211 103.906C99.4662 97.5269 97.535 87.6423 107.43 92.8453Z" fill="#263238"/>
<path d="M102.909 91.3359C95.356 90.6178 87.7463 90.7391 80.2196 91.6977C75.8679 92.3095 72.7716 95.0174 73.3036 103.934C74.3676 122.022 72.7184 136.12 75.0167 142.621C75.0167 142.621 108.49 152.197 118.034 143.02C120.354 121.256 112.544 103.189 108.99 95.6717C108.434 94.4881 107.582 93.4676 106.517 92.7082C105.452 91.9489 104.21 91.4763 102.909 91.3359Z" fill="white"/>
<path d="M100.392 93.3141C99.5251 92.4629 98.6154 92.9576 98.1951 91.6755C98.0098 90.669 98.179 89.6294 98.6739 88.7336L88.3478 83.1582C88.55 86.9567 88.7042 89.9572 87.0178 91.468C86.5284 94.2983 91.8058 97.1232 98.8335 97.1658C103.308 97.1924 101.642 94.5377 100.392 93.3141Z" fill="#FFC3BD"/>
<path opacity="0.2" d="M98.5194 89.0532L90.3691 87.0156C92.428 90.2555 96.136 92.0271 98.131 91.245C98.074 90.4934 98.2076 89.7395 98.5194 89.0532Z" fill="black"/>
<path d="M95.1474 70.4655C89.7529 69.2685 85.0926 73.748 86.1353 78.6317C87.178 83.5155 88.0026 86.8139 91.3808 88.4737C98.0947 91.7828 101.372 88.5908 101.92 83.4889C102.415 78.8924 100.622 71.6732 95.1474 70.4655Z" fill="#FFC3BD"/>
<path opacity="0.2" d="M94.088 79.1368C93.4541 78.9782 92.7832 79.0757 92.2207 79.4082C92.8549 79.4416 93.4895 79.3494 94.088 79.1368Z" fill="black"/>
<path opacity="0.2" d="M94.1253 79.5882C93.8271 79.5742 93.5296 79.626 93.2537 79.74C92.9779 79.8541 92.7306 80.0274 92.5293 80.2478C93.1029 80.1464 93.6475 79.9213 94.1253 79.5882Z" fill="black"/>
<path d="M86.8161 82.7578C89.8326 83.4334 91.0721 81.9225 91.0721 80.2308C91.0721 78.4326 89.3751 75.3949 87.5131 74.8363C88.1781 70.8463 99.1745 76.4323 98.1265 70.9048C98.1265 70.9048 97.8285 69.9579 94.9877 69.4259C92.1468 68.8939 84.5551 70.6069 85.0871 76.2833C85.6191 81.9598 86.8161 82.7578 86.8161 82.7578Z" fill="#263238"/>
<path d="M82.9746 73.6825C83.713 72.201 83.9214 70.5111 83.5651 68.8945C83.5651 68.8945 86.8742 71.0811 82.9746 73.6825Z" fill="#263238"/>
<path d="M96.8493 84.2753C97.0749 84.2583 97.299 84.2245 97.5196 84.1742C97.5368 84.1704 97.553 84.1633 97.5674 84.1532C97.5818 84.1431 97.594 84.1303 97.6034 84.1155C97.6128 84.1006 97.6192 84.0841 97.6221 84.0668C97.6251 84.0495 97.6246 84.0317 97.6207 84.0146C97.6176 83.9971 97.6109 83.9804 97.601 83.9656C97.5911 83.9508 97.5783 83.9383 97.5632 83.9288C97.5482 83.9193 97.5314 83.913 97.5138 83.9104C97.4962 83.9077 97.4782 83.9088 97.4611 83.9135C96.9086 84.0483 96.3323 84.0521 95.7781 83.9246C95.2239 83.7972 94.7072 83.542 94.2691 83.1794C94.2567 83.1665 94.2418 83.1563 94.2254 83.1493C94.2089 83.1423 94.1912 83.1387 94.1733 83.1387C94.1555 83.1387 94.1378 83.1423 94.1213 83.1493C94.1049 83.1563 94.09 83.1665 94.0776 83.1794C94.0529 83.2051 94.0391 83.2394 94.0391 83.2751C94.0391 83.3108 94.0529 83.3451 94.0776 83.3709C94.4566 83.6978 94.8968 83.946 95.3727 84.1013C95.8485 84.2566 96.3504 84.3157 96.8493 84.2753Z" fill="#263238"/>
<path d="M84.9059 82.9928C85.2511 83.4608 85.6854 83.8559 86.1839 84.1554C86.6824 84.4549 87.2353 84.6528 87.8106 84.7378C89.3587 84.9506 89.9386 83.5195 89.3427 82.1682C88.8107 80.9499 87.3637 79.3752 85.8954 79.7795C84.427 80.1839 84.0653 81.8277 84.9059 82.9928Z" fill="#FFC3BD"/>
<path d="M94.9663 79.1885C95.0301 79.6194 95.3068 79.9386 95.5887 79.8961C95.8707 79.8535 96.0516 79.4651 95.9877 79.0342C95.9239 78.6033 95.6526 78.2894 95.3706 78.332C95.0886 78.3745 94.929 78.7363 94.9663 79.1885Z" fill="#263238"/>
<path d="M100.036 78.5088C100.1 78.945 100.377 79.2589 100.659 79.2163C100.941 79.1738 101.122 78.7907 101.058 78.3598C100.994 77.9289 100.723 77.6097 100.441 77.6522C100.159 77.6948 99.9779 78.0778 100.036 78.5088Z" fill="#263238"/>
<path d="M98.1211 79.0781L98.3658 82.7276C98.3658 82.7276 99.5628 82.9351 100.212 82.2435C99.7998 81.0256 99.0795 79.9351 98.1211 79.0781Z" fill="#ED847E"/>
<path d="M93.2962 78.2051C93.2526 78.2169 93.2066 78.2168 93.1632 78.2046C93.1197 78.1924 93.0803 78.1687 93.0492 78.136C93.0181 78.1033 92.9965 78.0628 92.9866 78.0187C92.9767 77.9747 92.9789 77.9288 92.9929 77.8859C93.0941 77.4904 93.2877 77.1246 93.5577 76.8184C93.8278 76.5123 94.1666 76.2747 94.5464 76.1249C94.6106 76.1048 94.6801 76.1109 94.7399 76.1418C94.7996 76.1727 94.8448 76.2259 94.8656 76.2899C94.8858 76.3548 94.8799 76.425 94.8491 76.4857C94.8183 76.5463 94.765 76.5925 94.7006 76.6144C94.4008 76.7367 94.1341 76.9281 93.9224 77.1732C93.7107 77.4182 93.5599 77.7098 93.4824 78.0242C93.4703 78.0682 93.4467 78.1082 93.414 78.1401C93.3812 78.1719 93.3405 78.1943 93.2962 78.2051Z" fill="#263238"/>
<path d="M101.702 76.5706C101.66 76.5745 101.618 76.5672 101.579 76.5495C101.541 76.5317 101.508 76.5041 101.484 76.4696C101.302 76.2053 101.059 75.9886 100.775 75.8377C100.492 75.6868 100.177 75.6061 99.8558 75.6024C99.7853 75.6024 99.7176 75.5744 99.6678 75.5245C99.6179 75.4746 99.5898 75.4069 99.5898 75.3364C99.5898 75.2658 99.6179 75.1982 99.6678 75.1483C99.7176 75.0984 99.7853 75.0704 99.8558 75.0704C100.261 75.0672 100.661 75.1623 101.022 75.3476C101.382 75.5329 101.692 75.8029 101.925 76.1344C101.945 76.1616 101.959 76.1925 101.967 76.2251C101.974 76.2578 101.975 76.2916 101.97 76.3247C101.964 76.3578 101.953 76.3895 101.935 76.418C101.917 76.4465 101.894 76.4713 101.867 76.4908C101.846 76.5148 101.821 76.5342 101.793 76.548C101.764 76.5617 101.733 76.5694 101.702 76.5706Z" fill="#263238"/>
<path d="M132.702 111.364C131.588 111.443 130.514 111.81 129.584 112.428L128.621 100.192C128.543 99.2406 128.091 98.3585 127.364 97.7386C126.638 97.1187 125.695 96.8113 124.743 96.8834L89.0299 99.6976C88.0787 99.7777 87.1974 100.23 86.5778 100.956C85.9582 101.682 85.6502 102.624 85.7209 103.576L88.5405 139.289C88.6165 140.242 89.0677 141.126 89.7948 141.746C90.522 142.367 91.4658 142.673 92.4188 142.598L128.127 139.779C129.079 139.701 129.963 139.25 130.584 138.523C131.205 137.796 131.513 136.853 131.441 135.9L130.473 123.691C131.487 124.166 132.607 124.368 133.723 124.276C135.326 124.006 136.77 123.146 137.77 121.864C138.77 120.583 139.253 118.973 139.125 117.352C138.997 115.732 138.266 114.218 137.077 113.11C135.888 112.002 134.327 111.379 132.702 111.364Z" fill="#3B6C65"/>
<path d="M80.9162 106.48L80.3842 107.459L79.7724 108.554C79.3788 109.299 78.9744 110.044 78.6074 110.8C77.8697 112.272 77.2091 113.781 76.6283 115.322C76.3464 116.066 76.0963 116.806 75.9101 117.535C75.6977 118.232 75.5307 118.943 75.41 119.663C75.1868 120.82 75.1491 122.005 75.2983 123.174L74.0747 121.046C74.5842 121.745 75.1915 122.366 75.8782 122.892C76.7808 123.612 77.7279 124.275 78.7138 124.876C79.7405 125.536 80.8418 126.169 81.9483 126.802L83.6401 127.744C84.1721 128.063 84.8105 128.382 85.3159 128.691L85.5712 128.845C86.136 129.187 86.5726 129.706 86.8137 130.32C87.0549 130.935 87.0872 131.612 86.9058 132.247C86.7244 132.882 86.3393 133.44 85.8097 133.835C85.2802 134.229 84.6356 134.439 83.9752 134.431C83.1666 134.431 82.475 134.378 81.7302 134.319C80.9854 134.261 80.2778 134.17 79.5543 134.053C78.0838 133.832 76.6286 133.52 75.1972 133.117C73.6823 132.692 72.2054 132.143 70.7816 131.473C69.0986 130.698 67.5518 129.656 66.2011 128.387C65.7151 127.924 65.3498 127.349 65.1371 126.712L64.9882 126.254C64.1551 123.727 63.8438 121.058 64.0731 118.407C64.2538 116.098 64.6965 113.817 65.3925 111.608C66.0406 109.532 66.8444 107.509 67.7971 105.554C68.26 104.596 68.7334 103.649 69.2654 102.729C69.5261 102.266 69.7974 101.803 70.0741 101.346L70.5103 100.654L70.7391 100.303L71.0157 99.8935C71.8704 98.6003 73.1958 97.6914 74.7102 97.3602C76.2245 97.0289 77.8084 97.3015 79.1249 98.1198C80.4414 98.9381 81.3869 100.238 81.7601 101.742C82.1334 103.247 81.9051 104.838 81.1237 106.176L80.9162 106.48Z" fill="#FFC3BD"/>
<path d="M76.7607 92.8452C67.9401 97.5587 64.6523 108.087 64.6523 108.087C66.3973 111.412 76.9203 115.003 80.8783 114.024C80.8783 114.024 84.6715 107.108 85.4535 100.926C86.1771 95.1966 81.9264 90.0841 76.7607 92.8452Z" fill="white"/>
<path d="M82.9316 129.277L83.1125 132.714C84.5702 136.023 88.4964 133.411 88.4964 133.411L90.8957 132.921C91.3119 132.807 91.6739 132.548 91.9174 132.192C92.1609 131.835 92.2702 131.404 92.2257 130.974L92.1193 128.575C92.1324 128.075 91.9492 127.591 91.6091 127.225C91.2689 126.859 90.7989 126.641 90.2998 126.617L88.1718 126.702C87.5498 126.731 86.9446 126.914 86.4109 127.234L82.9316 129.277Z" fill="#FFC3BD"/>
</svg>
