<svg width="266" height="266" viewBox="0 0 266 266" fill="none" xmlns="http://www.w3.org/2000/svg">
<g opacity="0.1">
<path d="M132.999 227.461C189.967 227.461 236.149 224.765 236.149 221.439C236.149 218.113 189.967 215.417 132.999 215.417C76.0312 215.417 29.8496 218.113 29.8496 221.439C29.8496 224.765 76.0312 227.461 132.999 227.461Z" fill="#F5F5F5"/>
</g>
<path opacity="0.1" d="M137.656 63.7873C137.224 62.3577 136.65 60.9748 135.943 59.6589L137.007 56.1743L130.129 49.2903L126.644 50.3543C125.328 49.6477 123.945 49.0738 122.516 48.6412L120.803 45.4492H111.067L109.359 48.6412C107.929 49.0728 106.546 49.6467 105.231 50.3543L101.746 49.2903L94.8623 56.1743L95.9263 59.6589C95.2237 60.976 94.6518 62.3587 94.2186 63.7873L91 65.5003V75.2359L94.2186 76.9436C94.6507 78.3725 95.2227 79.7553 95.9263 81.0719L94.8623 84.5565L101.746 91.4406L105.231 90.3766C106.548 91.0802 107.93 91.6522 109.359 92.0843L111.067 95.2763H120.803L122.516 92.0843C123.944 91.6512 125.327 91.0792 126.644 90.3766L130.129 91.4406L137.013 84.5565L135.949 81.0719C136.656 79.7565 137.23 78.3735 137.662 76.9436L140.88 75.2359V65.5003L137.656 63.7873ZM115.935 84.1948C113.199 84.1948 110.525 83.3835 108.25 81.8637C105.976 80.3438 104.203 78.1835 103.156 75.6561C102.109 73.1286 101.835 70.3474 102.369 67.6643C102.902 64.9811 104.22 62.5165 106.154 60.5821C108.089 58.6476 110.553 57.3303 113.236 56.7966C115.919 56.2628 118.701 56.5368 121.228 57.5837C123.756 58.6306 125.916 60.4035 127.436 62.6781C128.956 64.9528 129.767 67.6271 129.767 70.3628C129.767 74.0312 128.31 77.5495 125.716 80.1435C123.122 82.7375 119.603 84.1948 115.935 84.1948Z" fill="white"/>
<path opacity="0.1" d="M115.935 65.7812C115.028 65.7812 114.142 66.0502 113.388 66.5541C112.634 67.058 112.046 67.7742 111.699 68.6122C111.352 69.4501 111.261 70.3722 111.438 71.2617C111.615 72.1513 112.051 72.9684 112.693 73.6098C113.334 74.2511 114.151 74.6879 115.041 74.8648C115.93 75.0418 116.852 74.9509 117.69 74.6039C118.528 74.2568 119.245 73.669 119.748 72.9148C120.252 72.1607 120.521 71.2741 120.521 70.3671C120.521 69.1509 120.038 67.9844 119.178 67.1244C118.318 66.2644 117.152 65.7812 115.935 65.7812Z" fill="white"/>
<path opacity="0.1" d="M249.67 42.2276C249.052 40.1838 248.234 38.2059 247.228 36.3224L248.75 31.3429L238.924 21.5168L233.939 23.0437C232.062 22.0264 230.085 21.2063 228.039 20.5965L225.597 16H211.685L209.238 20.5965C207.193 21.2082 205.216 22.0283 203.338 23.0437L198.359 21.5168L188.522 31.3535L190.044 36.333C189.033 38.2144 188.215 40.1928 187.602 42.2382L183 44.6801V58.5919L187.596 61.0391C188.209 63.0832 189.027 65.0599 190.038 66.939L188.517 71.9132L198.354 81.7499L203.333 80.2284C205.213 81.2406 207.192 82.0571 209.238 82.6649L211.685 87.2667H225.597L228.039 82.6702C230.083 82.0558 232.06 81.2359 233.939 80.223L238.924 81.7446L248.761 71.9079L247.239 66.9284C248.242 65.0467 249.056 63.0705 249.67 61.0285L254.267 58.5813V44.6695L249.67 42.2276ZM218.639 76.8448C213.65 76.8448 208.774 75.3656 204.626 72.5942C200.478 69.8227 197.245 65.8835 195.336 61.2748C193.427 56.6661 192.928 51.5947 193.901 46.7021C194.874 41.8095 197.277 37.3154 200.804 33.788C204.331 30.2606 208.825 27.8584 213.718 26.8852C218.611 25.912 223.682 26.4115 228.291 28.3205C232.9 30.2295 236.839 33.4623 239.61 37.6101C242.382 41.7578 243.861 46.6343 243.861 51.6227C243.861 54.9349 243.208 58.2147 241.941 61.2748C240.673 64.3349 238.816 67.1154 236.473 69.4575C234.131 71.7995 231.351 73.6574 228.291 74.9249C225.231 76.1925 221.951 76.8448 218.639 76.8448Z" fill="white"/>
<path opacity="0.1" d="M218.639 29.9375C214.35 29.9386 210.157 31.2115 206.591 33.5954C203.025 35.9794 200.245 39.3672 198.605 43.3306C196.964 47.2939 196.535 51.6548 197.372 55.8618C198.21 60.0689 200.276 63.9331 203.31 66.9659C206.343 69.9987 210.208 72.0639 214.415 72.9004C218.622 73.7369 222.983 73.307 226.946 71.6652C230.909 70.0234 234.296 67.2434 236.679 63.6767C239.062 60.11 240.334 55.9167 240.334 51.6271C240.327 45.8759 238.039 40.3624 233.972 36.2961C229.905 32.2299 224.391 29.9431 218.639 29.9375ZM218.639 70.428C214.921 70.4291 211.285 69.3273 208.193 67.2621C205.1 65.1969 202.69 62.2609 201.266 58.8256C199.842 55.3903 199.469 51.6099 200.194 47.9625C200.919 44.3152 202.709 40.9647 205.338 38.3348C207.967 35.7049 211.317 33.9138 214.964 33.1879C218.611 32.462 222.392 32.834 225.828 34.2569C229.263 35.6797 232.2 38.0895 234.266 41.1814C236.332 44.2733 237.435 47.9085 237.435 51.6271C237.429 56.6108 235.447 61.3888 231.924 64.9133C228.4 68.4377 223.623 70.421 218.639 70.428Z" fill="white"/>
<path d="M152.153 125.638C152.012 125.638 151.877 125.582 151.777 125.482C151.677 125.382 151.621 125.247 151.621 125.106V124.042C151.621 123.901 151.677 123.765 151.777 123.666C151.877 123.566 152.012 123.51 152.153 123.51C152.294 123.51 152.429 123.566 152.529 123.666C152.629 123.765 152.685 123.901 152.685 124.042V125.106C152.685 125.247 152.629 125.382 152.529 125.482C152.429 125.582 152.294 125.638 152.153 125.638Z" fill="#3B6C65"/>
<path d="M143.87 111.891C143.382 111.577 143 111.122 142.774 110.587C142.718 110.457 142.613 110.355 142.482 110.303C142.351 110.25 142.204 110.252 142.074 110.308C141.945 110.364 141.842 110.469 141.79 110.6C141.738 110.731 141.739 110.878 141.795 111.007C142.108 111.734 142.628 112.352 143.29 112.784C143.376 112.84 143.475 112.869 143.577 112.869C143.693 112.87 143.805 112.834 143.898 112.765C143.99 112.697 144.058 112.6 144.091 112.49C144.124 112.379 144.12 112.261 144.08 112.153C144.041 112.045 143.967 111.953 143.87 111.891Z" fill="#3B6C65"/>
<path d="M142.012 105.246C142.154 105.246 142.289 105.19 142.389 105.09C142.488 104.991 142.544 104.855 142.544 104.714V102.677C142.544 102.535 142.488 102.4 142.389 102.3C142.289 102.201 142.154 102.145 142.012 102.145C141.871 102.145 141.736 102.201 141.636 102.3C141.537 102.4 141.48 102.535 141.48 102.677V104.714C141.48 104.855 141.537 104.991 141.636 105.09C141.736 105.19 141.871 105.246 142.012 105.246Z" fill="#3B6C65"/>
<path d="M147.551 112.358H145.509C145.367 112.358 145.232 112.414 145.132 112.514C145.033 112.614 144.977 112.749 144.977 112.89C144.977 113.031 145.033 113.167 145.132 113.267C145.232 113.366 145.367 113.422 145.509 113.422H147.551C147.693 113.422 147.828 113.366 147.928 113.267C148.027 113.167 148.083 113.031 148.083 112.89C148.083 112.749 148.027 112.614 147.928 112.514C147.828 112.414 147.693 112.358 147.551 112.358Z" fill="#3B6C65"/>
<path d="M142.544 108.794V106.757C142.544 106.616 142.488 106.48 142.389 106.38C142.289 106.281 142.154 106.225 142.012 106.225C141.871 106.225 141.736 106.281 141.636 106.38C141.537 106.48 141.48 106.616 141.48 106.757V108.794C141.48 108.935 141.537 109.071 141.636 109.17C141.736 109.27 141.871 109.326 142.012 109.326C142.154 109.326 142.289 109.27 142.389 109.17C142.488 109.071 142.544 108.935 142.544 108.794Z" fill="#3B6C65"/>
<path d="M152.653 115.816C152.635 115.677 152.562 115.55 152.45 115.465C152.338 115.379 152.197 115.341 152.058 115.359C151.988 115.37 151.922 115.396 151.862 115.433C151.803 115.47 151.751 115.519 151.711 115.577C151.67 115.634 151.642 115.699 151.626 115.767C151.611 115.836 151.609 115.907 151.621 115.976C151.638 116.099 151.647 116.224 151.648 116.348V117.944C151.648 118.086 151.704 118.221 151.804 118.321C151.904 118.42 152.039 118.476 152.18 118.476C152.321 118.476 152.456 118.42 152.556 118.321C152.656 118.221 152.712 118.086 152.712 117.944V116.348C152.704 116.17 152.684 115.992 152.653 115.816Z" fill="#3B6C65"/>
<path d="M152.153 119.429C152.012 119.429 151.877 119.485 151.777 119.585C151.677 119.684 151.621 119.82 151.621 119.961V122.004C151.621 122.145 151.677 122.28 151.777 122.38C151.877 122.48 152.012 122.536 152.153 122.536C152.294 122.536 152.429 122.48 152.529 122.38C152.629 122.28 152.685 122.145 152.685 122.004V119.961C152.685 119.82 152.629 119.684 152.529 119.585C152.429 119.485 152.294 119.429 152.153 119.429Z" fill="#3B6C65"/>
<path d="M151.69 113.705C151.17 113.11 150.482 112.686 149.717 112.487C149.649 112.469 149.578 112.465 149.509 112.475C149.44 112.485 149.373 112.508 149.313 112.544C149.253 112.579 149.2 112.626 149.158 112.682C149.116 112.738 149.085 112.802 149.068 112.87C149.05 112.937 149.046 113.008 149.056 113.077C149.066 113.147 149.089 113.213 149.125 113.273C149.16 113.334 149.207 113.386 149.263 113.428C149.319 113.471 149.383 113.501 149.451 113.519C150.01 113.663 150.512 113.973 150.892 114.407C150.942 114.464 151.004 114.509 151.072 114.541C151.141 114.572 151.216 114.588 151.291 114.588C151.394 114.588 151.494 114.558 151.58 114.503C151.665 114.447 151.733 114.368 151.776 114.275C151.818 114.182 151.832 114.079 151.817 113.977C151.802 113.876 151.758 113.782 151.69 113.705Z" fill="#3B6C65"/>
<path d="M142.012 101.144C141.871 101.144 141.736 101.088 141.636 100.988C141.537 100.888 141.48 100.753 141.48 100.612V99.5476C141.48 99.4065 141.537 99.2712 141.636 99.1714C141.736 99.0717 141.871 99.0156 142.012 99.0156C142.154 99.0156 142.289 99.0717 142.389 99.1714C142.488 99.2712 142.544 99.4065 142.544 99.5476V100.612C142.544 100.753 142.488 100.888 142.389 100.988C142.289 101.088 142.154 101.144 142.012 101.144Z" fill="#3B6C65"/>
<path d="M177.353 152.423H54.1738V154.397H177.353V152.423Z" fill="#3B6C65"/>
<path d="M177.352 154.396H204.08V152.423H177.352V154.396Z" fill="#3B6C65"/>
<path opacity="0.2" d="M177.352 154.396H204.08V152.423H177.352V154.396Z" fill="black"/>
<path d="M195.154 156.509H63.1011L58.6855 154.396H199.57L195.154 156.509Z" fill="#3B6C65"/>
<path opacity="0.6" d="M195.154 156.509H63.1011L58.6855 154.396H199.57L195.154 156.509Z" fill="white"/>
<path d="M67.0898 156.509V219.466H68.7816L70.9096 156.509H67.0898Z" fill="#3B6C65"/>
<path d="M87.0625 156.509V219.466H88.7543L90.8823 156.509H87.0625Z" fill="#3B6C65"/>
<path d="M195.154 156.509V219.466H193.467L191.334 156.509H195.154Z" fill="#3B6C65"/>
<path d="M175.187 156.509V219.466H173.495L171.367 156.509H175.187Z" fill="#3B6C65"/>
<path d="M134.989 128.525L129.43 151.173L129.275 152.423H167.622L167.782 151.173L173.336 128.525H134.989Z" fill="#3B6C65"/>
<path opacity="0.3" d="M134.989 128.525L129.43 151.173L129.275 152.423H167.622L167.782 151.173L173.336 128.525H134.989Z" fill="black"/>
<path d="M172.16 128.525H133.808L128.254 151.173H166.6L172.16 128.525Z" fill="#3B6C65"/>
<path d="M165.787 150.135L170.841 129.562H134.623L129.574 150.135H165.787Z" fill="white"/>
<path d="M156.611 151.173L156.451 152.423H114.227L114.381 151.173H156.611Z" fill="#3B6C65"/>
<path opacity="0.6" d="M156.611 151.173L156.451 152.423H114.227L114.381 151.173H156.611Z" fill="white"/>
<path d="M76.8423 148.305C76.8156 147.495 76.4983 146.721 75.9484 146.126C75.3986 145.53 74.6527 145.152 73.8472 145.06V144.448C73.8465 144.413 73.8387 144.378 73.8244 144.346C73.8101 144.313 73.7894 144.284 73.7636 144.26C73.7379 144.236 73.7075 144.217 73.6744 144.204C73.6412 144.192 73.6059 144.186 73.5705 144.188H67.8249C67.7893 144.186 67.7537 144.192 67.7203 144.204C67.6868 144.217 67.6561 144.235 67.6299 144.26C67.6037 144.284 67.5826 144.313 67.5676 144.345C67.5527 144.378 67.5443 144.413 67.543 144.448V152.428H73.8472V151.556C74.6541 151.465 75.4012 151.087 75.9514 150.49C76.5016 149.893 76.8179 149.117 76.8423 148.305ZM73.8472 150.524V146.092C74.3788 146.171 74.8646 146.438 75.2158 146.844C75.567 147.251 75.7603 147.771 75.7603 148.308C75.7603 148.845 75.567 149.365 75.2158 149.772C74.8646 150.179 74.3788 150.445 73.8472 150.524Z" fill="#3B6C65"/>
<path d="M184.371 152.423H189.712L188.132 140.725H184.371V152.423Z" fill="#263238"/>
<path d="M176.539 152.423H186.658L188.536 138.729H178.422L176.539 152.423Z" fill="#3B6C65"/>
<path opacity="0.3" d="M176.539 152.423H186.658L188.536 138.729H178.422L176.539 152.423Z" fill="black"/>
<path d="M175.188 152.423H185.716L187.599 138.729H177.071L175.188 152.423Z" fill="#3B6C65"/>
<path opacity="0.4" d="M184.784 151.343L186.37 139.81H178.001L176.416 151.343H184.784Z" fill="white"/>
<path d="M105.091 132.209L104.655 132.677L104.187 133.209C103.873 133.571 103.559 133.938 103.261 134.316C102.665 135.071 102.091 135.843 101.553 136.635C100.484 138.168 99.592 139.817 98.8934 141.551C98.568 142.375 98.3152 143.226 98.138 144.094C98.0529 144.583 97.9997 144.796 97.9731 145.004C97.9436 145.169 97.9436 145.338 97.9731 145.504C98.0622 145.764 98.2022 146.004 98.3849 146.209C98.5676 146.414 98.7892 146.582 99.0371 146.701C99.3962 146.922 99.7735 147.112 100.165 147.27C100.371 147.355 100.583 147.435 100.803 147.509C101.005 147.584 101.261 147.658 101.42 147.722V150.653C101.048 150.707 100.777 150.749 100.463 150.77C100.149 150.792 99.8457 150.797 99.5318 150.77C98.8865 150.757 98.2445 150.675 97.6166 150.526C96.9092 150.36 96.2312 150.087 95.6057 149.717C94.8702 149.287 94.2382 148.7 93.7543 147.999C93.2561 147.252 92.9258 146.406 92.7861 145.52C92.7504 145.312 92.7274 145.102 92.7169 144.892C92.7063 144.69 92.7063 144.487 92.7169 144.285V143.987C92.7109 143.908 92.7109 143.828 92.7169 143.748L92.7595 143.28C92.8955 142.064 93.1522 140.865 93.5255 139.7C94.246 137.462 95.2603 135.329 96.542 133.358C97.1577 132.39 97.8273 131.458 98.5476 130.565C98.9041 130.118 99.2711 129.682 99.6542 129.251C99.8404 129.033 100.037 128.82 100.239 128.607C100.442 128.395 100.628 128.208 100.904 127.942L105.091 132.209Z" fill="#B55B52"/>
<path d="M100.361 147.658L102.84 145.839L104.25 150.935C104.25 150.935 102.053 151.749 100.377 150.653L100.361 147.658Z" fill="#B55B52"/>
<path d="M106.284 144.615L107.252 148.882L104.252 150.935L102.842 145.839L106.284 144.615Z" fill="#B55B52"/>
<path d="M121.961 112.652C121.849 112.966 121.929 113.28 122.136 113.349C122.344 113.418 122.599 113.227 122.706 112.913C122.812 112.599 122.737 112.28 122.535 112.21C122.333 112.141 122.072 112.333 121.961 112.652Z" fill="#263238"/>
<path d="M121.902 113.27C121.943 114.365 122.135 115.45 122.471 116.493C122.203 116.57 121.922 116.588 121.646 116.546C121.371 116.504 121.108 116.402 120.875 116.249L121.902 113.27Z" fill="#A02724"/>
<path d="M121.45 110.514C121.49 110.527 121.533 110.527 121.573 110.514C121.806 110.436 122.055 110.415 122.298 110.452C122.541 110.489 122.772 110.583 122.972 110.727C123.012 110.756 123.062 110.769 123.111 110.763C123.16 110.757 123.205 110.733 123.237 110.696C123.269 110.658 123.286 110.61 123.284 110.56C123.282 110.511 123.262 110.464 123.227 110.429C122.978 110.243 122.687 110.119 122.38 110.068C122.073 110.017 121.758 110.041 121.461 110.136C121.422 110.15 121.389 110.175 121.365 110.208C121.341 110.241 121.328 110.281 121.328 110.323C121.328 110.364 121.341 110.404 121.365 110.437C121.389 110.47 121.422 110.495 121.461 110.509L121.45 110.514Z" fill="#263238"/>
<path d="M110.294 113.812C110.89 116.839 111.481 122.387 109.363 124.409C109.363 124.409 110.193 127.479 115.822 127.479C122.009 127.479 118.78 124.409 118.78 124.409C115.401 123.6 115.487 121.095 116.077 118.743L110.294 113.812Z" fill="#B55B52"/>
<path d="M108.555 125.463C108.108 124.49 107.624 123.378 108.629 123.032C109.741 122.649 115.827 122.255 117.923 122.973C118.201 123.049 118.46 123.179 118.686 123.355C118.912 123.532 119.101 123.752 119.241 124.003C119.382 124.254 119.47 124.53 119.503 124.815C119.535 125.101 119.51 125.39 119.429 125.665L108.555 125.463Z" fill="#263238"/>
<path d="M129.809 130.655C131.112 133.001 132.511 135.417 133.926 137.736C135.341 140.056 136.826 142.365 138.411 144.471C138.805 145.003 139.214 145.509 139.619 146.014C139.821 146.275 140.034 146.488 140.241 146.727L140.55 147.078L140.629 147.169L140.667 147.211L140.704 147.259C140.952 147.499 141.25 147.68 141.576 147.791C142.079 147.966 142.598 148.092 143.125 148.169C145.711 148.43 148.318 148.399 150.897 148.078L151.706 150.898C150.987 151.217 150.317 151.43 149.604 151.696C148.891 151.962 148.189 152.137 147.476 152.318C145.965 152.697 144.416 152.904 142.859 152.935C141.984 152.95 141.111 152.862 140.257 152.675C139.209 152.467 138.22 152.027 137.363 151.387L137.007 151.095L136.921 151.02L136.868 150.967L136.767 150.866L136.352 150.456C136.081 150.185 135.783 149.924 135.538 149.637C135.006 149.078 134.506 148.52 134.043 147.945C132.185 145.699 130.47 143.338 128.909 140.875C128.133 139.662 127.384 138.437 126.664 137.199C125.941 135.949 125.244 134.725 124.568 133.406L129.809 130.655Z" fill="#B55B52"/>
<path d="M101.952 125.345C98.0686 126.234 93.6211 136.815 93.6211 136.815L101.415 142.135C103.353 139.355 105.073 136.43 106.559 133.384C108.863 128.564 105.921 124.436 101.952 125.345Z" fill="white"/>
<path opacity="0.2" d="M104.73 132.092L101.049 141.902L101.411 142.157C101.411 142.157 103.007 139.918 104.73 136.896V132.092Z" fill="black"/>
<path d="M125.148 125.553C125.148 125.553 129.553 130.533 125.393 161.336H103.246C103.097 157.936 105.23 141.359 101.953 125.341C104.401 124.869 106.876 124.557 109.364 124.404C112.5 124.221 115.644 124.221 118.78 124.404C120.93 124.621 123.059 125.005 125.148 125.553Z" fill="white"/>
<path opacity="0.2" d="M122.684 134.464C123.261 137.96 124.772 141.235 127.057 143.944C127.147 141.96 127.184 140.178 127.179 138.587L122.684 134.464Z" fill="black"/>
<path d="M120.765 128.916C120.233 132.836 127.947 142.849 127.947 142.849L135.708 137.529C135.708 137.529 133.554 132.012 129.931 128.394C125.803 124.245 121.371 124.649 120.765 128.916Z" fill="white"/>
<path d="M150.023 148.105L153.184 146.807L156.434 149.264C156.434 149.264 153.332 152.01 150.513 150.94L150.023 148.105Z" fill="#B55B52"/>
<path d="M155.269 146.679L157.653 148.381L156.418 149.264L153.168 146.806L155.269 146.679Z" fill="#B55B52"/>
<path d="M111.672 108.322C110.566 112.28 109.715 114.541 110.981 117.206C112.88 121.223 118.28 121.111 120.557 117.568C122.6 114.376 124.068 108.439 120.812 105.582C120.097 104.947 119.232 104.505 118.299 104.299C117.365 104.093 116.394 104.129 115.478 104.403C114.562 104.678 113.732 105.182 113.066 105.868C112.4 106.554 111.92 107.398 111.672 108.322Z" fill="#B55B52"/>
<path d="M120.098 108.364C118.502 112.908 116.624 117.898 112.038 116.951C109.081 116.339 108.846 111.578 107.782 109.412C106.841 107.513 106.899 103.693 108.846 103.645C107.974 102.379 112.384 97.7456 115.395 100.193C116.167 99.1288 121.726 95.9953 125.844 100.97C129.722 105.672 127.823 109.593 120.098 108.364Z" fill="#263238"/>
<path d="M116.508 111.269C116.401 112.284 116.629 113.306 117.157 114.179C117.865 115.318 118.902 114.882 119.285 113.717C119.626 112.653 119.663 110.817 118.679 110.078C117.694 109.338 116.657 110.046 116.508 111.269Z" fill="#B55B52"/>
<path d="M150.492 216.462C151.024 216.462 151.556 216.387 151.71 216.148C151.754 216.085 151.778 216.01 151.778 215.933C151.778 215.855 151.754 215.78 151.71 215.717C151.639 215.605 151.529 215.523 151.402 215.488C150.71 215.302 149.274 216.127 149.204 216.164C149.186 216.173 149.172 216.188 149.163 216.206C149.154 216.225 149.152 216.245 149.157 216.265C149.16 216.284 149.169 216.302 149.182 216.316C149.195 216.33 149.212 216.34 149.231 216.345C149.647 216.421 150.069 216.46 150.492 216.462ZM151.152 215.659C151.213 215.65 151.276 215.65 151.338 215.659C151.378 215.666 151.416 215.682 151.449 215.706C151.482 215.73 151.51 215.761 151.529 215.797C151.598 215.919 151.577 215.978 151.529 216.01C151.338 216.281 150.29 216.286 149.518 216.175C150.024 215.898 150.579 215.723 151.152 215.659Z" fill="#3B6C65"/>
<path d="M149.242 216.344H149.285C149.785 216.121 150.774 215.227 150.694 214.748C150.694 214.636 150.599 214.503 150.333 214.471C150.237 214.463 150.141 214.474 150.05 214.503C149.958 214.532 149.874 214.579 149.801 214.642C149.269 215.073 149.162 216.19 149.157 216.238C149.155 216.255 149.157 216.272 149.164 216.288C149.17 216.304 149.181 216.317 149.194 216.328C149.209 216.337 149.225 216.342 149.242 216.344ZM150.253 214.668H150.311C150.487 214.668 150.498 214.759 150.503 214.78C150.551 215.062 149.875 215.764 149.364 216.067C149.407 215.599 149.593 215.155 149.896 214.796C149.996 214.711 150.122 214.666 150.253 214.668Z" fill="#3B6C65"/>
<path d="M144.428 216.248H148.567L149.508 206.656H145.369L144.428 216.248Z" fill="#B55B52"/>
<path d="M148.8 215.77H144.284C144.2 215.77 144.12 215.799 144.055 215.851C143.99 215.903 143.945 215.976 143.927 216.057L143.108 219.717C143.087 219.806 143.086 219.899 143.107 219.988C143.127 220.078 143.167 220.161 143.225 220.233C143.282 220.304 143.355 220.361 143.438 220.4C143.521 220.439 143.612 220.458 143.704 220.456C145.332 220.43 147.688 220.334 149.737 220.334C152.136 220.334 154.205 220.462 157.014 220.462C158.717 220.462 159.19 218.743 158.477 218.589C155.238 217.882 152.594 217.807 149.795 216.078C149.498 215.886 149.154 215.779 148.8 215.77Z" fill="#263238"/>
<path opacity="0.2" d="M149.502 206.662L149.023 211.604H144.879L145.363 206.662H149.502Z" fill="black"/>
<path d="M133.899 216.456C134.075 216.479 134.253 216.467 134.424 216.42C134.595 216.374 134.755 216.294 134.894 216.185C134.943 216.118 134.969 216.037 134.969 215.953C134.969 215.87 134.943 215.789 134.894 215.722C134.863 215.663 134.819 215.613 134.765 215.573C134.712 215.534 134.651 215.506 134.586 215.493C133.979 215.35 132.835 216.132 132.787 216.164C132.772 216.175 132.76 216.191 132.753 216.208C132.745 216.226 132.743 216.246 132.745 216.265C132.749 216.283 132.758 216.3 132.771 216.313C132.784 216.326 132.801 216.335 132.819 216.339C133.174 216.416 133.536 216.456 133.899 216.456ZM134.431 215.669C134.47 215.663 134.51 215.663 134.548 215.669C134.586 215.674 134.623 215.689 134.654 215.711C134.685 215.733 134.711 215.762 134.729 215.796C134.82 215.961 134.766 216.025 134.729 216.052C134.554 216.281 133.708 216.286 133.085 216.185C133.486 215.914 133.942 215.737 134.421 215.669H134.431Z" fill="#3B6C65"/>
<path d="M132.845 216.344H132.888C133.319 216.11 134.149 215.206 134.058 214.748C134.045 214.675 134.006 214.609 133.948 214.561C133.891 214.513 133.819 214.487 133.744 214.487C133.67 214.478 133.595 214.485 133.523 214.507C133.452 214.529 133.386 214.566 133.329 214.615C132.851 215.009 132.749 216.211 132.744 216.254C132.744 216.271 132.748 216.289 132.757 216.305C132.765 216.321 132.777 216.334 132.792 216.344C132.809 216.349 132.828 216.349 132.845 216.344ZM133.68 214.668H133.723C133.851 214.668 133.861 214.743 133.867 214.769C133.92 215.041 133.388 215.727 132.962 216.051C132.991 215.579 133.161 215.127 133.452 214.753C133.515 214.699 133.596 214.668 133.68 214.668Z" fill="#3B6C65"/>
<path d="M128.1 216.248H132.239L134.319 206.656H130.18L128.1 216.248Z" fill="#B55B52"/>
<path d="M132.531 215.77H127.881C127.799 215.77 127.719 215.799 127.655 215.852C127.591 215.904 127.547 215.976 127.53 216.057L126.711 219.717C126.692 219.807 126.693 219.9 126.715 219.989C126.736 220.079 126.778 220.162 126.836 220.233C126.894 220.304 126.968 220.361 127.051 220.4C127.134 220.438 127.225 220.458 127.317 220.457C128.94 220.43 129.733 220.334 131.775 220.334C133.036 220.334 134.648 220.462 136.388 220.462C138.127 220.462 138.351 218.744 137.638 218.589C134.446 217.892 134.228 216.93 133.206 216.009C133.018 215.85 132.778 215.764 132.531 215.77Z" fill="#263238"/>
<g opacity="0.2">
<path d="M130.18 206.662H134.319L133.244 211.604H129.105L130.18 206.662Z" fill="black"/>
</g>
<path d="M125.392 161.341C125.392 161.341 156.407 164.623 156.067 180.445C155.847 190.381 153.936 200.208 150.417 209.503H144.267C144.267 209.503 144.581 199.464 144.373 183.265C144.31 178.407 134.505 176.806 124.924 176.242C120.866 175.987 116.961 174.603 113.648 172.246C110.335 169.89 107.747 166.654 106.176 162.905L105.521 161.341H125.392Z" fill="#3B6C65"/>
<path d="M151.922 207.854C151.954 207.854 151.523 210.764 151.523 210.764H143.011L142.777 208.167L151.922 207.854Z" fill="#3B6C65"/>
<path d="M118.754 161.341C118.754 161.341 141.236 168.789 141.805 178.024C142.869 195.016 134.512 209.503 134.512 209.503H128.303C128.303 209.503 130.66 202.321 131.495 186.925C132.559 167.586 96.4736 186.893 103.235 161.341H118.754Z" fill="#3B6C65"/>
<path d="M136.388 207.854C136.42 207.854 135.606 210.764 135.606 210.764H127.094L127.248 208.167L136.388 207.854Z" fill="#3B6C65"/>
<path d="M134.969 177.631H100.389C100.389 176.584 100.805 175.58 101.545 174.84C102.285 174.099 103.289 173.684 104.336 173.684H131.021C132.068 173.684 133.072 174.099 133.812 174.84C134.553 175.58 134.969 176.584 134.969 177.631Z" fill="#3B6C65"/>
<path d="M101.989 177.625L96.7754 221.334H97.8926L104.505 177.625H101.989Z" fill="#3B6C65"/>
<path opacity="0.4" d="M101.989 177.625L96.7754 221.334H97.8926L104.505 177.625H101.989Z" fill="black"/>
<path d="M108.964 177.625L108.863 221.334H109.975L111.481 177.625H108.964Z" fill="#3B6C65"/>
<path opacity="0.4" d="M108.964 177.625L108.863 221.334H109.975L111.481 177.625H108.964Z" fill="black"/>
<path d="M133.367 177.625L138.58 221.334H137.463L130.855 177.625H133.367Z" fill="#3B6C65"/>
<path opacity="0.4" d="M133.367 177.625L138.58 221.334H137.463L130.855 177.625H133.367Z" fill="black"/>
<path d="M126.393 177.625L126.494 221.334H125.383L123.877 177.625H126.393Z" fill="#3B6C65"/>
<path opacity="0.4" d="M126.393 177.625L126.494 221.334H125.383L123.877 177.625H126.393Z" fill="black"/>
</svg>
