<svg width="623" height="423" viewBox="0 0 623 423" fill="none" xmlns="http://www.w3.org/2000/svg">
<g opacity="0.2">
<path d="M705 423H0V-0.000274658H705V423Z" fill="#0B0B22"/>
<path d="M360.927 62.326C340.706 62.326 321.092 66.286 302.628 74.0953C284.794 81.6392 268.776 92.4381 255.02 106.194C241.265 119.949 230.466 135.966 222.923 153.801C215.113 172.265 211.153 191.879 211.153 212.099C211.153 232.319 215.113 251.933 222.923 270.397C230.466 288.232 241.265 304.25 255.02 318.005C268.776 331.76 284.794 342.559 302.628 350.103C321.092 357.912 340.707 361.872 360.927 361.872C381.146 361.872 400.761 357.912 419.223 350.103C437.059 342.559 453.078 331.76 466.831 318.005C480.588 304.25 491.386 288.232 498.93 270.397C506.741 251.933 510.7 232.319 510.7 212.099C510.7 191.879 506.741 172.265 498.93 153.801C491.386 135.966 480.588 119.949 466.831 106.194C453.078 92.4381 437.059 81.6392 419.223 74.0953C400.761 66.286 381.146 62.326 360.927 62.326ZM360.927 364.615C340.338 364.615 320.363 360.583 301.56 352.629C283.398 344.947 267.087 333.951 253.081 319.944C239.074 305.938 228.078 289.627 220.396 271.466C212.443 252.662 208.41 232.688 208.41 212.099C208.41 191.51 212.443 171.536 220.396 152.732C228.078 134.571 239.074 118.26 253.081 104.254C267.087 90.2474 283.398 79.2509 301.56 71.569C320.363 63.6157 340.338 59.5829 360.927 59.5829C381.515 59.5829 401.489 63.6157 420.294 71.569C438.454 79.2509 454.764 90.2474 468.773 104.254C482.779 118.26 493.776 134.571 501.456 152.732C509.41 171.536 513.444 191.51 513.444 212.099C513.444 232.688 509.41 252.662 501.456 271.466C493.776 289.627 482.779 305.938 468.773 319.944C454.764 333.951 438.454 344.947 420.294 352.629C401.489 360.583 381.515 364.615 360.927 364.615Z" fill="#0FAE96"/>
<path d="M492.448 213.917L490.525 213.894C490.533 213.349 490.537 212.804 490.537 212.259H492.459C492.459 212.812 492.456 213.365 492.448 213.917Z" fill="#0FAE96"/>
<path d="M360.926 344.042C343.114 344.042 325.835 340.554 309.567 333.673C293.855 327.027 279.745 317.514 267.628 305.397C255.51 293.28 245.997 279.169 239.352 263.457C232.471 247.19 228.982 229.91 228.982 212.099C228.982 194.287 232.471 177.008 239.352 160.74C245.997 145.028 255.51 130.917 267.628 118.8C279.745 106.684 293.855 97.1698 309.567 90.5244C325.835 83.6436 343.114 80.1548 360.926 80.1548C378.736 80.1548 396.018 83.6436 412.286 90.5244C427.996 97.1698 442.107 106.684 454.224 118.8C466.341 130.917 475.853 145.028 482.499 160.74C489.38 177.008 492.871 194.287 492.871 212.099H490.126C490.126 194.656 486.71 177.736 479.973 161.808C473.466 146.424 464.15 132.606 452.282 120.74C440.418 108.874 426.601 99.5582 411.215 93.0507C395.287 86.314 378.367 82.8983 360.926 82.8983C343.483 82.8983 326.563 86.314 310.636 93.0507C295.251 99.5582 281.433 108.874 269.567 120.74C257.702 132.606 248.385 146.424 241.878 161.808C235.141 177.736 231.725 194.656 231.725 212.099C231.725 229.541 235.141 246.461 241.878 262.389C248.385 277.774 257.702 291.591 269.567 303.457C281.433 315.323 295.251 324.639 310.636 331.146C326.563 337.883 343.483 341.299 360.926 341.299V344.042Z" fill="#0FAE96"/>
<path d="M492.201 220.613L490.282 220.493C490.35 219.4 490.406 218.291 490.448 217.196L492.367 217.267C492.325 218.378 492.269 219.504 492.201 220.613ZM491.613 227.288L489.705 227.071C489.829 225.989 489.939 224.884 490.037 223.786L491.948 223.954C491.85 225.067 491.741 226.189 491.613 227.288ZM490.693 233.924L488.8 233.611C488.977 232.533 489.143 231.435 489.294 230.347L491.194 230.611C491.043 231.715 490.874 232.829 490.693 233.924ZM489.437 240.505L487.56 240.098C487.793 239.019 488.016 237.931 488.219 236.863L490.105 237.223C489.897 238.307 489.675 239.412 489.437 240.505ZM487.846 247.014L485.991 246.511C486.278 245.454 486.557 244.379 486.817 243.314L488.679 243.77C488.415 244.85 488.137 245.942 487.846 247.014ZM485.92 253.445L484.095 252.848C484.438 251.803 484.77 250.739 485.087 249.686L486.923 250.237C486.606 251.306 486.267 252.385 485.92 253.445ZM483.665 259.778L481.874 259.087C482.27 258.059 482.655 257.014 483.024 255.982L484.83 256.626C484.461 257.673 484.069 258.733 483.665 259.778ZM481.09 265.984L479.337 265.202C479.782 264.197 480.223 263.174 480.642 262.162L482.417 262.897C481.991 263.925 481.543 264.963 481.09 265.984ZM478.202 272.047L476.491 271.178C476.988 270.196 477.482 269.196 477.95 268.209L479.684 269.034C479.209 270.037 478.708 271.05 478.202 272.047ZM475.013 277.953L473.347 276.997C473.893 276.048 474.432 275.076 474.956 274.108L476.645 275.02C476.114 276.003 475.567 276.99 475.013 277.953ZM471.529 283.687L469.912 282.649C470.508 281.727 471.096 280.783 471.665 279.845L473.305 280.843C472.728 281.794 472.129 282.751 471.529 283.687ZM467.759 289.235L466.199 288.116C466.839 287.221 467.477 286.309 468.091 285.406L469.678 286.485C469.056 287.401 468.412 288.326 467.759 289.235ZM463.714 294.584L462.214 293.388C462.896 292.532 463.578 291.654 464.238 290.777L465.773 291.936C465.098 292.825 464.408 293.716 463.714 294.584ZM459.409 299.72L457.969 298.45C458.692 297.63 459.416 296.788 460.121 295.946L461.595 297.18C460.879 298.034 460.144 298.888 459.409 299.72ZM454.851 304.632L453.475 303.29C454.24 302.506 455.005 301.701 455.752 300.898L457.158 302.205C456.404 303.02 455.627 303.836 454.851 304.632ZM450.051 309.305L448.747 307.896C449.546 307.156 450.353 306.391 451.141 305.623L452.479 306.999C451.68 307.778 450.862 308.554 450.051 309.305ZM445.026 313.731L443.793 312.258C444.634 311.553 445.478 310.831 446.296 310.109L447.567 311.55C446.734 312.282 445.878 313.016 445.026 313.731ZM439.782 317.896L438.628 316.363C439.503 315.703 440.381 315.023 441.233 314.343L442.428 315.846C441.561 316.536 440.672 317.226 439.782 317.896ZM434.342 321.79L433.263 320.201C434.172 319.586 435.081 318.951 435.97 318.316L437.086 319.878C436.185 320.523 435.262 321.166 434.342 321.79ZM428.713 325.403L427.714 323.761C428.645 323.196 429.588 322.609 430.511 322.016L431.548 323.632C430.609 324.234 429.655 324.83 428.713 325.403ZM422.907 328.726L421.998 327.035C422.956 326.518 423.925 325.98 424.875 325.435L425.829 327.101C424.864 327.654 423.88 328.201 422.907 328.726ZM416.947 331.748L416.121 330.014C417.112 329.543 418.108 329.056 419.077 328.562L419.948 330.275C418.96 330.775 417.949 331.27 416.947 331.748ZM410.843 334.463L410.108 332.69C411.118 332.271 412.136 331.834 413.131 331.39L413.912 333.145C412.901 333.595 411.868 334.038 410.843 334.463ZM404.603 336.868L403.959 335.059C404.984 334.693 406.029 334.307 407.054 333.911L407.744 335.703C406.703 336.105 405.644 336.496 404.603 336.868ZM398.232 338.954L397.682 337.115C398.73 336.802 399.789 336.47 400.833 336.127L401.433 337.952C400.37 338.3 399.295 338.637 398.232 338.954ZM391.77 340.713L391.314 338.848C392.381 338.587 393.455 338.308 394.507 338.023L395.012 339.875C393.945 340.165 392.852 340.447 391.77 340.713ZM385.222 342.141L384.86 340.254C385.938 340.049 387.024 339.826 388.094 339.592L388.505 341.468C387.416 341.706 386.311 341.932 385.222 342.141ZM378.609 343.232L378.345 341.33C379.427 341.18 380.524 341.012 381.61 340.834L381.923 342.728C380.822 342.91 379.71 343.079 378.609 343.232ZM371.954 343.987L371.786 342.074C372.873 341.978 373.979 341.867 375.071 341.744L375.287 343.651C374.178 343.777 373.057 343.89 371.954 343.987ZM365.271 344.405L365.199 342.487C366.292 342.446 367.4 342.391 368.493 342.322L368.612 344.238C367.504 344.308 366.38 344.364 365.271 344.405Z" fill="#0FAE96"/>
<path d="M360.217 344.501V342.581C360.762 342.581 361.307 342.577 361.851 342.571L361.874 344.491C361.322 344.497 360.77 344.501 360.217 344.501Z" fill="#0FAE96"/>
<path d="M355.433 71.3705L355.36 69.4519C356.454 69.4097 357.566 69.3799 358.666 69.3625L358.696 71.2826C357.611 71.2996 356.513 71.329 355.433 71.3705ZM348.909 71.7705L348.747 69.8572C349.843 69.7644 350.955 69.6833 352.051 69.6162L352.168 71.5326C351.087 71.5993 349.99 71.6789 348.909 71.7705ZM342.409 72.4713L342.159 70.5674C343.246 70.4249 344.353 70.2922 345.449 70.1742L345.654 72.083C344.574 72.2003 343.482 72.3303 342.409 72.4713ZM335.949 73.473L335.611 71.5827C336.698 71.3882 337.797 71.205 338.879 71.0372L339.173 72.935C338.106 73.0998 337.021 73.2811 335.949 73.473ZM329.543 74.7744L329.117 72.9019C330.185 72.6591 331.275 72.4242 332.356 72.2044L332.739 74.0864C331.672 74.3032 330.596 74.5347 329.543 74.7744ZM323.206 76.3733L322.692 74.523C323.748 74.2304 324.826 73.945 325.895 73.6751L326.365 75.5367C325.31 75.8025 324.247 76.0845 323.206 76.3733ZM316.948 78.267L316.35 76.4427C317.391 76.1004 318.454 75.7652 319.509 75.4455L320.066 77.2834C319.025 77.5986 317.976 77.9296 316.948 78.267ZM310.787 80.451L310.104 78.6569C311.135 78.2633 312.182 77.8787 313.214 77.513L313.855 79.3226C312.838 79.6834 311.806 80.0631 310.787 80.451ZM304.746 82.9162L303.979 81.1556C304.988 80.7164 306.011 80.2848 307.021 79.8727L307.746 81.651C306.75 82.0571 305.741 82.4827 304.746 82.9162ZM298.833 85.6563L297.986 83.9334C298.972 83.4486 299.974 82.969 300.967 82.5095L301.774 84.252C300.795 84.7055 299.806 85.1783 298.833 85.6563ZM293.052 88.6697L292.125 86.9879C293.085 86.4593 294.065 85.9338 295.038 85.4267L295.926 87.1293C294.966 87.6299 293.999 88.1483 293.052 88.6697ZM287.413 91.9493L286.41 90.3127C287.344 89.7393 288.299 89.1693 289.249 88.6169L290.214 90.2765C289.278 90.8213 288.336 91.3846 287.413 91.9493ZM281.931 95.4886L280.852 93.8999C281.763 93.282 282.691 92.6679 283.611 92.0745L284.652 93.6873C283.745 94.2732 282.829 94.879 281.931 95.4886ZM276.616 99.279L275.465 97.742C276.342 97.0852 277.241 96.4277 278.137 95.7898L279.252 97.3533C278.368 97.9825 277.481 98.631 276.616 99.279ZM271.479 103.312L270.258 101.83C271.109 101.129 271.977 100.432 272.838 99.7556L274.024 101.266C273.174 101.933 272.318 102.621 271.479 103.312ZM266.532 107.58L265.245 106.155C266.059 105.418 266.895 104.681 267.727 103.963L268.981 105.417C268.16 106.125 267.336 106.853 266.532 107.58ZM261.786 112.072L260.434 110.708C261.217 109.932 262.017 109.157 262.813 108.404L264.133 109.798C263.348 110.542 262.558 111.307 261.786 112.072ZM257.25 116.78L255.837 115.48C256.585 114.666 257.349 113.855 258.108 113.067L259.491 114.4C258.742 115.177 257.988 115.977 257.25 116.78ZM252.935 121.694L251.463 120.46C252.166 119.622 252.892 118.775 253.622 117.945L255.064 119.212C254.345 120.031 253.628 120.867 252.935 121.694ZM248.85 126.803L247.323 125.638C247.989 124.766 248.675 123.887 249.364 123.025L250.864 124.224C250.184 125.074 249.507 125.942 248.85 126.803ZM245.006 132.097L243.426 131.006C244.049 130.104 244.695 129.194 245.344 128.3L246.897 129.428C246.257 130.31 245.62 131.208 245.006 132.097ZM241.409 137.566L239.781 136.548C240.361 135.62 240.963 134.68 241.571 133.755L243.176 134.81C242.576 135.723 241.981 136.65 241.409 137.566ZM238.069 143.198L236.395 142.257C236.932 141.302 237.49 140.335 238.054 139.383L239.706 140.362C239.149 141.301 238.598 142.255 238.069 143.198ZM234.993 148.981L233.277 148.119C233.769 147.14 234.282 146.148 234.802 145.17L236.497 146.071C235.984 147.036 235.479 148.015 234.993 148.981ZM232.19 154.904L230.436 154.124C230.883 153.119 231.349 152.103 231.821 151.104L233.557 151.926C233.091 152.911 232.632 153.913 232.19 154.904ZM229.666 160.954L227.877 160.256C228.277 159.231 228.695 158.194 229.12 157.175L230.893 157.914C230.473 158.919 230.06 159.943 229.666 160.954ZM227.428 167.119L225.608 166.506C225.962 165.455 226.332 164.398 226.707 163.367L228.511 164.023C228.141 165.04 227.777 166.082 227.428 167.119ZM225.484 173.372L223.637 172.846C223.938 171.789 224.257 170.721 224.583 169.67L226.417 170.24C226.095 171.276 225.781 172.33 225.484 173.372ZM223.837 179.698L221.968 179.258C222.22 178.187 222.488 177.105 222.765 176.042L224.623 176.526C224.35 177.574 224.086 178.641 223.837 179.698ZM222.488 186.095L220.6 185.743C220.803 184.658 221.02 183.565 221.246 182.493L223.125 182.889C222.902 183.947 222.688 185.025 222.488 186.095ZM221.438 192.547L219.536 192.282C219.686 191.204 219.852 190.102 220.03 189.007L221.925 189.314C221.75 190.395 221.586 191.482 221.438 192.547ZM220.69 199.041L218.777 198.865C218.878 197.772 218.993 196.663 219.119 195.57L221.026 195.79C220.902 196.868 220.789 197.962 220.69 199.041ZM220.241 205.562L218.323 205.475C218.373 204.378 218.437 203.265 218.512 202.168L220.428 202.3C220.353 203.383 220.29 204.48 220.241 205.562ZM220.092 212.099H218.172C218.172 211.004 218.185 209.89 218.21 208.787L220.129 208.83C220.104 209.919 220.092 211.019 220.092 212.099Z" fill="#0FAE96"/>
<path d="M625.046 340.637C609.03 340.637 596.006 353.665 596.006 369.678C596.006 385.692 609.03 398.721 625.046 398.721C641.059 398.721 654.087 385.692 654.087 369.678C654.087 353.665 641.059 340.637 625.046 340.637ZM625.046 401.899C607.276 401.899 592.824 387.445 592.824 369.678C592.824 351.912 607.276 337.457 625.046 337.457C642.809 337.457 657.264 351.912 657.264 369.678C657.264 387.445 642.809 401.899 625.046 401.899Z" fill="#A5A6A9"/>
<path d="M142.447 326.243C142.447 331.18 138.444 335.183 133.507 335.183C128.569 335.183 124.566 331.18 124.566 326.243C124.566 321.305 128.569 317.302 133.507 317.302C138.444 317.302 142.447 321.305 142.447 326.243Z" fill="#0FAE96"/>
<path d="M522.043 308.385C522.043 313.323 518.04 317.325 513.105 317.325C508.166 317.325 504.162 313.323 504.162 308.385C504.162 303.448 508.166 299.445 513.105 299.445C518.04 299.445 522.043 303.448 522.043 308.385Z" fill="#0FAE96"/>
<path d="M611.51 153.854C611.51 156.984 608.973 159.522 605.84 159.522C602.711 159.522 600.174 156.984 600.174 153.854C600.174 150.722 602.711 148.185 605.84 148.185C608.973 148.185 611.51 150.722 611.51 153.854Z" fill="#0FAE96"/>
<path d="M101.077 157.256C101.077 164.576 95.1422 170.511 87.8215 170.511C80.5008 170.511 74.5664 164.576 74.5664 157.256C74.5664 149.935 80.5008 144 87.8215 144C95.1422 144 101.077 149.935 101.077 157.256Z" fill="#0FAE96"/>
<path d="M157.494 145.339C157.494 148.469 154.956 151.008 151.825 151.008C148.694 151.008 146.156 148.469 146.156 145.339C146.156 142.208 148.694 139.67 151.825 139.67C154.956 139.67 157.494 142.208 157.494 145.339Z" fill="#0FAE96"/>
<path d="M350.456 72.4971H262.97L253.734 51.7818H201.73V49.2302H255.39L264.626 69.9459H350.456V72.4971Z" fill="#0FAE96"/>
<path d="M195.235 45.2863C192.358 45.2863 190.016 47.6275 190.016 50.5055C190.016 53.384 192.358 55.7252 195.235 55.7252C198.114 55.7252 200.455 53.384 200.455 50.5055C200.455 47.6275 198.114 45.2863 195.235 45.2863ZM195.235 58.2764C190.951 58.2764 187.465 54.7902 187.465 50.5055C187.465 46.2209 190.951 42.734 195.235 42.734C199.52 42.734 203.007 46.2209 203.007 50.5055C203.007 54.7902 199.52 58.2764 195.235 58.2764Z" fill="#0FAE96"/>
<path d="M486.1 120.962L531.68 147.277L577.26 120.962V68.3325L531.68 42.0179L486.1 68.3325V120.962ZM531.68 149.327L484.328 121.987V67.3077L531.68 39.9669L579.036 67.3077V121.987L578.591 122.244L531.68 149.327Z" fill="#4A4A4B"/>
<path d="M533.703 46.1649L531.423 42.2101L532.52 41.5767L534.8 45.5315L533.703 46.1649ZM528.968 47.3543L527.871 46.7206L530.152 42.7681L531.253 43.4015L528.968 47.3543ZM537.255 52.3138L534.97 48.3613L536.071 47.7272L538.352 51.6797L537.255 52.3138ZM525.421 53.5033L524.32 52.8696L526.604 48.9167L527.701 49.5508L525.421 53.5033ZM540.802 58.4624L538.522 54.5099L539.619 53.8758L541.903 57.8291L540.802 58.4624ZM521.869 59.6523L520.772 59.0185L523.053 55.0656L524.15 55.6994L521.869 59.6523ZM544.354 64.6118L542.073 60.6589L543.17 60.0247L545.451 63.9777L544.354 64.6118ZM518.318 65.8012L517.221 65.1675L519.502 61.2146L520.602 61.8483L518.318 65.8012ZM547.905 70.7603L545.621 66.8078L546.721 66.1737L549.002 70.1266L547.905 70.7603ZM514.77 71.9502L513.669 71.3164L515.954 67.3635L517.051 67.9973L514.77 71.9502ZM551.453 76.9097L549.172 72.9568L550.269 72.3227L552.55 76.276L551.453 76.9097ZM511.219 78.0991L510.122 77.4654L512.403 73.5121L513.5 74.1462L511.219 78.0991ZM555.004 83.0583L552.723 79.1054L553.82 78.4716L556.101 82.4245L555.004 83.0583ZM507.667 84.2481L506.57 83.614L508.851 79.6614L509.952 80.2952L507.667 84.2481ZM558.556 89.2072L556.271 85.2547L557.372 84.6206L559.653 88.5731L558.556 89.2072ZM504.12 90.397L503.019 89.7633L505.304 85.81L506.401 86.4442L504.12 90.397ZM562.103 95.3565L559.822 91.4033L560.919 90.7695L563.2 94.7224L562.103 95.3565ZM500.568 96.546L499.471 95.9119L501.752 91.959L502.849 92.5931L500.568 96.546ZM565.655 101.505L563.374 97.5522L564.471 96.9185L566.752 100.871L565.655 101.505ZM497.017 102.695L495.92 102.061L498.201 98.1079L499.302 98.742L497.017 102.695ZM527.294 102.768L526.774 101.613L530.932 99.7325L531.456 100.888L527.294 102.768ZM537.402 103.373L533.243 101.493L533.764 100.338L537.926 102.218L537.402 103.373ZM520.825 105.693L520.305 104.538L524.463 102.658L524.987 103.812L520.825 105.693ZM543.871 106.298L539.713 104.418L540.237 103.263L544.395 105.143L543.871 106.298ZM569.206 107.654L566.921 103.701L568.018 103.067L570.303 107.02L569.206 107.654ZM514.355 108.618L513.835 107.463L517.994 105.583L518.514 106.738L514.355 108.618ZM493.469 108.844L492.369 108.21L494.653 104.257L495.75 104.891L493.469 108.844ZM550.341 109.224L546.182 107.343L546.706 106.188L550.865 108.068L550.341 109.224ZM507.886 111.543L507.366 110.388L511.524 108.508L512.044 109.663L507.886 111.543ZM556.81 112.149L552.652 110.268L553.176 109.113L557.334 110.993L556.81 112.149ZM572.754 113.803L570.473 109.85L571.57 109.216L573.851 113.169L572.754 113.803ZM501.417 114.468L500.896 113.313L505.055 111.432L505.575 112.588L501.417 114.468ZM489.918 114.993L488.821 114.359L491.102 110.405L492.199 111.04L489.918 114.993ZM563.279 115.074L559.121 113.193L559.645 112.038L563.803 113.918L563.279 115.074ZM494.947 117.393L494.423 116.238L498.585 114.358L499.106 115.513L494.947 117.393ZM569.749 117.998L565.591 116.118L566.115 114.963L570.273 116.844L569.749 117.998ZM488.478 120.318L487.954 119.163L492.116 117.283L492.636 118.438L488.478 120.318ZM576.218 120.924L572.06 119.043L572.584 117.888L576.007 119.436L574.024 115.999L575.121 115.365L577.402 119.318L576.674 119.738L576.742 119.768L576.218 120.924ZM486.08 121.402L485.27 120.508L487.55 116.555L488.651 117.189L486.367 121.141L485.959 120.907L486.167 121.363L486.08 121.402Z" fill="#4A4A4B"/>
<path d="M492.116 72.4113L487.954 70.5311L488.478 69.3756L492.636 71.2561L492.116 72.4113ZM487.55 73.1393L485.27 69.1868L486.08 68.2917L486.167 68.3309L485.959 68.7875L486.367 68.5526L488.651 72.5051L487.55 73.1393ZM575.121 74.3287L574.024 73.695L576.007 70.2586L572.584 71.8062L572.06 70.651L576.218 68.7705L576.742 69.926L576.674 69.9566L577.402 70.3762L575.121 74.3287ZM566.115 74.731L565.591 73.5759L569.749 71.6957L570.273 72.8509L566.115 74.731ZM498.585 75.3364L494.423 73.4563L494.947 72.3008L499.106 74.1813L498.585 75.3364ZM559.645 77.6562L559.121 76.501L563.279 74.6205L563.803 75.776L559.645 77.6562ZM505.055 78.2617L500.896 76.3815L501.417 75.2256L505.575 77.1065L505.055 78.2617ZM491.102 79.2886L488.821 75.3353L489.918 74.7012L492.199 78.6545L491.102 79.2886ZM571.57 80.4781L570.473 79.8439L572.754 75.891L573.851 76.5251L571.57 80.4781ZM553.176 80.5813L552.652 79.4262L556.81 77.5453L557.334 78.7008L553.176 80.5813ZM511.524 81.1868L507.366 79.3059L507.886 78.1508L512.044 80.0313L511.524 81.1868ZM546.706 83.5066L546.182 82.3514L550.341 80.4705L550.865 81.626L546.706 83.5066ZM517.994 84.1116L513.835 82.2311L514.355 81.076L518.514 82.9565L517.994 84.1116ZM494.653 85.4372L492.369 81.4843L493.469 80.8501L495.75 84.8031L494.653 85.4372ZM540.237 86.4313L539.713 85.2762L543.871 83.3957L544.395 84.5508L540.237 86.4313ZM568.018 86.6266L566.921 85.9929L569.206 82.04L570.303 82.6741L568.018 86.6266ZM524.463 87.0368L520.305 85.1563L520.825 84.0012L524.987 85.8813L524.463 87.0368ZM533.764 89.3565L533.243 88.201L537.402 86.3209L537.926 87.476L533.764 89.3565ZM530.932 89.9616L526.774 88.0815L527.294 86.926L531.456 88.8065L530.932 89.9616ZM498.201 91.5861L495.92 87.6333L497.017 86.9991L499.302 90.952L498.201 91.5861ZM564.471 92.776L563.374 92.1419L565.655 88.1889L566.752 88.8231L564.471 92.776ZM501.752 97.7351L499.471 93.7822L500.568 93.1481L502.849 97.1013L501.752 97.7351ZM560.919 98.9246L559.822 98.2908L562.103 94.3379L563.2 94.9716L560.919 98.9246ZM505.304 103.884L503.019 99.9311L504.12 99.297L506.401 103.25L505.304 103.884ZM557.372 105.074L556.271 104.44L558.556 100.487L559.653 101.121L557.372 105.074ZM508.851 110.033L506.57 106.08L507.667 105.446L509.952 109.399L508.851 110.033ZM553.82 111.222L552.723 110.589L555.004 106.636L556.101 107.27L553.82 111.222ZM512.403 116.182L510.122 112.229L511.219 111.595L513.5 115.548L512.403 116.182ZM550.269 117.371L549.172 116.738L551.453 112.785L552.55 113.419L550.269 117.371ZM515.954 122.331L513.669 118.378L514.77 117.744L517.051 121.697L515.954 122.331ZM546.721 123.521L545.621 122.887L547.905 118.934L549.002 119.567L546.721 123.521ZM519.502 128.48L517.221 124.527L518.318 123.893L520.602 127.846L519.502 128.48ZM543.17 129.669L542.073 129.036L544.354 125.083L545.451 125.716L543.17 129.669ZM523.053 134.629L520.772 130.676L521.869 130.042L524.15 133.995L523.053 134.629ZM539.619 135.818L538.522 135.184L540.802 131.232L541.903 131.865L539.619 135.818ZM526.604 140.777L524.32 136.825L525.421 136.191L527.701 140.143L526.604 140.777ZM536.071 141.967L534.97 141.334L537.255 137.381L538.352 138.014L536.071 141.967ZM530.152 146.927L527.871 142.973L528.968 142.34L531.253 146.293L530.152 146.927ZM532.52 148.116L531.423 147.482L533.703 143.529L534.8 144.163L532.52 148.116Z" fill="#4A4A4B"/>
<path opacity="0.2" d="M523.473 40.992C523.473 36.4604 527.148 32.7846 531.68 32.7846C536.215 32.7846 539.887 36.4604 539.887 40.992C539.887 45.5274 536.215 49.2002 531.68 49.2002C527.148 49.2002 523.473 45.5274 523.473 40.992Z" fill="white"/>
<path opacity="0.3" d="M531.68 49.2002C528.962 49.2002 526.553 47.8781 525.056 45.8404C524.709 45.3653 524.411 44.8488 524.17 44.3059C523.721 43.2918 523.473 42.1721 523.473 40.992C523.473 36.4604 527.148 32.7846 531.68 32.7846V49.2002Z" fill="#0FAE96"/>
<path opacity="0.2" d="M522.521 148.302C522.521 143.245 526.623 139.146 531.679 139.146C536.738 139.146 540.836 143.245 540.836 148.302C540.836 153.359 536.738 157.459 531.679 157.459C526.623 157.459 522.521 153.359 522.521 148.302Z" fill="white"/>
<path opacity="0.3" d="M531.679 157.459C526.623 157.459 522.521 153.359 522.521 148.302C522.521 143.245 526.623 139.146 531.679 139.146V157.459Z" fill="#0FAE96"/>
<path opacity="0.2" d="M476.055 68.8697C476.055 63.8125 480.157 59.7126 485.212 59.7126C490.268 59.7126 494.37 63.8125 494.37 68.8697C494.37 73.9268 490.268 78.0264 485.212 78.0264C480.157 78.0264 476.055 73.9268 476.055 68.8697Z" fill="white"/>
<path opacity="0.2" d="M568.125 68.3301C568.125 62.6562 572.724 58.0563 578.398 58.0563C584.072 58.0563 588.672 62.6562 588.672 68.3301C588.672 74.0041 584.072 78.6035 578.398 78.6035C572.724 78.6035 568.125 74.0041 568.125 68.3301Z" fill="white"/>
<path opacity="0.3" d="M578.398 78.6035C576.585 78.6035 574.881 78.1334 573.399 77.3088C573.03 77.1019 572.672 76.8727 572.332 76.6231C571.118 75.7334 570.104 74.5835 569.38 73.2553C569.177 72.8858 568.996 72.5024 568.841 72.1073C568.378 70.9382 568.125 69.664 568.125 68.3301C568.125 62.6562 572.724 58.0563 578.398 58.0563V78.6035Z" fill="#0FAE96"/>
<path opacity="0.2" d="M571.879 120.824C571.879 117.363 574.684 114.557 578.145 114.557C581.609 114.557 584.414 117.363 584.414 120.824C584.414 124.286 581.609 127.092 578.145 127.092C574.684 127.092 571.879 124.286 571.879 120.824Z" fill="white"/>
<path opacity="0.3" d="M578.145 127.092C576.35 127.092 574.733 126.338 573.591 125.129C573.183 124.698 572.836 124.208 572.561 123.674C572.124 122.819 571.879 121.85 571.879 120.824C571.879 117.363 574.684 114.557 578.145 114.557V127.092Z" fill="#0FAE96"/>
<path opacity="0.2" d="M485.214 127.852C481.335 127.852 478.187 124.705 478.187 120.824C478.187 116.944 481.335 113.797 485.214 113.797C489.097 113.797 492.241 116.944 492.241 120.824C492.241 124.705 489.097 127.852 485.214 127.852ZM485.214 106.96C477.557 106.96 471.352 113.168 471.352 120.824C471.352 128.481 477.557 134.688 485.214 134.688C492.871 134.688 499.077 128.481 499.077 120.824C499.077 113.168 492.871 106.96 485.214 106.96Z" fill="white"/>
<path opacity="0.3" d="M485.214 134.688C483.732 134.688 482.304 134.455 480.965 134.025C478.692 133.294 476.675 131.993 475.084 130.29C472.769 127.812 471.352 124.484 471.352 120.824C471.352 113.168 477.557 106.96 485.214 106.96V111.548C480.091 111.548 475.936 115.701 475.936 120.824C475.936 125.948 480.091 130.101 485.214 130.101V134.688Z" fill="#0FAE96"/>
<path opacity="0.3" d="M485.212 78.0264C480.157 78.0264 476.055 73.9268 476.055 68.8697C476.055 63.8125 480.157 59.7126 485.212 59.7126V78.0264Z" fill="#0FAE96"/>
<path d="M257.112 332.994L255.321 331.369L258.113 328.292L259.993 328.403L260.389 328.958L259.525 329.574L259.904 329.918L257.112 332.994ZM262.632 336.269L259.824 332.331L261.793 330.926L264.601 334.865L262.632 336.269ZM252.236 338.367L250.446 336.741L253.696 333.159L255.487 334.785L252.236 338.367ZM266.844 342.176L264.036 338.238L266.005 336.834L268.813 340.772L266.844 342.176ZM305.388 342.58L303.869 340.698L307.633 337.66L309.152 339.542L305.388 342.58ZM247.361 343.739L245.57 342.113L248.82 338.532L250.611 340.157L247.361 343.739ZM299.743 347.137L298.224 345.255L301.988 342.217L303.506 344.099L299.743 347.137ZM271.056 348.083L268.248 344.145L270.217 342.741L273.025 346.679L271.056 348.083ZM242.485 349.111L240.694 347.486L243.945 343.904L245.735 345.529L242.485 349.111ZM294.097 351.693L292.579 349.812L296.342 346.774L297.861 348.656L294.097 351.693ZM275.269 353.99L272.46 350.052L274.43 348.648L277.238 352.586L275.269 353.99ZM237.609 354.484L235.819 352.858L239.069 349.276L240.86 350.902L237.609 354.484ZM288.452 356.25L286.933 354.368L290.697 351.33L292.216 353.212L288.452 356.25ZM184.857 357.239L180.856 354.522L182.214 352.521L186.216 355.238L184.857 357.239ZM177.427 358.639L175.636 357.014L178.887 353.432L180.678 355.057L177.427 358.639ZM232.734 359.856L230.943 358.231L234.193 354.649L235.984 356.274L232.734 359.856ZM279.48 359.897L276.672 355.959L278.641 354.554L281.449 358.493L279.48 359.897ZM282.807 360.807L281.287 358.925L285.051 355.887L286.57 357.769L282.807 360.807ZM190.859 361.315L186.858 358.597L188.216 356.596L192.218 359.313L190.859 361.315ZM172.551 364.011L170.761 362.386L174.011 358.804L175.802 360.429L172.551 364.011ZM227.858 365.228L226.067 363.603L229.317 360.021L231.108 361.647L227.858 365.228ZM196.861 365.39L192.86 362.673L194.218 360.673L198.219 363.39L196.861 365.39ZM167.675 369.382L165.884 367.758L169.135 364.176L170.926 365.801L167.675 369.382ZM202.863 369.466L198.862 366.749L200.22 364.748L204.221 367.465L202.863 369.466ZM222.982 370.601L221.192 368.975L224.442 365.394L226.233 367.019L222.982 370.601ZM208.865 373.542L204.864 370.824L206.222 368.823L210.223 371.54L208.865 373.542ZM162.799 374.755L161.008 373.13L164.259 369.548L166.049 371.173L162.799 374.755ZM218.106 375.973L216.316 374.348L219.567 370.766L221.357 372.392L218.106 375.973ZM214.867 377.616L210.865 374.9L212.224 372.899L216.225 375.616L214.867 377.616ZM157.923 380.127L156.132 378.502L159.383 374.92L161.173 376.545L157.923 380.127ZM153.047 385.499L151.256 383.875L154.506 380.293L156.297 381.918L153.047 385.499ZM148.17 390.872L146.38 389.247L149.631 385.665L151.421 387.29L148.17 390.872ZM143.294 396.244L141.504 394.615L144.754 391.034L146.545 392.663L143.294 396.244Z" fill="#A5A6A9"/>
<path d="M445.149 30.9333C445.149 34.0663 442.612 36.6035 439.483 36.6035C436.35 36.6035 433.812 34.0663 433.812 30.9333C433.812 27.8042 436.35 25.2632 439.483 25.2632C442.612 25.2632 445.149 27.8042 445.149 30.9333Z" fill="#0FAE96"/>
<path d="M178.649 183.027L178.577 183.023C178.536 183.02 178.49 183.016 178.445 183.016C172.372 182.908 167.425 177.868 167.425 171.783C167.425 165.696 172.372 160.657 178.441 160.548C178.487 160.547 178.536 160.545 178.585 160.542L178.649 160.537C184.835 160.537 189.872 165.582 189.872 171.783C189.872 177.983 184.835 183.027 178.649 183.027ZM178.649 159.219C178.596 159.219 178.543 159.222 178.49 159.227L178.423 159.231C171.636 159.352 166.113 164.983 166.113 171.783C166.113 178.581 171.636 184.212 178.423 184.334L178.487 184.338C178.543 184.341 178.596 184.344 178.649 184.344C185.563 184.344 191.188 178.709 191.188 171.783C191.188 164.857 185.563 159.219 178.649 159.219Z" fill="#808083"/>
<path d="M194.461 177.107C194.25 177.154 194.08 177.3 193.997 177.497C193.914 177.695 193.933 177.922 194.046 178.103L197.869 184.131L191.63 190.386L185.613 186.559C185.428 186.443 185.206 186.425 185.006 186.506C184.81 186.59 184.663 186.762 184.617 186.972L183.064 193.939L174.239 193.94L172.682 186.972C172.636 186.762 172.493 186.587 172.293 186.506C172.214 186.472 172.127 186.456 172.041 186.456C171.92 186.456 171.796 186.489 171.69 186.557L165.673 190.386L159.434 184.133L163.253 178.103C163.366 177.922 163.388 177.695 163.305 177.497C163.222 177.3 163.049 177.154 162.838 177.107L155.886 175.551L155.882 166.707L162.838 165.151C163.049 165.104 163.222 164.958 163.305 164.761C163.388 164.562 163.366 164.336 163.253 164.153L159.43 158.125L165.673 151.871L171.69 155.699C171.871 155.816 172.097 155.836 172.293 155.754C172.489 155.67 172.636 155.499 172.682 155.289L174.235 148.316H183.06L184.614 155.287C184.663 155.497 184.81 155.67 185.006 155.752C185.202 155.834 185.428 155.816 185.609 155.699L191.626 151.871L197.869 158.124L194.046 164.153C193.933 164.336 193.914 164.561 193.994 164.759C194.077 164.958 194.25 165.104 194.461 165.151L201.417 166.707V175.55L194.461 177.107ZM202.216 165.536L195.66 164.068L199.26 158.385C199.426 158.124 199.389 157.784 199.17 157.566L192.184 150.567C191.965 150.347 191.626 150.31 191.366 150.477L185.696 154.083L184.229 147.515C184.161 147.213 183.897 147 183.588 147H173.711C173.402 147 173.134 147.213 173.07 147.515L171.603 154.085L165.933 150.477C165.673 150.31 165.334 150.347 165.115 150.567L158.129 157.567C157.91 157.785 157.873 158.125 158.039 158.386L161.639 164.068L155.083 165.537C154.781 165.604 154.566 165.871 154.566 166.18L154.57 176.078C154.57 176.388 154.785 176.655 155.083 176.721L161.639 178.189L158.039 183.873C157.873 184.133 157.91 184.474 158.129 184.692L165.115 191.69C165.334 191.91 165.673 191.946 165.933 191.78L171.603 188.174L173.07 194.743C173.138 195.044 173.405 195.26 173.711 195.26L183.592 195.258C183.897 195.258 184.165 195.044 184.233 194.743L185.696 188.174L191.37 191.78C191.63 191.946 191.969 191.91 192.188 191.69L199.17 184.69C199.389 184.473 199.426 184.131 199.26 183.872L195.66 178.189L202.216 176.719C202.518 176.652 202.733 176.385 202.733 176.077L202.729 166.179C202.729 165.87 202.518 165.603 202.216 165.536Z" fill="#808083"/>
<path d="M362.001 241.095V241.063C361.695 241.072 361.389 241.086 361.079 241.086C360.77 241.086 360.464 241.072 360.157 241.063C360.037 241.059 359.916 241.06 359.795 241.054C359.481 241.04 359.17 241.015 358.858 240.992C351.352 240.411 344.648 236.925 339.881 231.65C339.468 231.194 339.076 230.722 338.694 230.241C334.883 225.439 332.582 219.393 332.512 212.818C332.511 212.716 332.504 212.615 332.504 212.512C332.504 211.996 332.52 211.485 332.547 210.975C332.803 206.181 334.252 201.704 336.591 197.818C337.325 198.832 338.395 199.583 339.637 199.911C337.701 203.194 336.49 206.954 336.244 210.975H340.838C340.748 211.371 340.695 211.782 340.695 212.205C340.695 212.411 340.709 212.617 340.731 212.818H336.199C336.27 218.583 338.308 223.88 341.675 228.07C343.518 226.869 345.478 225.831 347.536 224.985C346.652 222.65 346.011 220.2 345.639 217.661C345.816 217.678 345.996 217.688 346.178 217.688C346.628 217.688 347.065 217.627 347.484 217.525C347.84 219.882 348.437 222.16 349.259 224.331C352.684 223.129 356.347 222.444 360.157 222.362V212.818H351.624C351.647 212.617 351.661 212.411 351.661 212.205C351.661 211.782 351.608 211.371 351.517 210.975H360.157V202.046C356.426 201.966 352.836 201.307 349.473 200.15C348.615 202.303 347.975 204.565 347.576 206.909C347.129 206.791 346.662 206.721 346.178 206.721C346.029 206.721 345.883 206.732 345.738 206.743C346.153 204.233 346.83 201.811 347.746 199.506C346.838 199.14 345.952 198.732 345.084 198.295C345.5 197.837 345.843 197.314 346.086 196.737C346.865 197.124 347.659 197.484 348.471 197.811C350.06 194.351 352.191 191.192 354.756 188.44C351.593 189.272 348.681 190.722 346.141 192.639C345.68 191.452 344.82 190.464 343.724 189.843C347.987 186.571 353.19 184.47 358.858 184.032C359.17 184.008 359.481 183.984 359.795 183.969C359.916 183.964 360.037 183.964 360.157 183.96C360.464 183.95 360.77 183.937 361.079 183.937C361.389 183.937 361.695 183.95 362.001 183.96V183.928L362.047 183.96C362.375 183.972 362.701 183.989 363.027 184.01C370.406 184.511 377.022 187.822 381.815 192.882C382.238 193.328 382.651 193.785 383.044 194.258C385.981 197.785 388.074 202.031 389.043 206.685C388.51 206.51 387.941 206.415 387.35 206.415C386.625 206.415 385.933 206.559 385.299 206.817C384.384 202.922 382.555 199.376 380.045 196.423C379.43 196.821 378.797 197.192 378.157 197.552C378.009 196.941 377.761 196.369 377.427 195.857C377.886 195.595 378.34 195.324 378.785 195.042C375.601 191.816 371.545 189.455 367.003 188.341C368.531 189.968 369.884 191.753 371.086 193.646C370.498 193.844 369.956 194.139 369.477 194.513C367.888 192.027 365.989 189.758 363.818 187.777C363.218 187.711 362.613 187.669 362.001 187.647V200.195C363.845 200.137 365.647 199.915 367.404 199.57C367.487 200.197 367.677 200.791 367.956 201.334C366.021 201.726 364.036 201.978 362.001 202.039V210.975H374.714C374.61 208.663 374.264 206.413 373.71 204.246C374.335 204.145 374.926 203.943 375.462 203.649C376.074 206.004 376.45 208.455 376.558 210.975H381.951C381.899 211.275 381.867 211.582 381.867 211.897C381.867 212.212 381.899 212.518 381.95 212.818H376.589C376.564 215.861 376.144 218.81 375.392 221.625C374.888 221.253 374.321 220.962 373.707 220.778C374.358 218.228 374.721 215.564 374.746 212.818H362.001V222.369C363.904 222.427 365.769 222.637 367.584 222.985C367.233 223.507 366.976 224.095 366.822 224.724C365.249 224.444 363.641 224.265 362.001 224.212V237.376C362.613 237.354 363.218 237.311 363.818 237.245C365.924 235.323 367.78 233.135 369.34 230.736C369.871 231.054 370.459 231.288 371.088 231.411C369.89 233.293 368.525 235.062 367.003 236.682C371.72 235.525 375.912 233.02 379.149 229.599C378.481 229.165 377.792 228.76 377.092 228.372C377.36 227.807 377.538 227.191 377.598 226.541C378.552 227.053 379.482 227.606 380.381 228.201C382.957 225.038 384.769 221.234 385.543 217.068C386.11 217.266 386.716 217.38 387.35 217.38C388.033 217.38 388.683 217.249 389.286 217.021C388.489 222.025 386.394 226.602 383.348 230.389C382.962 230.868 382.565 231.337 382.151 231.79C377.333 237.051 370.578 240.501 363.027 241.012C362.701 241.035 362.375 241.051 362.047 241.062L362.001 241.095ZM360.157 224.206C356.595 224.287 353.169 224.924 349.963 226.038C351.851 230.297 354.597 234.093 357.987 237.201C358.702 237.29 359.425 237.348 360.157 237.376V224.206ZM348.235 226.69C346.364 227.459 344.579 228.396 342.894 229.477C346.055 232.863 350.145 235.371 354.756 236.583C352.062 233.693 349.847 230.355 348.235 226.69ZM360.157 187.647C359.425 187.675 358.702 187.734 357.987 187.823C354.739 190.8 352.082 194.409 350.204 198.452C353.341 199.515 356.684 200.124 360.157 200.202V187.647Z" fill="#C8C9CB"/>
<path d="M387.351 208.471C386.751 208.471 386.194 208.639 385.703 208.912C384.911 209.35 384.316 210.087 384.066 210.975C383.983 211.27 383.924 211.575 383.924 211.897C383.924 212.219 383.983 212.523 384.066 212.818C384.33 213.759 384.981 214.531 385.842 214.959C386.299 215.185 386.808 215.324 387.351 215.324C388.204 215.324 388.976 214.999 389.576 214.482C390.306 213.854 390.779 212.934 390.779 211.897C390.779 210.799 390.251 209.832 389.445 209.204C388.865 208.751 388.144 208.471 387.351 208.471Z" fill="white"/>
<path d="M373.137 222.769C372.82 222.672 372.49 222.603 372.141 222.603C371.259 222.603 370.461 222.948 369.853 223.498C369.368 223.937 369.012 224.508 368.84 225.16C368.765 225.439 368.713 225.728 368.713 226.031C368.713 227.286 369.399 228.375 370.408 228.971C370.919 229.274 371.506 229.459 372.141 229.459C372.181 229.459 372.218 229.448 372.257 229.447C373.599 229.401 374.744 228.587 375.265 227.427C375.457 226.999 375.568 226.528 375.568 226.031C375.568 225.853 375.542 225.684 375.516 225.512C375.417 224.868 375.139 224.287 374.732 223.813C374.314 223.325 373.766 222.962 373.137 222.769Z" fill="white"/>
<path d="M347.295 208.98C346.943 208.858 346.571 208.777 346.177 208.777C345.93 208.777 345.689 208.807 345.457 208.856C344.321 209.101 343.399 209.911 342.987 210.975C342.84 211.358 342.75 211.77 342.75 212.205C342.75 212.415 342.776 212.619 342.811 212.818C343.056 214.16 344.08 215.225 345.397 215.534C345.649 215.593 345.908 215.633 346.177 215.633C346.55 215.633 346.902 215.557 347.238 215.448C348.417 215.059 349.315 214.062 349.542 212.818C349.579 212.619 349.603 212.415 349.603 212.205C349.603 211.77 349.514 211.358 349.367 210.975C349.005 210.04 348.246 209.312 347.295 208.98Z" fill="white"/>
<path d="M372.832 195.41C372.612 195.41 372.399 195.435 372.191 195.476C371.562 195.596 371.001 195.892 370.544 196.305C369.85 196.932 369.404 197.83 369.404 198.838C369.404 198.932 369.425 199.021 369.432 199.114C369.485 199.759 369.708 200.354 370.07 200.849C370.694 201.703 371.695 202.267 372.832 202.267C372.933 202.267 373.027 202.245 373.125 202.235C373.769 202.181 374.36 201.955 374.853 201.592C375.701 200.968 376.26 199.97 376.26 198.838C376.26 198.741 376.238 198.65 376.23 198.555C376.177 197.909 375.951 197.315 375.588 196.819C374.964 195.971 373.965 195.41 372.832 195.41Z" fill="white"/>
<path d="M341.94 191.323C341.649 191.244 341.348 191.187 341.031 191.187C339.14 191.187 337.604 192.725 337.604 194.613C337.604 195.068 337.697 195.501 337.859 195.898C338.347 197.102 339.5 197.956 340.862 198.023C340.919 198.027 340.974 198.041 341.031 198.041C341.849 198.041 342.59 197.741 343.181 197.261C343.664 196.867 344.036 196.351 344.249 195.753C344.376 195.394 344.458 195.014 344.458 194.613C344.458 194.425 344.432 194.244 344.403 194.064C344.187 192.739 343.214 191.677 341.94 191.323Z" fill="white"/>
<path d="M431.751 205.311H408.328V202.144H430.696L444.539 191.763H466.828V194.93H445.595L431.751 205.311Z" fill="#A2A6AC"/>
<path d="M355.682 162.979H352.516V120.843L366.293 88.8776L369.201 90.1311L355.682 121.497V162.979Z" fill="#A2A6AC"/>
<path d="M329.835 162.979H326.668V137.29L305.775 100.144L308.536 98.5911L329.835 136.46V162.979Z" fill="#A2A6AC"/>
<path d="M395.929 162.979H392.762V121.055L414.504 98.2744L416.796 100.461L395.929 122.323V162.979Z" fill="#A2A6AC"/>
<path d="M471.577 246.396L449.715 225.528H409.059V222.362H450.982L473.764 244.104L471.577 246.396Z" fill="#A2A6AC"/>
<path d="M354.789 335.885L351.881 334.631L365.4 303.266V261.783H368.566V303.919L354.789 335.885Z" fill="#A2A6AC"/>
<path d="M306.578 326.488L304.287 324.302L325.155 302.439V261.783H328.321V303.708L306.578 326.488Z" fill="#A2A6AC"/>
<path d="M412.547 326.171L391.246 288.302V261.783H394.413V287.473L415.307 324.619L412.547 326.171Z" fill="#A2A6AC"/>
<path d="M313.523 204.826H271.387L239.422 191.049L240.675 188.141L272.041 201.659H313.523V204.826Z" fill="#A2A6AC"/>
<path d="M273.461 235.585L271.623 233.006L287.608 221.617H313.832V224.783H288.621L273.461 235.585Z" fill="#A2A6AC"/>
</g>
<path opacity="0.2" d="M635.128 265.059H566.076L560.044 252.776H509.566V250.052H561.74L567.776 262.333H635.128V265.059Z" fill="#0FAE96"/>
<path opacity="0.2" d="M635.128 189.007H566.076L560.044 176.724H509.566V174H561.74L567.776 186.281H635.128V189.007Z" fill="#0FAE96"/>
</svg>
