<svg width="617" height="617" viewBox="0 0 617 617" fill="none" xmlns="http://www.w3.org/2000/svg">
<g opacity="0.1" clip-path="url(#clip0_524_50215)">
<path d="M616.998 617H0V0.00152588H616.998V617Z" fill="#0B0B22"/>
<path d="M465.392 308.5C465.392 395.15 395.149 465.393 308.501 465.393C221.85 465.393 151.609 395.15 151.609 308.5C151.609 221.851 221.85 151.609 308.501 151.609C395.149 151.609 465.392 221.851 465.392 308.5Z" fill="#111528"/>
<path d="M451.498 308.5C451.498 387.479 387.478 451.498 308.5 451.498C229.522 451.498 165.5 387.479 165.5 308.5C165.5 229.521 229.522 165.499 308.5 165.499C387.478 165.499 451.498 229.521 451.498 308.5Z" fill="#0B0B22"/>
<path d="M555.331 316.818C550.736 316.818 547.011 313.093 547.011 308.5C547.011 303.909 550.736 300.181 555.331 300.181C559.925 300.181 563.646 303.909 563.646 308.5C563.646 313.093 559.925 316.818 555.331 316.818ZM450.225 368.369C442.478 386.685 431.387 403.134 417.262 417.26C403.134 431.387 386.684 442.479 368.37 450.225C349.41 458.243 329.265 462.31 308.5 462.31C287.736 462.31 267.591 458.243 248.631 450.225C230.316 442.479 213.867 431.387 199.739 417.26C185.613 403.134 174.522 386.685 166.775 368.369C158.756 349.41 154.69 329.264 154.69 308.5C154.69 287.735 158.756 267.59 166.775 248.63C174.522 230.316 185.613 213.866 199.739 199.738C213.867 185.613 230.316 174.522 248.631 166.775C267.591 158.756 287.736 154.689 308.5 154.689C329.265 154.689 349.41 158.756 368.37 166.775C386.684 174.522 403.134 185.613 417.262 199.738C431.387 213.866 442.478 230.316 450.225 248.63C458.244 267.59 462.311 287.735 462.311 308.5C462.311 329.264 458.244 349.41 450.225 368.369ZM316.819 555.329C316.819 559.923 313.091 563.647 308.5 563.647C303.907 563.647 300.182 559.923 300.182 555.329C300.182 550.735 303.907 547.01 308.5 547.01C313.091 547.01 316.819 550.735 316.819 555.329ZM300.182 61.6693C300.182 57.0751 303.909 53.3536 308.5 53.3536C313.094 53.3536 316.819 57.0751 316.819 61.6693C316.819 66.2671 313.094 69.9886 308.5 69.9886C303.909 69.9886 300.182 66.2671 300.182 61.6693ZM478.133 503.175C482.723 503.175 486.452 506.899 486.452 511.493C486.452 516.09 482.723 519.812 478.133 519.812C473.538 519.812 469.817 516.09 469.817 511.493C469.817 506.899 473.538 503.175 478.133 503.175ZM138.867 519.812C134.275 519.812 130.548 516.09 130.548 511.493C130.548 506.899 134.275 503.175 138.867 503.175C143.462 503.175 147.185 506.899 147.185 511.493C147.185 516.09 143.462 519.812 138.867 519.812ZM61.6713 316.818C57.0764 316.818 53.3528 313.091 53.3528 308.5C53.3528 303.906 57.0764 300.181 61.6713 300.181C66.2666 300.181 69.9899 303.906 69.9899 308.5C69.9899 313.091 66.2666 316.818 61.6713 316.818ZM138.867 113.822C134.275 113.822 130.548 110.101 130.548 105.507C130.548 100.909 134.275 97.1875 138.867 97.1875C143.462 97.1875 147.185 100.909 147.185 105.507C147.185 110.101 143.462 113.822 138.867 113.822ZM478.133 97.1875C482.723 97.1875 486.452 100.909 486.452 105.507C486.452 110.101 482.723 113.822 478.133 113.822C473.538 113.822 469.817 110.101 469.817 105.507C469.817 100.909 473.538 97.1875 478.133 97.1875ZM555.327 294.782C548.61 294.782 543.025 299.609 541.845 305.984H467.324C467.01 285.429 462.821 265.485 454.861 246.668C453.521 243.498 452.079 240.384 450.55 237.323H545.845V232.292H447.91C440.68 219.068 431.611 206.968 420.823 196.177C420.202 195.562 419.584 194.951 418.956 194.347H468.431V189.31H413.513C408.301 184.709 402.82 180.474 397.091 176.616V108.02H464.65C465.834 114.395 471.416 119.223 478.133 119.223C485.708 119.223 491.853 113.079 491.853 105.507C491.853 97.9276 485.708 91.7868 478.133 91.7868C471.416 91.7868 465.834 96.615 464.65 102.99H392.057V173.366C385.145 169.083 377.894 165.337 370.328 162.139C364.788 159.793 359.15 157.779 353.425 156.089V106.844H348.389V154.696C336.249 151.554 323.752 149.871 311.016 149.676V75.1553C317.391 73.9753 322.218 68.3897 322.218 61.6729C322.218 54.0972 316.078 47.9564 308.5 47.9564C300.922 47.9564 294.783 54.0972 294.783 61.6729C294.783 68.3897 299.61 73.9753 305.985 75.1553V149.676C293.249 149.871 280.752 151.554 268.61 154.696V106.844H263.577V156.089C257.851 157.779 252.213 159.793 246.67 162.139C239.108 165.337 231.858 169.083 224.945 173.366V102.99H152.35C151.168 96.615 145.584 91.7868 138.867 91.7868C131.292 91.7868 125.15 97.9276 125.15 105.507C125.15 113.079 131.292 119.223 138.867 119.223C145.584 119.223 151.168 114.395 152.35 108.02H219.911V176.616C214.18 180.474 208.7 184.709 203.487 189.31H148.569V194.347H198.044C197.418 194.951 196.797 195.562 196.179 196.177C185.392 206.968 176.319 219.068 169.09 232.292H71.1531V237.323H166.454C164.92 240.384 163.479 243.498 162.139 246.668C154.18 265.485 149.991 285.429 149.675 305.984H75.157C73.9749 299.609 68.391 294.782 61.6741 294.782C54.0964 294.782 47.957 300.922 47.957 308.5C47.957 316.078 54.0964 322.217 61.6741 322.217C68.391 322.217 73.9749 317.39 75.157 311.015H149.675C149.991 331.57 154.18 351.513 162.139 370.329C163.479 373.501 164.92 376.617 166.454 379.676H71.1531V384.708H169.09C176.319 397.931 185.392 410.033 196.179 420.822C196.797 421.436 197.418 422.048 198.044 422.651H148.569V427.688H203.487C208.7 432.29 214.18 436.528 219.911 440.384V508.978H152.35C151.168 502.603 145.584 497.776 138.867 497.776C131.292 497.776 125.15 503.918 125.15 511.493C125.15 519.071 131.292 525.21 138.867 525.21C145.584 525.21 151.168 520.384 152.35 514.012H224.945V443.634C231.858 447.914 239.108 451.664 246.67 454.861C252.213 457.206 257.851 459.222 263.577 460.911V510.156H268.61V462.301C280.752 465.445 293.249 467.128 305.985 467.325V541.844C299.61 543.025 294.783 548.609 294.783 555.326C294.783 562.904 300.922 569.043 308.5 569.043C316.078 569.043 322.218 562.904 322.218 555.326C322.218 548.609 317.391 543.025 311.016 541.844V467.325C323.752 467.128 336.249 465.445 348.389 462.301V510.156H353.425V460.911C359.15 459.222 364.788 457.206 370.328 454.861C377.894 451.664 385.145 447.914 392.057 443.634V514.012H464.65C465.834 520.384 471.416 525.21 478.133 525.21C485.708 525.21 491.853 519.071 491.853 511.493C491.853 503.918 485.708 497.776 478.133 497.776C471.416 497.776 465.834 502.603 464.65 508.978H397.091V440.384C402.82 436.528 408.301 432.29 413.513 427.688H468.431V422.651H418.956C419.584 422.048 420.202 421.436 420.823 420.822C431.611 410.033 440.68 397.931 447.91 384.708H545.845V379.676H450.55C452.079 376.617 453.521 373.501 454.861 370.329C462.821 351.513 467.01 331.57 467.324 311.015H541.845C543.025 317.39 548.61 322.217 555.327 322.217C562.903 322.217 569.044 316.078 569.044 308.5C569.044 300.922 562.903 294.782 555.327 294.782Z" fill="#0FAE96"/>
<path d="M313.799 332.723V340.099C313.799 343.024 311.426 345.394 308.501 345.394C307.04 345.394 305.716 344.802 304.757 343.843C303.795 342.884 303.203 341.56 303.203 340.099V332.723C299.689 330.833 297.294 327.117 297.294 322.845C297.294 316.546 302.499 311.459 308.84 311.647C314.643 311.818 319.416 316.499 319.694 322.296C319.91 326.797 317.464 330.751 313.799 332.723ZM336.852 290.991H280.15C273.995 290.991 269.006 295.981 269.006 302.134V358.839C269.006 364.992 273.995 369.979 280.15 369.979H336.852C343.008 369.979 347.997 364.992 347.997 358.839V302.134C347.997 295.981 343.008 290.991 336.852 290.991Z" fill="white"/>
<path d="M331 284H339.03V265.618C339.03 255.934 346.882 248.056 356.535 248.056C366.188 248.056 374.041 255.934 374.041 265.618V284H382.07V265.618C382.07 251.494 370.617 240 356.535 240C342.454 240 331 251.494 331 265.618V284Z" fill="white"/>
<path d="M459.965 271.686H524.633" stroke="#0FAE96" stroke-width="25.8989" stroke-miterlimit="10"/>
<path d="M459.965 345.318H524.633" stroke="#0FAE96" stroke-width="25.8989" stroke-miterlimit="10"/>
<path d="M157.034 271.682H92.3652" stroke="#0FAE96" stroke-width="25.8989" stroke-miterlimit="10"/>
<path d="M157.034 345.318H92.3652" stroke="#0FAE96" stroke-width="25.8989" stroke-miterlimit="10"/>
</g>
<g filter="url(#filter0_f_524_50215)">
<circle cx="478.5" cy="105.5" r="3.5" fill="#0FAE96"/>
</g>
<g filter="url(#filter1_f_524_50215)">
<circle cx="138.5" cy="105.5" r="3.5" fill="#0FAE96"/>
</g>
<g filter="url(#filter2_f_524_50215)">
<circle cx="555.5" cy="308.5" r="3.5" fill="#0FAE96"/>
</g>
<g filter="url(#filter3_f_524_50215)">
<circle cx="61.5" cy="308.5" r="3.5" fill="#0FAE96"/>
</g>
<g filter="url(#filter4_f_524_50215)">
<circle cx="478.5" cy="511.5" r="3.5" fill="#0FAE96"/>
</g>
<g filter="url(#filter5_f_524_50215)">
<circle cx="138.5" cy="511.5" r="3.5" fill="#0FAE96"/>
</g>
<g filter="url(#filter6_f_524_50215)">
<circle cx="308.5" cy="555.5" r="3.5" fill="#0FAE96"/>
</g>
<g filter="url(#filter7_f_524_50215)">
<circle cx="308.5" cy="61.5" r="3.5" fill="#0FAE96"/>
</g>
<defs>
<filter id="filter0_f_524_50215" x="471" y="98" width="15" height="15" filterUnits="userSpaceOnUse" color-interpolation-filters="sRGB">
<feFlood flood-opacity="0" result="BackgroundImageFix"/>
<feBlend mode="normal" in="SourceGraphic" in2="BackgroundImageFix" result="shape"/>
<feGaussianBlur stdDeviation="2" result="effect1_foregroundBlur_524_50215"/>
</filter>
<filter id="filter1_f_524_50215" x="131" y="98" width="15" height="15" filterUnits="userSpaceOnUse" color-interpolation-filters="sRGB">
<feFlood flood-opacity="0" result="BackgroundImageFix"/>
<feBlend mode="normal" in="SourceGraphic" in2="BackgroundImageFix" result="shape"/>
<feGaussianBlur stdDeviation="2" result="effect1_foregroundBlur_524_50215"/>
</filter>
<filter id="filter2_f_524_50215" x="548" y="301" width="15" height="15" filterUnits="userSpaceOnUse" color-interpolation-filters="sRGB">
<feFlood flood-opacity="0" result="BackgroundImageFix"/>
<feBlend mode="normal" in="SourceGraphic" in2="BackgroundImageFix" result="shape"/>
<feGaussianBlur stdDeviation="2" result="effect1_foregroundBlur_524_50215"/>
</filter>
<filter id="filter3_f_524_50215" x="54" y="301" width="15" height="15" filterUnits="userSpaceOnUse" color-interpolation-filters="sRGB">
<feFlood flood-opacity="0" result="BackgroundImageFix"/>
<feBlend mode="normal" in="SourceGraphic" in2="BackgroundImageFix" result="shape"/>
<feGaussianBlur stdDeviation="2" result="effect1_foregroundBlur_524_50215"/>
</filter>
<filter id="filter4_f_524_50215" x="471" y="504" width="15" height="15" filterUnits="userSpaceOnUse" color-interpolation-filters="sRGB">
<feFlood flood-opacity="0" result="BackgroundImageFix"/>
<feBlend mode="normal" in="SourceGraphic" in2="BackgroundImageFix" result="shape"/>
<feGaussianBlur stdDeviation="2" result="effect1_foregroundBlur_524_50215"/>
</filter>
<filter id="filter5_f_524_50215" x="131" y="504" width="15" height="15" filterUnits="userSpaceOnUse" color-interpolation-filters="sRGB">
<feFlood flood-opacity="0" result="BackgroundImageFix"/>
<feBlend mode="normal" in="SourceGraphic" in2="BackgroundImageFix" result="shape"/>
<feGaussianBlur stdDeviation="2" result="effect1_foregroundBlur_524_50215"/>
</filter>
<filter id="filter6_f_524_50215" x="301" y="548" width="15" height="15" filterUnits="userSpaceOnUse" color-interpolation-filters="sRGB">
<feFlood flood-opacity="0" result="BackgroundImageFix"/>
<feBlend mode="normal" in="SourceGraphic" in2="BackgroundImageFix" result="shape"/>
<feGaussianBlur stdDeviation="2" result="effect1_foregroundBlur_524_50215"/>
</filter>
<filter id="filter7_f_524_50215" x="301" y="54" width="15" height="15" filterUnits="userSpaceOnUse" color-interpolation-filters="sRGB">
<feFlood flood-opacity="0" result="BackgroundImageFix"/>
<feBlend mode="normal" in="SourceGraphic" in2="BackgroundImageFix" result="shape"/>
<feGaussianBlur stdDeviation="2" result="effect1_foregroundBlur_524_50215"/>
</filter>
<clipPath id="clip0_524_50215">
<rect width="617" height="617" fill="white"/>
</clipPath>
</defs>
</svg>
