<svg width="523" height="523" viewBox="0 0 523 523" fill="none" xmlns="http://www.w3.org/2000/svg">
<path d="M508.331 269.818C503.736 269.818 500.011 266.093 500.011 261.5C500.011 256.909 503.736 253.181 508.331 253.181C512.925 253.181 516.646 256.909 516.646 261.5C516.646 266.093 512.925 269.818 508.331 269.818ZM403.225 321.369C395.478 339.685 384.387 356.134 370.262 370.26C356.134 384.387 339.684 395.479 321.37 403.225C302.41 411.243 282.265 415.31 261.5 415.31C240.736 415.31 220.591 411.243 201.631 403.225C183.316 395.479 166.867 384.387 152.739 370.26C138.613 356.134 127.522 339.685 119.775 321.369C111.756 302.41 107.69 282.264 107.69 261.5C107.69 240.735 111.756 220.59 119.775 201.63C127.522 183.316 138.613 166.866 152.739 152.738C166.867 138.613 183.316 127.522 201.631 119.775C220.591 111.756 240.736 107.689 261.5 107.689C282.265 107.689 302.41 111.756 321.37 119.775C339.684 127.522 356.134 138.613 370.262 152.738C384.387 166.866 395.478 183.316 403.225 201.63C411.244 220.59 415.311 240.735 415.311 261.5C415.311 282.264 411.244 302.41 403.225 321.369ZM269.819 508.329C269.819 512.923 266.091 516.647 261.5 516.647C256.907 516.647 253.182 512.923 253.182 508.329C253.182 503.735 256.907 500.01 261.5 500.01C266.091 500.01 269.819 503.735 269.819 508.329ZM253.182 14.6693C253.182 10.0751 256.909 6.35364 261.5 6.35364C266.094 6.35364 269.819 10.0751 269.819 14.6693C269.819 19.2671 266.094 22.9886 261.5 22.9886C256.909 22.9886 253.182 19.2671 253.182 14.6693ZM431.133 456.175C435.723 456.175 439.452 459.899 439.452 464.493C439.452 469.09 435.723 472.812 431.133 472.812C426.538 472.812 422.817 469.09 422.817 464.493C422.817 459.899 426.538 456.175 431.133 456.175ZM91.8669 472.812C87.2748 472.812 83.5484 469.09 83.5484 464.493C83.5484 459.899 87.2748 456.175 91.8669 456.175C96.4619 456.175 100.185 459.899 100.185 464.493C100.185 469.09 96.4619 472.812 91.8669 472.812ZM14.6713 269.818C10.0764 269.818 6.35283 266.091 6.35283 261.5C6.35283 256.906 10.0764 253.181 14.6713 253.181C19.2666 253.181 22.9899 256.906 22.9899 261.5C22.9899 266.091 19.2666 269.818 14.6713 269.818ZM91.8669 66.8224C87.2748 66.8224 83.5484 63.101 83.5484 58.5067C83.5484 53.909 87.2748 50.1875 91.8669 50.1875C96.4619 50.1875 100.185 53.909 100.185 58.5067C100.185 63.101 96.4619 66.8224 91.8669 66.8224ZM431.133 50.1875C435.723 50.1875 439.452 53.909 439.452 58.5067C439.452 63.101 435.723 66.8224 431.133 66.8224C426.538 66.8224 422.817 63.101 422.817 58.5067C422.817 53.909 426.538 50.1875 431.133 50.1875ZM508.327 247.782C501.61 247.782 496.025 252.609 494.845 258.984H420.324C420.01 238.429 415.821 218.485 407.861 199.668C406.521 196.498 405.079 193.384 403.55 190.323H498.845V185.292H400.91C393.68 172.068 384.611 159.968 373.823 149.177C373.202 148.562 372.584 147.951 371.956 147.347H421.431V142.31H366.513C361.301 137.709 355.82 133.474 350.091 129.616V61.0203H417.65C418.834 67.395 424.416 72.2231 431.133 72.2231C438.708 72.2231 444.853 66.0789 444.853 58.5067C444.853 50.9276 438.708 44.7868 431.133 44.7868C424.416 44.7868 418.834 49.615 417.65 55.9897H345.057V126.366C338.145 122.083 330.894 118.337 323.328 115.139C317.788 112.793 312.15 110.779 306.425 109.089V59.8438H301.389V107.696C289.249 104.554 276.752 102.871 264.016 102.676V28.1553C270.391 26.9753 275.218 21.3897 275.218 14.6729C275.218 7.09723 269.078 0.956421 261.5 0.956421C253.922 0.956421 247.783 7.09723 247.783 14.6729C247.783 21.3897 252.61 26.9753 258.985 28.1553V102.676C246.249 102.871 233.752 104.554 221.61 107.696V59.8438H216.577V109.089C210.851 110.779 205.213 112.793 199.67 115.139C192.108 118.337 184.858 122.083 177.945 126.366V55.9897H105.35C104.168 49.615 98.5841 44.7868 91.8669 44.7868C84.292 44.7868 78.1498 50.9276 78.1498 58.5067C78.1498 66.0789 84.292 72.2231 91.8669 72.2231C98.5841 72.2231 104.168 67.395 105.35 61.0203H172.911V129.616C167.18 133.474 161.7 137.709 156.487 142.31H101.569V147.347H151.044C150.418 147.951 149.797 148.562 149.179 149.177C138.392 159.968 129.319 172.068 122.09 185.292H24.1531V190.323H119.454C117.92 193.384 116.479 196.498 115.139 199.668C107.18 218.485 102.991 238.429 102.675 258.984H28.157C26.9749 252.609 21.391 247.782 14.6741 247.782C7.09643 247.782 0.957031 253.922 0.957031 261.5C0.957031 269.078 7.09643 275.217 14.6741 275.217C21.391 275.217 26.9749 270.39 28.157 264.015H102.675C102.991 284.57 107.18 304.513 115.139 323.329C116.479 326.501 117.92 329.617 119.454 332.676H24.1531V337.708H122.09C129.319 350.931 138.392 363.033 149.179 373.822C149.797 374.436 150.418 375.048 151.044 375.651H101.569V380.688H156.487C161.7 385.29 167.18 389.528 172.911 393.384V461.978H105.35C104.168 455.603 98.5841 450.776 91.8669 450.776C84.292 450.776 78.1498 456.918 78.1498 464.493C78.1498 472.071 84.292 478.21 91.8669 478.21C98.5841 478.21 104.168 473.384 105.35 467.012H177.945V396.634C184.858 400.914 192.108 404.664 199.67 407.861C205.213 410.206 210.851 412.222 216.577 413.911V463.156H221.61V415.301C233.752 418.445 246.249 420.128 258.985 420.325V494.844C252.61 496.025 247.783 501.609 247.783 508.326C247.783 515.904 253.922 522.043 261.5 522.043C269.078 522.043 275.218 515.904 275.218 508.326C275.218 501.609 270.391 496.025 264.016 494.844V420.325C276.752 420.128 289.249 418.445 301.389 415.301V463.156H306.425V413.911C312.15 412.222 317.788 410.206 323.328 407.861C330.894 404.664 338.145 400.914 345.057 396.634V467.012H417.65C418.834 473.384 424.416 478.21 431.133 478.21C438.708 478.21 444.853 472.071 444.853 464.493C444.853 456.918 438.708 450.776 431.133 450.776C424.416 450.776 418.834 455.603 417.65 461.978H350.091V393.384C355.82 389.528 361.301 385.29 366.513 380.688H421.431V375.651H371.956C372.584 375.048 373.202 374.436 373.823 373.822C384.611 363.033 393.68 350.931 400.91 337.708H498.845V332.676H403.55C405.079 329.617 406.521 326.501 407.861 323.329C415.821 304.513 420.01 284.57 420.324 264.015H494.845C496.025 270.39 501.61 275.217 508.327 275.217C515.903 275.217 522.044 269.078 522.044 261.5C522.044 253.922 515.903 247.782 508.327 247.782Z" fill="#0FAE96"/>
</svg>
