<svg width="756" height="630" viewBox="0 0 756 630" fill="none" xmlns="http://www.w3.org/2000/svg">
<rect x="183.5" y="116.5" width="482" height="377" rx="26.5" stroke="url(#paint0_linear_524_50144)"/>
<rect x="203" y="136" width="443" height="338" rx="16" fill="url(#paint1_linear_524_50144)" fill-opacity="0.1"/>
<g opacity="0.5">
<path d="M505.315 291.657C505.315 252.808 536.808 221.315 575.657 221.315C614.507 221.315 646 252.808 646 291.657C646 330.507 614.507 362 575.657 362C536.808 362 505.315 330.507 505.315 291.657ZM642.992 291.657C642.992 254.469 612.845 224.322 575.657 224.322C538.469 224.322 508.322 254.469 508.322 291.657C508.322 328.845 538.469 358.992 575.657 358.992C612.845 358.992 642.992 328.845 642.992 291.657Z" fill="#D9D9D9"/>
<path d="M505.315 291.657C505.315 252.808 536.808 221.315 575.657 221.315C614.507 221.315 646 252.808 646 291.657C646 330.507 614.507 362 575.657 362C536.808 362 505.315 330.507 505.315 291.657ZM642.992 291.657C642.992 254.469 612.845 224.322 575.657 224.322C538.469 224.322 508.322 254.469 508.322 291.657C508.322 328.845 538.469 358.992 575.657 358.992C612.845 358.992 642.992 328.845 642.992 291.657Z" fill="#D9D9D9"/>
<path d="M513.565 291.764C513.565 257.53 541.317 229.778 575.551 229.778C609.785 229.778 637.537 257.53 637.537 291.764C637.537 325.998 609.785 353.75 575.551 353.75C541.317 353.75 513.565 325.998 513.565 291.764ZM634.887 291.764C634.887 258.994 608.321 232.428 575.551 232.428C542.781 232.428 516.215 258.994 516.215 291.764C516.215 324.534 542.781 351.1 575.551 351.1C608.321 351.1 634.887 324.534 634.887 291.764Z" fill="#D9D9D9"/>
<path d="M505.315 291.657C505.315 252.808 536.808 221.315 575.657 221.315C614.507 221.315 646 252.808 646 291.657C646 330.507 614.507 362 575.657 362C536.808 362 505.315 330.507 505.315 291.657ZM642.992 291.657C642.992 254.469 612.845 224.322 575.657 224.322C538.469 224.322 508.322 254.469 508.322 291.657C508.322 328.845 538.469 358.992 575.657 358.992C612.845 358.992 642.992 328.845 642.992 291.657Z" fill="#D9D9D9"/>
<path d="M513.565 291.764C513.565 257.53 541.317 229.778 575.551 229.778C609.785 229.778 637.537 257.53 637.537 291.764C637.537 325.998 609.785 353.75 575.551 353.75C541.317 353.75 513.565 325.998 513.565 291.764ZM634.887 291.764C634.887 258.994 608.321 232.428 575.551 232.428C542.781 232.428 516.215 258.994 516.215 291.764C516.215 324.534 542.781 351.1 575.551 351.1C608.321 351.1 634.887 324.534 634.887 291.764Z" fill="#D9D9D9"/>
<path d="M522.663 291.763C522.663 262.553 546.342 238.874 575.552 238.874C604.762 238.874 628.441 262.553 628.441 291.763C628.441 320.973 604.762 344.652 575.552 344.652C546.342 344.652 522.663 320.973 522.663 291.763ZM626.18 291.763C626.18 263.802 603.513 241.135 575.552 241.135C547.591 241.135 524.924 263.802 524.924 291.763C524.924 319.724 547.591 342.391 575.552 342.391C603.513 342.391 626.18 319.724 626.18 291.763Z" fill="#D9D9D9"/>
<path d="M532.605 291.657C532.605 267.88 551.88 248.605 575.657 248.605C599.434 248.605 618.709 267.88 618.709 291.657C618.709 315.434 599.434 334.709 575.657 334.709C551.88 334.709 532.605 315.434 532.605 291.657ZM616.868 291.657C616.868 268.897 598.417 250.446 575.657 250.446C552.897 250.446 534.446 268.897 534.446 291.657C534.446 314.417 552.897 332.868 575.657 332.868C598.417 332.868 616.868 314.417 616.868 291.657Z" fill="#D9D9D9"/>
<path d="M505.315 291.657C505.315 252.808 536.808 221.315 575.657 221.315C614.507 221.315 646 252.808 646 291.657C646 330.507 614.507 362 575.657 362C536.808 362 505.315 330.507 505.315 291.657ZM642.992 291.657C642.992 254.469 612.845 224.322 575.657 224.322C538.469 224.322 508.322 254.469 508.322 291.657C508.322 328.845 538.469 358.992 575.657 358.992C612.845 358.992 642.992 328.845 642.992 291.657Z" fill="#D9D9D9"/>
<path d="M513.565 291.764C513.565 257.53 541.317 229.778 575.551 229.778C609.785 229.778 637.537 257.53 637.537 291.764C637.537 325.998 609.785 353.75 575.551 353.75C541.317 353.75 513.565 325.998 513.565 291.764ZM634.887 291.764C634.887 258.994 608.321 232.428 575.551 232.428C542.781 232.428 516.215 258.994 516.215 291.764C516.215 324.534 542.781 351.1 575.551 351.1C608.321 351.1 634.887 324.534 634.887 291.764Z" fill="#D9D9D9"/>
<path d="M522.663 291.763C522.663 262.553 546.342 238.874 575.552 238.874C604.762 238.874 628.441 262.553 628.441 291.763C628.441 320.973 604.762 344.652 575.552 344.652C546.342 344.652 522.663 320.973 522.663 291.763ZM626.18 291.763C626.18 263.802 603.513 241.135 575.552 241.135C547.591 241.135 524.924 263.802 524.924 291.763C524.924 319.724 547.591 342.391 575.552 342.391C603.513 342.391 626.18 319.724 626.18 291.763Z" fill="#D9D9D9"/>
<path d="M532.605 291.657C532.605 267.88 551.88 248.605 575.657 248.605C599.434 248.605 618.709 267.88 618.709 291.657C618.709 315.434 599.434 334.709 575.657 334.709C551.88 334.709 532.605 315.434 532.605 291.657ZM616.868 291.657C616.868 268.897 598.417 250.446 575.657 250.446C552.897 250.446 534.446 268.897 534.446 291.657C534.446 314.417 552.897 332.868 575.657 332.868C598.417 332.868 616.868 314.417 616.868 291.657Z" fill="#D9D9D9"/>
<path d="M539.376 291.763C539.376 271.784 555.573 255.587 575.552 255.587C595.532 255.587 611.729 271.784 611.729 291.763C611.729 311.743 595.532 327.939 575.552 327.939C555.573 327.939 539.376 311.743 539.376 291.763ZM610.182 291.763C610.182 272.638 594.678 257.134 575.552 257.134C556.427 257.134 540.923 272.638 540.923 291.763C540.923 310.888 556.427 326.393 575.552 326.393C594.678 326.393 610.182 310.888 610.182 291.763Z" fill="#D9D9D9"/>
<path d="M547.626 291.764C547.626 276.341 560.128 263.838 575.551 263.838C590.974 263.838 603.477 276.341 603.477 291.764C603.477 307.187 590.974 319.689 575.551 319.689C560.128 319.689 547.626 307.187 547.626 291.764ZM602.282 291.764C602.282 277.001 590.314 265.032 575.551 265.032C560.788 265.032 548.82 277.001 548.82 291.764C548.82 306.527 560.788 318.495 575.551 318.495C590.314 318.495 602.282 306.527 602.282 291.764Z" fill="#0FAE96"/>
</g>
<rect x="296" y="427.5" width="330" height="93" rx="10" fill="url(#paint2_linear_524_50144)" fill-opacity="0.1"/>
<g clip-path="url(#clip0_524_50144)">
<g opacity="0.4">
<circle cx="321" cy="444" r="5" fill="#FCA016"/>
<circle opacity="0.1" cx="321" cy="454" r="3" fill="#FCA016"/>
</g>
<rect opacity="0.4" x="338" y="439" width="150.584" height="8" rx="4" fill="#B1B1B1"/>
</g>
<g clip-path="url(#clip1_524_50144)">
<g opacity="0.4">
<circle cx="321" cy="470" r="5" fill="#FCA016"/>
<circle opacity="0.1" cx="321" cy="480" r="3" fill="#F3F6F5"/>
</g>
<g opacity="0.4">
<rect x="338" y="465" width="242" height="8" rx="4" fill="#B1B1B1"/>
</g>
</g>
<g clip-path="url(#clip2_524_50144)">
<g opacity="0.4">
<circle cx="321" cy="496" r="5" fill="#FCA016"/>
<circle opacity="0.1" cx="321" cy="506" r="3" fill="#FCA016"/>
</g>
<g opacity="0.4">
<rect x="338" y="491" width="242" height="8" rx="4" fill="#B1B1B1"/>
</g>
</g>
<g opacity="0.02" filter="url(#filter0_f_524_50144)">
<ellipse cx="226.523" cy="213.48" rx="226.523" ry="213.48" transform="matrix(0.972335 -0.233589 0.265227 0.964186 32.9414 196.33)" fill="#66FFA3"/>
<ellipse cx="184.038" cy="173.442" rx="184.038" ry="173.442" transform="matrix(0.972335 -0.233589 0.265227 0.964186 299.951 131.061)" fill="#FCA016"/>
</g>
<defs>
<filter id="filter0_f_524_50144" x="0.345703" y="0.591797" width="791.363" height="643.238" filterUnits="userSpaceOnUse" color-interpolation-filters="sRGB">
<feFlood flood-opacity="0" result="BackgroundImageFix"/>
<feBlend mode="normal" in="SourceGraphic" in2="BackgroundImageFix" result="shape"/>
<feGaussianBlur stdDeviation="41" result="effect1_foregroundBlur_524_50144"/>
</filter>
<linearGradient id="paint0_linear_524_50144" x1="413.575" y1="116" x2="426.084" y2="493.611" gradientUnits="userSpaceOnUse">
<stop stop-color="#0FAE96" stop-opacity="0.26"/>
<stop offset="1" stop-color="#06483E" stop-opacity="0.4"/>
</linearGradient>
<linearGradient id="paint1_linear_524_50144" x1="424.5" y1="146.423" x2="424.5" y2="457.993" gradientUnits="userSpaceOnUse">
<stop offset="0.245363" stop-color="#0B0B22"/>
<stop offset="0.859613" stop-color="#6E6E70"/>
</linearGradient>
<linearGradient id="paint2_linear_524_50144" x1="461" y1="430.368" x2="461" y2="516.096" gradientUnits="userSpaceOnUse">
<stop offset="0.245363" stop-color="#0B0B22"/>
<stop offset="0.859613" stop-color="#6E6E70"/>
</linearGradient>
<clipPath id="clip0_524_50144">
<rect width="172.584" height="18" fill="white" transform="translate(316 439)"/>
</clipPath>
<clipPath id="clip1_524_50144">
<rect width="264" height="18" fill="white" transform="translate(316 465)"/>
</clipPath>
<clipPath id="clip2_524_50144">
<rect width="264" height="18" fill="white" transform="translate(316 491)"/>
</clipPath>
</defs>
</svg>
