<svg width="654" height="553" viewBox="0 0 654 553" fill="none" xmlns="http://www.w3.org/2000/svg">
<g opacity="0.05" filter="url(#filter0_f_205_5482)">
<ellipse cx="199.914" cy="196.316" rx="199.914" ry="196.316" transform="matrix(0.969732 -0.244172 0.253855 0.967242 39 156.529)" fill="#66FFA3"/>
<ellipse cx="162.42" cy="159.497" rx="162.42" ry="159.497" transform="matrix(0.969732 -0.244172 0.253855 0.967242 274.016 96.3164)" fill="#FCA016"/>
</g>
<rect x="171.582" y="359.092" width="266.807" height="164.786" rx="9.5" fill="white" fill-opacity="0.1" stroke="url(#paint0_linear_205_5482)"/>
<circle opacity="0.2" cx="200.231" cy="385.919" r="5.46546" fill="#FC165B"/>
<circle opacity="0.2" cx="217.538" cy="385.919" r="5.46546" fill="#FCA016"/>
<circle opacity="0.2" cx="234.846" cy="385.919" r="5.46546" fill="#16FCA9"/>
<path d="M199.34 411.417V414.737H203.34V416.145H199.34V419.641H204.212V421.049H197.484V410.009H204.124L203.916 411.417H199.34ZM207.942 421.049H205.958L208.99 416.593L206.294 412.601H208.358L210.086 415.577L211.814 412.601H213.782L211.142 416.521L214.182 421.049H212.078L210.006 417.601L207.942 421.049ZM220.407 412.377C221.154 412.377 221.751 412.561 222.199 412.929C222.647 413.291 222.973 413.806 223.175 414.473C223.378 415.134 223.479 415.913 223.479 416.809C223.479 417.667 223.357 418.433 223.111 419.105C222.866 419.777 222.501 420.305 222.015 420.689C221.535 421.073 220.938 421.265 220.223 421.265C219.338 421.265 218.623 420.953 218.079 420.329V424.297L216.287 424.497V412.601H217.847L217.959 413.689C218.279 413.251 218.65 412.923 219.071 412.705C219.498 412.486 219.943 412.377 220.407 412.377ZM219.911 413.761C219.511 413.761 219.159 413.881 218.855 414.121C218.551 414.361 218.293 414.643 218.079 414.969V418.921C218.282 419.225 218.522 419.459 218.799 419.625C219.082 419.785 219.399 419.865 219.751 419.865C220.354 419.865 220.813 419.622 221.127 419.137C221.442 418.651 221.599 417.878 221.599 416.817C221.599 416.097 221.535 415.513 221.407 415.065C221.285 414.611 221.098 414.281 220.847 414.073C220.602 413.865 220.29 413.761 219.911 413.761ZM227.369 417.401C227.406 417.977 227.529 418.449 227.737 418.817C227.945 419.179 228.217 419.446 228.553 419.617C228.894 419.787 229.268 419.873 229.673 419.873C230.089 419.873 230.473 419.809 230.825 419.681C231.177 419.553 231.532 419.371 231.889 419.137L232.665 420.209C232.27 420.529 231.809 420.785 231.281 420.977C230.753 421.169 230.188 421.265 229.585 421.265C228.71 421.265 227.969 421.078 227.361 420.705C226.758 420.331 226.3 419.811 225.985 419.145C225.67 418.478 225.513 417.707 225.513 416.833C225.513 415.985 225.668 415.227 225.977 414.561C226.286 413.889 226.729 413.358 227.305 412.969C227.881 412.574 228.569 412.377 229.369 412.377C230.121 412.377 230.766 412.547 231.305 412.889C231.849 413.23 232.268 413.715 232.561 414.345C232.86 414.969 233.009 415.721 233.009 416.601C233.009 416.745 233.004 416.889 232.993 417.033C232.988 417.171 232.98 417.294 232.969 417.401H227.369ZM229.385 413.705C228.825 413.705 228.361 413.905 227.993 414.305C227.63 414.705 227.42 415.329 227.361 416.177H231.273C231.257 415.382 231.086 414.771 230.761 414.345C230.441 413.918 229.982 413.705 229.385 413.705ZM235.555 421.049V419.769H236.795V413.873H235.555V412.601H238.163L238.491 414.561C238.805 413.851 239.195 413.313 239.659 412.945C240.128 412.571 240.731 412.385 241.467 412.385C241.717 412.385 241.941 412.406 242.139 412.449C242.341 412.486 242.541 412.537 242.739 412.601L242.203 414.137C242.032 414.089 241.872 414.054 241.723 414.033C241.573 414.006 241.408 413.993 241.227 413.993C240.613 413.993 240.083 414.222 239.635 414.681C239.192 415.139 238.843 415.79 238.587 416.633V419.769H240.291V421.049H235.555ZM241.155 415.713V413.633L241.379 412.601H242.739L242.435 415.713H241.155ZM252.125 420.601C251.815 420.798 251.445 420.958 251.013 421.081C250.581 421.203 250.13 421.265 249.661 421.265C248.679 421.265 247.933 421.011 247.421 420.505C246.914 419.993 246.661 419.321 246.661 418.489V413.905H244.781V412.601H246.661V410.713L248.453 410.497V412.601H251.301L251.101 413.905H248.453V418.473C248.453 418.926 248.565 419.265 248.789 419.489C249.018 419.707 249.391 419.817 249.909 419.817C250.218 419.817 250.503 419.779 250.765 419.705C251.026 419.63 251.263 419.534 251.477 419.417L252.125 420.601ZM269.568 418.393H265.624L264.856 421.049H262.968L266.48 410.009H268.784L272.304 421.049H270.336L269.568 418.393ZM266.008 416.961H269.176L267.6 411.449L266.008 416.961ZM280.546 410.009V411.425H278.162V419.625H280.546V421.049H273.906V419.625H276.29V411.425H273.906V410.009H280.546ZM298.349 418.393H294.405L293.637 421.049H291.749L295.261 410.009H297.565L301.085 421.049H299.117L298.349 418.393ZM294.789 416.961H297.957L296.381 411.449L294.789 416.961ZM309.743 411.529L310.223 413.017C309.887 413.129 309.516 413.203 309.111 413.241C308.711 413.278 308.263 413.297 307.767 413.297C308.274 413.521 308.655 413.809 308.911 414.161C309.167 414.507 309.295 414.934 309.295 415.441C309.295 415.99 309.162 416.481 308.895 416.913C308.628 417.345 308.247 417.683 307.751 417.929C307.255 418.174 306.66 418.297 305.967 418.297C305.722 418.297 305.508 418.286 305.327 418.265C305.151 418.243 304.978 418.209 304.807 418.161C304.7 418.235 304.61 418.337 304.535 418.465C304.466 418.587 304.431 418.718 304.431 418.857C304.431 419.027 304.5 419.177 304.639 419.305C304.783 419.427 305.066 419.489 305.487 419.489H306.959C307.562 419.489 308.092 419.593 308.551 419.801C309.015 420.003 309.378 420.283 309.639 420.641C309.906 420.993 310.039 421.393 310.039 421.841C310.039 422.683 309.676 423.337 308.951 423.801C308.226 424.265 307.18 424.497 305.815 424.497C304.85 424.497 304.092 424.398 303.543 424.201C302.994 424.003 302.607 423.71 302.383 423.321C302.159 422.931 302.047 422.454 302.047 421.889H303.655C303.655 422.182 303.711 422.425 303.823 422.617C303.94 422.809 304.156 422.953 304.471 423.049C304.786 423.145 305.239 423.193 305.831 423.193C306.423 423.193 306.892 423.142 307.239 423.041C307.591 422.945 307.844 422.803 307.999 422.617C308.159 422.435 308.239 422.217 308.239 421.961C308.239 421.619 308.09 421.355 307.791 421.169C307.492 420.982 307.092 420.889 306.591 420.889H305.143C304.343 420.889 303.756 420.726 303.383 420.401C303.015 420.075 302.831 419.697 302.831 419.265C302.831 418.977 302.911 418.699 303.071 418.433C303.236 418.166 303.471 417.934 303.775 417.737C303.268 417.47 302.898 417.147 302.663 416.769C302.434 416.385 302.319 415.921 302.319 415.377C302.319 414.779 302.468 414.257 302.767 413.809C303.066 413.361 303.479 413.011 304.007 412.761C304.54 412.51 305.154 412.385 305.847 412.385C306.524 412.385 307.09 412.35 307.543 412.281C307.996 412.206 308.391 412.102 308.727 411.969C309.068 411.835 309.407 411.689 309.743 411.529ZM305.863 413.617C305.292 413.617 304.863 413.779 304.575 414.105C304.287 414.425 304.143 414.843 304.143 415.361C304.143 415.894 304.29 416.323 304.583 416.649C304.882 416.969 305.316 417.129 305.887 417.129C306.415 417.129 306.818 416.974 307.095 416.665C307.378 416.355 307.519 415.915 307.519 415.345C307.519 414.769 307.38 414.337 307.103 414.049C306.826 413.761 306.412 413.617 305.863 413.617ZM313.713 417.401C313.75 417.977 313.873 418.449 314.081 418.817C314.289 419.179 314.561 419.446 314.897 419.617C315.238 419.787 315.611 419.873 316.017 419.873C316.433 419.873 316.817 419.809 317.169 419.681C317.521 419.553 317.875 419.371 318.233 419.137L319.009 420.209C318.614 420.529 318.153 420.785 317.625 420.977C317.097 421.169 316.531 421.265 315.929 421.265C315.054 421.265 314.313 421.078 313.705 420.705C313.102 420.331 312.643 419.811 312.329 419.145C312.014 418.478 311.857 417.707 311.857 416.833C311.857 415.985 312.011 415.227 312.321 414.561C312.63 413.889 313.073 413.358 313.649 412.969C314.225 412.574 314.913 412.377 315.713 412.377C316.465 412.377 317.11 412.547 317.649 412.889C318.193 413.23 318.611 413.715 318.905 414.345C319.203 414.969 319.353 415.721 319.353 416.601C319.353 416.745 319.347 416.889 319.337 417.033C319.331 417.171 319.323 417.294 319.313 417.401H313.713ZM315.729 413.705C315.169 413.705 314.705 413.905 314.337 414.305C313.974 414.705 313.763 415.329 313.705 416.177H317.617C317.601 415.382 317.43 414.771 317.105 414.345C316.785 413.918 316.326 413.705 315.729 413.705ZM321.819 421.049V412.601H323.363L323.499 413.697C323.851 413.265 324.267 412.937 324.747 412.713C325.227 412.489 325.72 412.377 326.227 412.377C327.016 412.377 327.605 412.598 327.995 413.041C328.389 413.478 328.587 414.094 328.587 414.889V421.049H326.795V415.777C326.795 415.286 326.765 414.891 326.707 414.593C326.648 414.294 326.531 414.078 326.355 413.945C326.184 413.811 325.928 413.745 325.587 413.745C325.315 413.745 325.056 413.803 324.811 413.921C324.565 414.038 324.341 414.193 324.139 414.385C323.936 414.571 323.76 414.771 323.611 414.985V421.049H321.819ZM338.468 420.601C338.159 420.798 337.788 420.958 337.356 421.081C336.924 421.203 336.474 421.265 336.004 421.265C335.023 421.265 334.276 421.011 333.764 420.505C333.258 419.993 333.004 419.321 333.004 418.489V413.905H331.124V412.601H333.004V410.713L334.796 410.497V412.601H337.644L337.444 413.905H334.796V418.473C334.796 418.926 334.908 419.265 335.132 419.489C335.362 419.707 335.735 419.817 336.252 419.817C336.562 419.817 336.847 419.779 337.108 419.705C337.37 419.63 337.607 419.534 337.82 419.417L338.468 420.601Z" fill="white"/>
<path d="M202.402 463.346H199.88C197.558 463.346 195.676 465.228 195.676 467.55V470.072C195.676 472.394 197.558 474.277 199.88 474.277H202.402C204.724 474.277 206.607 472.394 206.607 470.072V467.55C206.607 465.228 204.724 463.346 202.402 463.346Z" fill="white" fill-opacity="0.05"/>
<path d="M260.65 463.346H217.24C214.89 463.346 212.984 465.228 212.984 467.55V470.072C212.984 472.394 214.89 474.277 217.24 474.277H260.65C263.001 474.277 264.906 472.394 264.906 470.072V467.55C264.906 465.228 263.001 463.346 260.65 463.346Z" fill="white" fill-opacity="0.05"/>
<path d="M308.907 463.346H275.557C273.196 463.346 271.281 465.228 271.281 467.55V470.072C271.281 472.394 273.196 474.277 275.557 474.277H308.907C311.269 474.277 313.183 472.394 313.183 470.072V467.55C313.183 465.228 311.269 463.346 308.907 463.346Z" fill="white" fill-opacity="0.05"/>
<path d="M248.843 485.209H199.895C197.565 485.209 195.676 487.091 195.676 489.413V491.936C195.676 494.258 197.565 496.14 199.895 496.14H248.843C251.174 496.14 253.063 494.258 253.063 491.936V489.413C253.063 487.091 251.174 485.209 248.843 485.209Z" fill="white" fill-opacity="0.05"/>
<path d="M302.578 485.209H263.669C261.333 485.209 259.439 487.091 259.439 489.413V491.936C259.439 494.258 261.333 496.14 263.669 496.14H302.578C304.913 496.14 306.807 494.258 306.807 491.936V489.413C306.807 487.091 304.913 485.209 302.578 485.209Z" fill="white" fill-opacity="0.05"/>
<path d="M373.664 485.209H318.291C315.974 485.209 314.096 487.091 314.096 489.413V491.936C314.096 494.258 315.974 496.14 318.291 496.14H373.664C375.981 496.14 377.859 494.258 377.859 491.936V489.413C377.859 487.091 375.981 485.209 373.664 485.209Z" fill="white" fill-opacity="0.05"/>
<path d="M231.581 441.484H199.851C197.545 441.484 195.676 443.367 195.676 445.689V448.211C195.676 450.533 197.545 452.415 199.851 452.415H231.581C233.887 452.415 235.756 450.533 235.756 448.211V445.689C235.756 443.367 233.887 441.484 231.581 441.484Z" fill="white" fill-opacity="0.05"/>
<path d="M298.988 441.484H247.218C244.912 441.484 243.043 443.367 243.043 445.689V448.211C243.043 450.533 244.912 452.415 247.218 452.415H298.988C301.294 452.415 303.163 450.533 303.163 448.211V445.689C303.163 443.367 301.294 441.484 298.988 441.484Z" fill="white" fill-opacity="0.05"/>
<path d="M366.337 441.484H314.685C312.347 441.484 310.451 443.367 310.451 445.689V448.211C310.451 450.533 312.347 452.415 314.685 452.415H366.337C368.676 452.415 370.571 450.533 370.571 448.211V445.689C370.571 443.367 368.676 441.484 366.337 441.484Z" fill="white" fill-opacity="0.05"/>
<rect x="205.938" y="40.6836" width="1.6945" height="444.807" fill="url(#paint1_linear_205_5482)"/>
<rect x="162.729" y="40.6836" width="1.6945" height="444.807" fill="url(#paint2_linear_205_5482)"/>
<rect x="248.301" y="40.6836" width="1.6945" height="444.807" fill="url(#paint3_linear_205_5482)"/>
<rect x="290.664" y="40.6836" width="1.6945" height="444.807" fill="url(#paint4_linear_205_5482)"/>
<rect x="333.025" y="40.6836" width="1.6945" height="444.807" fill="url(#paint5_linear_205_5482)"/>
<rect x="375.389" y="40.6836" width="1.6945" height="444.807" fill="url(#paint6_linear_205_5482)"/>
<rect x="417.752" y="40.6836" width="1.6945" height="444.807" fill="url(#paint7_linear_205_5482)"/>
<rect x="460.113" y="40.6836" width="1.6945" height="444.807" fill="url(#paint8_linear_205_5482)"/>
<rect x="502.477" y="40.6836" width="1.6945" height="444.807" fill="url(#paint9_linear_205_5482)"/>
<rect x="544.84" y="40.6836" width="1.6945" height="444.807" fill="url(#paint10_linear_205_5482)"/>
<rect x="609.229" y="114.395" width="1.6945" height="509.198" transform="rotate(90 609.229 114.395)" fill="url(#paint11_linear_205_5482)"/>
<rect x="609.229" y="71.1855" width="1.6945" height="509.198" transform="rotate(90 609.229 71.1855)" fill="url(#paint12_linear_205_5482)"/>
<rect x="609.229" y="156.758" width="1.6945" height="509.198" transform="rotate(90 609.229 156.758)" fill="url(#paint13_linear_205_5482)"/>
<rect x="609.229" y="199.121" width="1.6945" height="509.198" transform="rotate(90 609.229 199.121)" fill="url(#paint14_linear_205_5482)"/>
<rect x="609.229" y="241.482" width="1.6945" height="509.198" transform="rotate(90 609.229 241.482)" fill="url(#paint15_linear_205_5482)"/>
<rect x="609.229" y="283.846" width="1.6945" height="509.198" transform="rotate(90 609.229 283.846)" fill="url(#paint16_linear_205_5482)"/>
<rect x="609.229" y="326.209" width="1.6945" height="509.198" transform="rotate(90 609.229 326.209)" fill="url(#paint17_linear_205_5482)"/>
<rect x="609.229" y="368.57" width="1.6945" height="509.198" transform="rotate(90 609.229 368.57)" fill="url(#paint18_linear_205_5482)"/>
<rect x="609.229" y="410.934" width="1.6945" height="509.198" transform="rotate(90 609.229 410.934)" fill="url(#paint19_linear_205_5482)"/>
<rect x="609.229" y="453.297" width="1.6945" height="509.198" transform="rotate(90 609.229 453.297)" fill="url(#paint20_linear_205_5482)"/>
<circle cx="348.709" cy="237.44" r="59.2091" fill="white" fill-opacity="0.05"/>
<circle cx="348.71" cy="237.44" r="48.2782" fill="white" fill-opacity="0.1"/>
<circle cx="348.71" cy="237.44" r="33.7037" fill="white" fill-opacity="0.15"/>
<path d="M348.709 252.621C357.094 252.621 363.891 245.824 363.891 237.44C363.891 229.055 357.094 222.258 348.709 222.258C340.324 222.258 333.527 229.055 333.527 237.44C333.527 245.824 340.324 252.621 348.709 252.621Z" stroke="white" stroke-width="2" stroke-linecap="round" stroke-linejoin="round"/>
<path d="M333.527 237.439H363.891" stroke="white" stroke-width="2" stroke-linecap="round" stroke-linejoin="round"/>
<path d="M348.707 222.258C352.505 226.415 354.663 231.81 354.78 237.44C354.663 243.069 352.505 248.464 348.707 252.621C344.91 248.464 342.752 243.069 342.635 237.44C342.752 231.81 344.91 226.415 348.707 222.258V222.258Z" stroke="white" stroke-width="2" stroke-linecap="round" stroke-linejoin="round"/>
<rect x="382.912" y="30.252" width="179.36" height="53.6546" rx="9.5" fill="white" fill-opacity="0.05" stroke="url(#paint21_linear_205_5482)"/>
<rect x="382.912" y="103.125" width="179.36" height="53.6546" rx="9.5" fill="white" fill-opacity="0.05" stroke="url(#paint22_linear_205_5482)"/>
<circle opacity="0.2" cx="7.28728" cy="7.28728" r="7.28728" transform="matrix(1 0 0 -1 400.631 64.3672)" fill="#66FFA3"/>
<circle opacity="0.2" cx="7.28728" cy="7.28728" r="7.28728" transform="matrix(1 0 0 -1 400.631 137.238)" fill="white" fill-opacity="0.4"/>
<path d="M297.244 354.491C294.966 354.491 293.145 356.313 293.145 358.59C293.145 360.868 294.966 362.689 297.244 362.689C299.521 362.689 301.343 360.868 301.343 358.59C301.343 356.313 299.521 354.491 297.244 354.491Z" fill="#6016FC"/>
<path d="M297.244 354.491V347.619C297.244 336.574 306.198 327.619 317.244 327.619H328.71C339.756 327.619 348.71 318.665 348.71 307.619V296.648M293.145 358.59C293.145 356.313 294.966 354.491 297.244 354.491C299.521 354.491 301.343 356.313 301.343 358.59C301.343 360.868 299.521 362.689 297.244 362.689C294.966 362.689 293.145 360.868 293.145 358.59Z" stroke="white" stroke-opacity="0.1" stroke-width="3"/>
<path d="M382.413 125.854C380.135 125.854 378.314 127.675 378.314 129.953C378.314 132.23 380.135 134.052 382.413 134.052C384.69 134.052 386.512 132.23 386.512 129.953C386.512 127.675 384.69 125.854 382.413 125.854Z" fill="#6016FC"/>
<path d="M378.314 129.953C378.314 127.675 380.135 125.854 382.413 125.854C384.69 125.854 386.512 127.675 386.512 129.953C386.512 132.23 384.69 134.052 382.413 134.052C380.135 134.052 378.314 132.23 378.314 129.953ZM378.314 129.953H368.709C357.663 129.953 348.709 138.907 348.709 149.953V178.231" stroke="white" stroke-opacity="0.1" stroke-width="3"/>
<defs>
<filter id="filter0_f_205_5482" x="0.484375" y="-30.3965" width="716.188" height="606.104" filterUnits="userSpaceOnUse" color-interpolation-filters="sRGB">
<feFlood flood-opacity="0" result="BackgroundImageFix"/>
<feBlend mode="normal" in="SourceGraphic" in2="BackgroundImageFix" result="shape"/>
<feGaussianBlur stdDeviation="41" result="effect1_foregroundBlur_205_5482"/>
</filter>
<linearGradient id="paint0_linear_205_5482" x1="171.082" y1="441.485" x2="438.889" y2="441.485" gradientUnits="userSpaceOnUse">
<stop stop-color="#8F07FF"/>
<stop offset="1" stop-color="#EEA2FB"/>
</linearGradient>
<linearGradient id="paint1_linear_205_5482" x1="206.785" y1="40.6836" x2="206.785" y2="485.491" gradientUnits="userSpaceOnUse">
<stop stop-color="white" stop-opacity="0.02"/>
<stop offset="0.479167" stop-color="white" stop-opacity="0.05"/>
<stop offset="0.994792" stop-color="white" stop-opacity="0.01"/>
</linearGradient>
<linearGradient id="paint2_linear_205_5482" x1="163.576" y1="40.6836" x2="163.576" y2="485.491" gradientUnits="userSpaceOnUse">
<stop stop-color="white" stop-opacity="0.02"/>
<stop offset="0.479167" stop-color="white" stop-opacity="0.05"/>
<stop offset="0.994792" stop-color="white" stop-opacity="0.01"/>
</linearGradient>
<linearGradient id="paint3_linear_205_5482" x1="249.148" y1="40.6836" x2="249.148" y2="485.491" gradientUnits="userSpaceOnUse">
<stop stop-color="white" stop-opacity="0.02"/>
<stop offset="0.479167" stop-color="white" stop-opacity="0.05"/>
<stop offset="0.994792" stop-color="white" stop-opacity="0.01"/>
</linearGradient>
<linearGradient id="paint4_linear_205_5482" x1="291.511" y1="40.6836" x2="291.511" y2="485.491" gradientUnits="userSpaceOnUse">
<stop stop-color="white" stop-opacity="0.02"/>
<stop offset="0.479167" stop-color="white" stop-opacity="0.05"/>
<stop offset="0.994792" stop-color="white" stop-opacity="0.01"/>
</linearGradient>
<linearGradient id="paint5_linear_205_5482" x1="333.873" y1="40.6836" x2="333.873" y2="485.491" gradientUnits="userSpaceOnUse">
<stop stop-color="white" stop-opacity="0.02"/>
<stop offset="0.479167" stop-color="white" stop-opacity="0.05"/>
<stop offset="0.994792" stop-color="white" stop-opacity="0.01"/>
</linearGradient>
<linearGradient id="paint6_linear_205_5482" x1="376.236" y1="40.6836" x2="376.236" y2="485.491" gradientUnits="userSpaceOnUse">
<stop stop-color="white" stop-opacity="0.02"/>
<stop offset="0.479167" stop-color="white" stop-opacity="0.05"/>
<stop offset="0.994792" stop-color="white" stop-opacity="0.01"/>
</linearGradient>
<linearGradient id="paint7_linear_205_5482" x1="418.599" y1="40.6836" x2="418.599" y2="485.491" gradientUnits="userSpaceOnUse">
<stop stop-color="white" stop-opacity="0.02"/>
<stop offset="0.479167" stop-color="white" stop-opacity="0.05"/>
<stop offset="0.994792" stop-color="white" stop-opacity="0.01"/>
</linearGradient>
<linearGradient id="paint8_linear_205_5482" x1="460.961" y1="40.6836" x2="460.961" y2="485.491" gradientUnits="userSpaceOnUse">
<stop stop-color="white" stop-opacity="0.02"/>
<stop offset="0.479167" stop-color="white" stop-opacity="0.05"/>
<stop offset="0.994792" stop-color="white" stop-opacity="0.01"/>
</linearGradient>
<linearGradient id="paint9_linear_205_5482" x1="503.324" y1="40.6836" x2="503.324" y2="485.491" gradientUnits="userSpaceOnUse">
<stop stop-color="white" stop-opacity="0.02"/>
<stop offset="0.479167" stop-color="white" stop-opacity="0.05"/>
<stop offset="0.994792" stop-color="white" stop-opacity="0.01"/>
</linearGradient>
<linearGradient id="paint10_linear_205_5482" x1="545.687" y1="40.6836" x2="545.687" y2="485.491" gradientUnits="userSpaceOnUse">
<stop stop-color="white" stop-opacity="0.02"/>
<stop offset="0.479167" stop-color="white" stop-opacity="0.05"/>
<stop offset="0.994792" stop-color="white" stop-opacity="0.01"/>
</linearGradient>
<linearGradient id="paint11_linear_205_5482" x1="610.076" y1="114.395" x2="610.076" y2="623.593" gradientUnits="userSpaceOnUse">
<stop stop-color="white" stop-opacity="0"/>
<stop offset="0.479167" stop-color="white" stop-opacity="0.02"/>
<stop offset="0.994792" stop-color="white" stop-opacity="0"/>
</linearGradient>
<linearGradient id="paint12_linear_205_5482" x1="610.076" y1="71.1855" x2="610.076" y2="580.384" gradientUnits="userSpaceOnUse">
<stop stop-color="white" stop-opacity="0"/>
<stop offset="0.479167" stop-color="white" stop-opacity="0.02"/>
<stop offset="0.994792" stop-color="white" stop-opacity="0"/>
</linearGradient>
<linearGradient id="paint13_linear_205_5482" x1="610.076" y1="156.758" x2="610.076" y2="665.956" gradientUnits="userSpaceOnUse">
<stop stop-color="white" stop-opacity="0"/>
<stop offset="0.479167" stop-color="white" stop-opacity="0.02"/>
<stop offset="0.994792" stop-color="white" stop-opacity="0"/>
</linearGradient>
<linearGradient id="paint14_linear_205_5482" x1="610.076" y1="199.121" x2="610.076" y2="708.32" gradientUnits="userSpaceOnUse">
<stop stop-color="white" stop-opacity="0"/>
<stop offset="0.479167" stop-color="white" stop-opacity="0.02"/>
<stop offset="0.994792" stop-color="white" stop-opacity="0"/>
</linearGradient>
<linearGradient id="paint15_linear_205_5482" x1="610.076" y1="241.482" x2="610.076" y2="750.681" gradientUnits="userSpaceOnUse">
<stop stop-color="white" stop-opacity="0"/>
<stop offset="0.479167" stop-color="white" stop-opacity="0.02"/>
<stop offset="0.994792" stop-color="white" stop-opacity="0"/>
</linearGradient>
<linearGradient id="paint16_linear_205_5482" x1="610.076" y1="283.846" x2="610.076" y2="793.044" gradientUnits="userSpaceOnUse">
<stop stop-color="white" stop-opacity="0"/>
<stop offset="0.479167" stop-color="white" stop-opacity="0.02"/>
<stop offset="0.994792" stop-color="white" stop-opacity="0"/>
</linearGradient>
<linearGradient id="paint17_linear_205_5482" x1="610.076" y1="326.209" x2="610.076" y2="835.407" gradientUnits="userSpaceOnUse">
<stop stop-color="white" stop-opacity="0"/>
<stop offset="0.479167" stop-color="white" stop-opacity="0.02"/>
<stop offset="0.994792" stop-color="white" stop-opacity="0"/>
</linearGradient>
<linearGradient id="paint18_linear_205_5482" x1="610.076" y1="368.57" x2="610.076" y2="877.769" gradientUnits="userSpaceOnUse">
<stop stop-color="white" stop-opacity="0"/>
<stop offset="0.479167" stop-color="white" stop-opacity="0.02"/>
<stop offset="0.994792" stop-color="white" stop-opacity="0"/>
</linearGradient>
<linearGradient id="paint19_linear_205_5482" x1="610.076" y1="410.934" x2="610.076" y2="920.132" gradientUnits="userSpaceOnUse">
<stop stop-color="white" stop-opacity="0"/>
<stop offset="0.479167" stop-color="white" stop-opacity="0.02"/>
<stop offset="0.994792" stop-color="white" stop-opacity="0"/>
</linearGradient>
<linearGradient id="paint20_linear_205_5482" x1="610.076" y1="453.297" x2="610.076" y2="962.495" gradientUnits="userSpaceOnUse">
<stop stop-color="white" stop-opacity="0"/>
<stop offset="0.479167" stop-color="white" stop-opacity="0.02"/>
<stop offset="0.994792" stop-color="white" stop-opacity="0"/>
</linearGradient>
<linearGradient id="paint21_linear_205_5482" x1="382.412" y1="57.0792" x2="562.772" y2="57.0792" gradientUnits="userSpaceOnUse">
<stop stop-color="#8F07FF"/>
<stop offset="1" stop-color="#EEA2FB"/>
</linearGradient>
<linearGradient id="paint22_linear_205_5482" x1="382.412" y1="129.952" x2="562.772" y2="129.952" gradientUnits="userSpaceOnUse">
<stop stop-color="#8F07FF"/>
<stop offset="1" stop-color="#EEA2FB"/>
</linearGradient>
</defs>
</svg>
