<svg width="36" height="36" viewBox="0 0 36 36" fill="none" xmlns="http://www.w3.org/2000/svg">
<path d="M12.7556 18L15.1905 15.5655C15.4135 15.3423 15.5235 15.0811 15.5205 14.7821C15.5178 14.4831 15.4078 14.2172 15.1905 13.9845C14.9578 13.752 14.6904 13.6319 14.3884 13.6241C14.0866 13.6164 13.8194 13.7289 13.5866 13.9616L10.497 17.0509C10.226 17.3221 10.0905 17.6385 10.0905 18C10.0905 18.3615 10.226 18.6779 10.497 18.9491L13.5866 22.0384C13.8096 22.2614 14.0745 22.3715 14.3813 22.3688C14.688 22.3658 14.9578 22.248 15.1905 22.0155C15.4078 21.7827 15.5203 21.5193 15.528 21.225C15.5355 20.9307 15.423 20.6673 15.1905 20.4345L12.7556 18ZM23.2444 18L20.8095 20.4345C20.5865 20.6578 20.4765 20.9189 20.4795 21.2179C20.4823 21.5169 20.5922 21.7827 20.8095 22.0155C21.0422 22.248 21.3096 22.3681 21.6116 22.3759C21.9134 22.3836 22.1806 22.2711 22.4134 22.0384L25.503 18.9491C25.774 18.6779 25.9095 18.3615 25.9095 18C25.9095 17.6385 25.774 17.3221 25.503 17.0509L22.4134 13.9616C22.1904 13.7386 21.9255 13.6285 21.6188 13.6313C21.312 13.6343 21.0422 13.752 20.8095 13.9845C20.5922 14.2172 20.4797 14.4808 20.472 14.775C20.4645 15.0693 20.577 15.3328 20.8095 15.5655L23.2444 18ZM7.96163 30.75C7.21362 30.75 6.57463 30.4851 6.04463 29.9554C5.51488 29.4254 5.25 28.7864 5.25 28.0384L5.25 7.96163C5.25 7.21362 5.51488 6.57463 6.04463 6.04463C6.57463 5.51488 7.21362 5.25 7.96163 5.25L14.6366 5.25C14.7309 4.41725 15.0944 3.70912 15.7271 3.12562C16.3596 2.54187 17.1173 2.25 18 2.25C18.8923 2.25 19.6548 2.54187 20.2875 3.12562C20.9203 3.70912 21.2789 4.41725 21.3634 5.25L28.0384 5.25C28.7864 5.25 29.4254 5.51488 29.9554 6.04463C30.4851 6.57463 30.75 7.21362 30.75 7.96163L30.75 28.0384C30.75 28.7864 30.4851 29.4254 29.9554 29.9554C29.4254 30.4851 28.7864 30.75 28.0384 30.75L7.96163 30.75ZM7.96163 28.5L28.0384 28.5C28.1539 28.5 28.2596 28.4519 28.3556 28.3556C28.4519 28.2596 28.5 28.1539 28.5 28.0384L28.5 7.96163C28.5 7.84613 28.4519 7.74037 28.3556 7.64437C28.2596 7.54812 28.1539 7.5 28.0384 7.5L7.96163 7.5C7.84613 7.5 7.74038 7.54812 7.64438 7.64437C7.54813 7.74037 7.5 7.84613 7.5 7.96163L7.5 28.0384C7.5 28.1539 7.54813 28.2596 7.64438 28.3556C7.74038 28.4519 7.84613 28.5 7.96163 28.5ZM18 6.51937C18.325 6.51937 18.5938 6.41312 18.8063 6.20062C19.0188 5.98812 19.125 5.71937 19.125 5.39437C19.125 5.06937 19.0188 4.80062 18.8063 4.58812C18.5938 4.37562 18.325 4.26937 18 4.26937C17.675 4.26937 17.4063 4.37562 17.1938 4.58812C16.9813 4.80062 16.875 5.06937 16.875 5.39437C16.875 5.71937 16.9813 5.98812 17.1938 6.20062C17.4063 6.41312 17.675 6.51937 18 6.51937Z" fill="#FEFEFE"/>
<path d="M12.7556 18L15.1905 15.5655C15.4135 15.3423 15.5235 15.0811 15.5205 14.7821C15.5178 14.4831 15.4078 14.2172 15.1905 13.9845C14.9578 13.752 14.6904 13.6319 14.3884 13.6241C14.0866 13.6164 13.8194 13.7289 13.5866 13.9616L10.497 17.0509C10.226 17.3221 10.0905 17.6385 10.0905 18C10.0905 18.3615 10.226 18.6779 10.497 18.9491L13.5866 22.0384C13.8096 22.2614 14.0745 22.3715 14.3813 22.3688C14.688 22.3658 14.9578 22.248 15.1905 22.0155C15.4078 21.7827 15.5203 21.5193 15.528 21.225C15.5355 20.9307 15.423 20.6673 15.1905 20.4345L12.7556 18ZM23.2444 18L20.8095 20.4345C20.5865 20.6578 20.4765 20.9189 20.4795 21.2179C20.4823 21.5169 20.5922 21.7827 20.8095 22.0155C21.0422 22.248 21.3096 22.3681 21.6116 22.3759C21.9134 22.3836 22.1806 22.2711 22.4134 22.0384L25.503 18.9491C25.774 18.6779 25.9095 18.3615 25.9095 18C25.9095 17.6385 25.774 17.3221 25.503 17.0509L22.4134 13.9616C22.1904 13.7386 21.9255 13.6285 21.6188 13.6313C21.312 13.6343 21.0422 13.752 20.8095 13.9845C20.5922 14.2172 20.4797 14.4808 20.472 14.775C20.4645 15.0693 20.577 15.3328 20.8095 15.5655L23.2444 18ZM7.96163 30.75C7.21362 30.75 6.57463 30.4851 6.04463 29.9554C5.51488 29.4254 5.25 28.7864 5.25 28.0384L5.25 7.96163C5.25 7.21362 5.51488 6.57463 6.04463 6.04463C6.57463 5.51488 7.21362 5.25 7.96163 5.25L14.6366 5.25C14.7309 4.41725 15.0944 3.70912 15.7271 3.12562C16.3596 2.54187 17.1173 2.25 18 2.25C18.8923 2.25 19.6548 2.54187 20.2875 3.12562C20.9203 3.70912 21.2789 4.41725 21.3634 5.25L28.0384 5.25C28.7864 5.25 29.4254 5.51488 29.9554 6.04463C30.4851 6.57463 30.75 7.21362 30.75 7.96163L30.75 28.0384C30.75 28.7864 30.4851 29.4254 29.9554 29.9554C29.4254 30.4851 28.7864 30.75 28.0384 30.75L7.96163 30.75ZM7.96163 28.5L28.0384 28.5C28.1539 28.5 28.2596 28.4519 28.3556 28.3556C28.4519 28.2596 28.5 28.1539 28.5 28.0384L28.5 7.96163C28.5 7.84613 28.4519 7.74037 28.3556 7.64437C28.2596 7.54812 28.1539 7.5 28.0384 7.5L7.96163 7.5C7.84613 7.5 7.74038 7.54812 7.64438 7.64437C7.54813 7.74037 7.5 7.84613 7.5 7.96163L7.5 28.0384C7.5 28.1539 7.54813 28.2596 7.64438 28.3556C7.74038 28.4519 7.84613 28.5 7.96163 28.5ZM18 6.51937C18.325 6.51937 18.5938 6.41312 18.8063 6.20062C19.0188 5.98812 19.125 5.71937 19.125 5.39437C19.125 5.06937 19.0188 4.80062 18.8063 4.58812C18.5938 4.37562 18.325 4.26937 18 4.26937C17.675 4.26937 17.4063 4.37562 17.1938 4.58812C16.9813 4.80062 16.875 5.06937 16.875 5.39437C16.875 5.71937 16.9813 5.98812 17.1938 6.20062C17.4063 6.41312 17.675 6.51937 18 6.51937Z" fill="url(#paint0_angular_1257_16098)" style="mix-blend-mode:difference"/>
<defs>
<radialGradient id="paint0_angular_1257_16098" cx="0" cy="0" r="1" gradientUnits="userSpaceOnUse" gradientTransform="translate(17.4367 19.2941) rotate(85.3521) scale(13.9215 12.7008)">
<stop offset="0.0267408" stop-color="#2D2B2B"/>
<stop offset="0.144403" stop-color="#3D3838"/>
<stop offset="0.226247" stop-color="#201C1C"/>
<stop offset="0.411006"/>
<stop offset="0.492082" stop-color="#342B2B"/>
<stop offset="0.793963"/>
<stop offset="0.939288" stop-color="#262424"/>
</radialGradient>
</defs>
</svg>
