<svg width="37" height="36" viewBox="0 0 37 36" fill="none" xmlns="http://www.w3.org/2000/svg">
<g id="emoji_objects_24dp_5F6368_FILL0_wght300_GRAD0_opsz24 1">
<g id="Vector">
<path d="M18.668 31.4134C18.066 31.4134 17.5337 31.2548 17.0712 30.9375C16.6087 30.62 16.2852 30.2036 16.1007 29.6884L15.668 29.6884C15.0545 29.6884 14.5261 29.4668 14.0828 29.0235C13.6396 28.5803 13.418 28.0519 13.418 27.4384L13.418 22.5173C11.9045 21.6 10.7136 20.3703 9.84534 18.828C8.97709 17.2855 8.54297 15.6345 8.54297 13.875C8.54297 11.052 9.52472 8.65875 11.4882 6.69525C13.4517 4.73175 15.845 3.75 18.668 3.75C21.491 3.75 23.8842 4.73175 25.8477 6.69525C27.8112 8.65875 28.793 11.052 28.793 13.875C28.793 15.6653 28.3588 17.3239 27.4906 18.8509C26.6223 20.3779 25.4315 21.6 23.918 22.5173L23.918 27.4384C23.918 28.0519 23.6963 28.5803 23.2531 29.0235C22.8098 29.4668 22.2815 29.6884 21.668 29.6884L21.2352 29.6884C21.0507 30.2036 20.7272 30.62 20.2647 30.9375C19.8022 31.2548 19.27 31.4134 18.668 31.4134ZM15.668 27.4384L21.668 27.4384L21.668 26.0306L15.668 26.0306L15.668 27.4384ZM15.668 24.7039L21.668 24.7039L21.668 23.25L15.668 23.25L15.668 24.7039ZM15.368 21L17.7736 21L17.7736 16.6327L15.1891 14.0479C15.0121 13.8711 14.9212 13.664 14.9165 13.4265C14.9117 13.189 15.0026 12.977 15.1891 12.7905C15.3756 12.604 15.5852 12.5107 15.818 12.5107C16.0507 12.5107 16.2603 12.604 16.4468 12.7905L18.668 15.0116L20.8891 12.7905C21.0661 12.6135 21.2733 12.5226 21.5108 12.5179C21.7483 12.5131 21.9603 12.604 22.1468 12.7905C22.3333 12.977 22.4266 13.1866 22.4266 13.4194C22.4266 13.6519 22.3333 13.8614 22.1468 14.0479L19.5623 16.6327L19.5623 21L21.968 21C23.318 20.35 24.418 19.3938 25.268 18.1313C26.118 16.8688 26.543 15.45 26.543 13.875C26.543 11.675 25.7805 9.8125 24.2555 8.2875C22.7305 6.7625 20.868 6 18.668 6C16.468 6 14.6055 6.7625 13.0805 8.2875C11.5555 9.8125 10.793 11.675 10.793 13.875C10.793 15.45 11.218 16.8688 12.068 18.1313C12.918 19.3938 14.018 20.35 15.368 21Z" fill="#FEFEFE"/>
<path d="M18.668 31.4134C18.066 31.4134 17.5337 31.2548 17.0712 30.9375C16.6087 30.62 16.2852 30.2036 16.1007 29.6884L15.668 29.6884C15.0545 29.6884 14.5261 29.4668 14.0828 29.0235C13.6396 28.5803 13.418 28.0519 13.418 27.4384L13.418 22.5173C11.9045 21.6 10.7136 20.3703 9.84534 18.828C8.97709 17.2855 8.54297 15.6345 8.54297 13.875C8.54297 11.052 9.52472 8.65875 11.4882 6.69525C13.4517 4.73175 15.845 3.75 18.668 3.75C21.491 3.75 23.8842 4.73175 25.8477 6.69525C27.8112 8.65875 28.793 11.052 28.793 13.875C28.793 15.6653 28.3588 17.3239 27.4906 18.8509C26.6223 20.3779 25.4315 21.6 23.918 22.5173L23.918 27.4384C23.918 28.0519 23.6963 28.5803 23.2531 29.0235C22.8098 29.4668 22.2815 29.6884 21.668 29.6884L21.2352 29.6884C21.0507 30.2036 20.7272 30.62 20.2647 30.9375C19.8022 31.2548 19.27 31.4134 18.668 31.4134ZM15.668 27.4384L21.668 27.4384L21.668 26.0306L15.668 26.0306L15.668 27.4384ZM15.668 24.7039L21.668 24.7039L21.668 23.25L15.668 23.25L15.668 24.7039ZM15.368 21L17.7736 21L17.7736 16.6327L15.1891 14.0479C15.0121 13.8711 14.9212 13.664 14.9165 13.4265C14.9117 13.189 15.0026 12.977 15.1891 12.7905C15.3756 12.604 15.5852 12.5107 15.818 12.5107C16.0507 12.5107 16.2603 12.604 16.4468 12.7905L18.668 15.0116L20.8891 12.7905C21.0661 12.6135 21.2733 12.5226 21.5108 12.5179C21.7483 12.5131 21.9603 12.604 22.1468 12.7905C22.3333 12.977 22.4266 13.1866 22.4266 13.4194C22.4266 13.6519 22.3333 13.8614 22.1468 14.0479L19.5623 16.6327L19.5623 21L21.968 21C23.318 20.35 24.418 19.3938 25.268 18.1313C26.118 16.8688 26.543 15.45 26.543 13.875C26.543 11.675 25.7805 9.8125 24.2555 8.2875C22.7305 6.7625 20.868 6 18.668 6C16.468 6 14.6055 6.7625 13.0805 8.2875C11.5555 9.8125 10.793 11.675 10.793 13.875C10.793 15.45 11.218 16.8688 12.068 18.1313C12.918 19.3938 14.018 20.35 15.368 21Z" fill="url(#paint0_angular_1257_16137)" style="mix-blend-mode:difference"/>
</g>
</g>
<defs>
<radialGradient id="paint0_angular_1257_16137" cx="0" cy="0" r="1" gradientUnits="userSpaceOnUse" gradientTransform="translate(18.2206 20.2938) rotate(86.1946) scale(13.4981 10.0969)">
<stop offset="0.0267408" stop-color="#2D2B2B"/>
<stop offset="0.144403" stop-color="#3D3838"/>
<stop offset="0.226247" stop-color="#201C1C"/>
<stop offset="0.411006"/>
<stop offset="0.492082" stop-color="#342B2B"/>
<stop offset="0.793963"/>
<stop offset="0.939288" stop-color="#262424"/>
</radialGradient>
</defs>
</svg>
