<svg width="37" height="36" viewBox="0 0 37 36" fill="none" xmlns="http://www.w3.org/2000/svg">
<g id="rebase_eABCDt_24dp_5F6368_FILL0_wght300_GRAD0_opsz24 (1) 1">
<g id="Vector">
<path d="M16.2255 30.3174L16.2255 27.2282C16.2255 27.0492 16.2581 26.8813 16.3233 26.7246C16.3888 26.5678 16.4917 26.4193 16.632 26.2791L26.9763 15.9579C27.2031 15.7349 27.4536 15.5676 27.7278 15.4558C28.0018 15.3443 28.286 15.2886 28.5802 15.2886C28.8745 15.2886 29.1595 15.3419 29.4352 15.4487C29.7112 15.5554 29.9608 15.7203 30.1841 15.9433L31.9061 17.6597C32.1233 17.8924 32.2877 18.1468 32.3992 18.4228C32.5107 18.6988 32.5713 18.9809 32.5811 19.2692C32.5906 19.5577 32.5357 19.8399 32.4165 20.1159C32.2972 20.3919 32.129 20.6463 31.9117 20.8791L21.5475 31.2666C21.407 31.4068 21.2585 31.5097 21.102 31.5752C20.9452 31.6404 20.7773 31.6731 20.5983 31.6731L17.5811 31.6731C17.1971 31.6731 16.8751 31.5432 16.6151 31.2834C16.3553 31.0234 16.2255 30.7014 16.2255 30.3174ZM18.4755 29.4231L20.2061 29.4231L26.7858 22.8433L25.9207 21.9778L25.0121 21.0838L18.4755 27.6204L18.4755 29.4231ZM8.41158 31.6731C7.37083 31.6731 6.48508 31.3086 5.75433 30.5796C5.02358 29.8503 4.6582 28.9648 4.6582 27.9231C4.6582 27.0828 4.9057 26.3429 5.4007 25.7034C5.89595 25.0642 6.52345 24.6204 7.2832 24.3722L7.2832 11.6511C6.52345 11.4031 5.89595 10.9556 5.4007 10.3086C4.9057 9.66132 4.6582 8.91757 4.6582 8.07732C4.6582 7.03557 5.0227 6.15007 5.7517 5.42082C6.48095 4.69182 7.36645 4.32732 8.4082 4.32732C9.24845 4.32732 9.9922 4.57482 10.6395 5.06982C11.2865 5.56507 11.734 6.19257 11.982 6.95232L18.0022 6.95232L15.6656 4.62995C15.4331 4.40595 15.3168 4.1447 15.3168 3.8462C15.3168 3.5477 15.4331 3.28207 15.6656 3.04932C15.8983 2.81657 16.1657 2.7002 16.4677 2.7002C16.7695 2.7002 17.0367 2.81657 17.2695 3.04932L21.3483 7.1282C21.6196 7.3992 21.7552 7.71557 21.7552 8.07732C21.7552 8.43882 21.6196 8.75507 21.3483 9.02607L17.2466 13.1282C17.0233 13.3512 16.7622 13.4651 16.4632 13.4698C16.1642 13.4748 15.8983 13.3609 15.6656 13.1282C15.4331 12.8954 15.3168 12.6281 15.3168 12.3261C15.3168 12.0243 15.4331 11.7571 15.6656 11.5243L18.0022 9.20232L11.982 9.20232C11.7955 9.79457 11.4887 10.3041 11.0617 10.7308C10.635 11.1578 10.1255 11.4646 9.5332 11.6511L9.5332 24.3493C10.2927 24.5973 10.9201 25.0448 11.4153 25.6918C11.9103 26.3391 12.1578 27.0828 12.1578 27.9231C12.1578 28.9648 11.7936 29.8503 11.0651 30.5796C10.3366 31.3086 9.45208 31.6731 8.41158 31.6731ZM28.2506 4.32732C29.2913 4.32732 30.1771 4.69157 30.9078 5.42007C31.6386 6.14857 32.004 7.0332 32.004 8.07395C32.004 9.11445 31.6397 10.0001 30.9112 10.7308C30.1827 11.4616 29.2981 11.8269 28.2573 11.8269C27.2168 11.8269 26.3312 11.4627 25.6005 10.7342C24.8697 10.0057 24.5043 9.12119 24.5043 8.08069C24.5043 7.03994 24.8686 6.1542 25.5971 5.42345C26.3256 4.6927 27.2101 4.32732 28.2506 4.32732ZM8.4082 29.4231C8.8332 29.4231 9.18945 29.2793 9.47695 28.9918C9.76445 28.7043 9.9082 28.3481 9.9082 27.9231C9.9082 27.4981 9.76445 27.1418 9.47695 26.8543C9.18945 26.5668 8.8332 26.4231 8.4082 26.4231C7.9832 26.4231 7.62695 26.5668 7.33945 26.8543C7.05195 27.1418 6.9082 27.4981 6.9082 27.9231C6.9082 28.3481 7.05195 28.7043 7.33945 28.9918C7.62695 29.2793 7.9832 29.4231 8.4082 29.4231ZM8.4082 9.57732C8.8332 9.57732 9.18945 9.43357 9.47695 9.14607C9.76445 8.85857 9.9082 8.50232 9.9082 8.07732C9.9082 7.65232 9.76445 7.29607 9.47695 7.00857C9.18945 6.72107 8.8332 6.57732 8.4082 6.57732C7.9832 6.57732 7.62695 6.72107 7.33945 7.00857C7.05195 7.29607 6.9082 7.65232 6.9082 8.07732C6.9082 8.50232 7.05195 8.85857 7.33945 9.14607C7.62695 9.43357 7.9832 9.57732 8.4082 9.57732ZM28.254 9.57732C28.679 9.57732 29.0352 9.43357 29.3227 9.14607C29.6102 8.85857 29.754 8.50232 29.754 8.07732C29.754 7.65232 29.6102 7.29607 29.3227 7.00857C29.0352 6.72107 28.679 6.57732 28.254 6.57732C27.829 6.57732 27.4727 6.72107 27.1852 7.00857C26.8977 7.29607 26.754 7.65232 26.754 8.07732C26.754 8.50232 26.8977 8.85857 27.1852 9.14607C27.4727 9.43357 27.829 9.57732 28.254 9.57732Z" fill="#FEFEFE"/>
<path d="M16.2255 30.3174L16.2255 27.2282C16.2255 27.0492 16.2581 26.8813 16.3233 26.7246C16.3888 26.5678 16.4917 26.4193 16.632 26.2791L26.9763 15.9579C27.2031 15.7349 27.4536 15.5676 27.7278 15.4558C28.0018 15.3443 28.286 15.2886 28.5802 15.2886C28.8745 15.2886 29.1595 15.3419 29.4352 15.4487C29.7112 15.5554 29.9608 15.7203 30.1841 15.9433L31.9061 17.6597C32.1233 17.8924 32.2877 18.1468 32.3992 18.4228C32.5107 18.6988 32.5713 18.9809 32.5811 19.2692C32.5906 19.5577 32.5357 19.8399 32.4165 20.1159C32.2972 20.3919 32.129 20.6463 31.9117 20.8791L21.5475 31.2666C21.407 31.4068 21.2585 31.5097 21.102 31.5752C20.9452 31.6404 20.7773 31.6731 20.5983 31.6731L17.5811 31.6731C17.1971 31.6731 16.8751 31.5432 16.6151 31.2834C16.3553 31.0234 16.2255 30.7014 16.2255 30.3174ZM18.4755 29.4231L20.2061 29.4231L26.7858 22.8433L25.9207 21.9778L25.0121 21.0838L18.4755 27.6204L18.4755 29.4231ZM8.41158 31.6731C7.37083 31.6731 6.48508 31.3086 5.75433 30.5796C5.02358 29.8503 4.6582 28.9648 4.6582 27.9231C4.6582 27.0828 4.9057 26.3429 5.4007 25.7034C5.89595 25.0642 6.52345 24.6204 7.2832 24.3722L7.2832 11.6511C6.52345 11.4031 5.89595 10.9556 5.4007 10.3086C4.9057 9.66132 4.6582 8.91757 4.6582 8.07732C4.6582 7.03557 5.0227 6.15007 5.7517 5.42082C6.48095 4.69182 7.36645 4.32732 8.4082 4.32732C9.24845 4.32732 9.9922 4.57482 10.6395 5.06982C11.2865 5.56507 11.734 6.19257 11.982 6.95232L18.0022 6.95232L15.6656 4.62995C15.4331 4.40595 15.3168 4.1447 15.3168 3.8462C15.3168 3.5477 15.4331 3.28207 15.6656 3.04932C15.8983 2.81657 16.1657 2.7002 16.4677 2.7002C16.7695 2.7002 17.0367 2.81657 17.2695 3.04932L21.3483 7.1282C21.6196 7.3992 21.7552 7.71557 21.7552 8.07732C21.7552 8.43882 21.6196 8.75507 21.3483 9.02607L17.2466 13.1282C17.0233 13.3512 16.7622 13.4651 16.4632 13.4698C16.1642 13.4748 15.8983 13.3609 15.6656 13.1282C15.4331 12.8954 15.3168 12.6281 15.3168 12.3261C15.3168 12.0243 15.4331 11.7571 15.6656 11.5243L18.0022 9.20232L11.982 9.20232C11.7955 9.79457 11.4887 10.3041 11.0617 10.7308C10.635 11.1578 10.1255 11.4646 9.5332 11.6511L9.5332 24.3493C10.2927 24.5973 10.9201 25.0448 11.4153 25.6918C11.9103 26.3391 12.1578 27.0828 12.1578 27.9231C12.1578 28.9648 11.7936 29.8503 11.0651 30.5796C10.3366 31.3086 9.45208 31.6731 8.41158 31.6731ZM28.2506 4.32732C29.2913 4.32732 30.1771 4.69157 30.9078 5.42007C31.6386 6.14857 32.004 7.0332 32.004 8.07395C32.004 9.11445 31.6397 10.0001 30.9112 10.7308C30.1827 11.4616 29.2981 11.8269 28.2573 11.8269C27.2168 11.8269 26.3312 11.4627 25.6005 10.7342C24.8697 10.0057 24.5043 9.12119 24.5043 8.08069C24.5043 7.03994 24.8686 6.1542 25.5971 5.42345C26.3256 4.6927 27.2101 4.32732 28.2506 4.32732ZM8.4082 29.4231C8.8332 29.4231 9.18945 29.2793 9.47695 28.9918C9.76445 28.7043 9.9082 28.3481 9.9082 27.9231C9.9082 27.4981 9.76445 27.1418 9.47695 26.8543C9.18945 26.5668 8.8332 26.4231 8.4082 26.4231C7.9832 26.4231 7.62695 26.5668 7.33945 26.8543C7.05195 27.1418 6.9082 27.4981 6.9082 27.9231C6.9082 28.3481 7.05195 28.7043 7.33945 28.9918C7.62695 29.2793 7.9832 29.4231 8.4082 29.4231ZM8.4082 9.57732C8.8332 9.57732 9.18945 9.43357 9.47695 9.14607C9.76445 8.85857 9.9082 8.50232 9.9082 8.07732C9.9082 7.65232 9.76445 7.29607 9.47695 7.00857C9.18945 6.72107 8.8332 6.57732 8.4082 6.57732C7.9832 6.57732 7.62695 6.72107 7.33945 7.00857C7.05195 7.29607 6.9082 7.65232 6.9082 8.07732C6.9082 8.50232 7.05195 8.85857 7.33945 9.14607C7.62695 9.43357 7.9832 9.57732 8.4082 9.57732ZM28.254 9.57732C28.679 9.57732 29.0352 9.43357 29.3227 9.14607C29.6102 8.85857 29.754 8.50232 29.754 8.07732C29.754 7.65232 29.6102 7.29607 29.3227 7.00857C29.0352 6.72107 28.679 6.57732 28.254 6.57732C27.829 6.57732 27.4727 6.72107 27.1852 7.00857C26.8977 7.29607 26.754 7.65232 26.754 8.07732C26.754 8.50232 26.8977 8.85857 27.1852 9.14607C27.4727 9.43357 27.829 9.57732 28.254 9.57732Z" fill="url(#paint0_angular_1257_11844)" style="mix-blend-mode:difference"/>
</g>
</g>
<defs>
<radialGradient id="paint0_angular_1257_11844" cx="0" cy="0" r="1" gradientUnits="userSpaceOnUse" gradientTransform="translate(18.0033 20.0271) rotate(84.9951) scale(14.1599 13.9007)">
<stop offset="0.0267408" stop-color="#2D2B2B"/>
<stop offset="0.144403" stop-color="#3D3838"/>
<stop offset="0.226247" stop-color="#201C1C"/>
<stop offset="0.411006"/>
<stop offset="0.492082" stop-color="#342B2B"/>
<stop offset="0.793963"/>
<stop offset="0.939288" stop-color="#262424"/>
</radialGradient>
</defs>
</svg>
