<svg width="36" height="36" viewBox="0 0 36 36" fill="none" xmlns="http://www.w3.org/2000/svg">
<g id="api_24dp_5F6368_FILL0_wght300_GRAD0_opsz24 1">
<g id="Vector">
<path d="M18.0003 21.0003L15.0002 18.0003L18.0003 15.0003L21.0002 18.0003L18.0003 21.0003ZM14.8127 12.4473L11.6688 9.30325L16.0791 4.8925C16.3504 4.6215 16.6543 4.42063 16.9908 4.28988C17.3272 4.15913 17.6638 4.09375 18.0003 4.09375C18.3368 4.09375 18.6733 4.15913 19.0098 4.28988C19.3463 4.42063 19.6501 4.6215 19.9214 4.8925L24.3318 9.30325L21.1877 12.4473L18.0003 9.25975L14.8127 12.4473ZM9.30325 24.3318L4.8925 19.9214C4.6215 19.6501 4.42062 19.3463 4.28987 19.0098C4.15912 18.6733 4.09375 18.3368 4.09375 18.0003C4.09375 17.6638 4.15912 17.3273 4.28987 16.9908C4.42062 16.6543 4.6215 16.3504 4.8925 16.0791L9.30325 11.6688L12.4473 14.8128L9.25975 18.0003L12.4473 21.1878L9.30325 24.3318ZM26.6973 24.3318L23.5533 21.1878L26.7408 18.0003L23.5533 14.8128L26.6973 11.6688L31.108 16.0791C31.379 16.3504 31.5799 16.6543 31.7106 16.9908C31.8414 17.3273 31.9068 17.6638 31.9068 18.0003C31.9068 18.3368 31.8414 18.6733 31.7106 19.0098C31.5799 19.3463 31.379 19.6501 31.108 19.9214L26.6973 24.3318ZM16.0791 31.108L11.6688 26.6973L14.8127 23.5533L18.0003 26.7408L21.1877 23.5533L24.3318 26.6973L19.9214 31.108C19.6501 31.379 19.3463 31.5799 19.0098 31.7106C18.6733 31.8414 18.3368 31.9068 18.0003 31.9068C17.6638 31.9068 17.3272 31.8414 16.9908 31.7106C16.6543 31.5799 16.3504 31.379 16.0791 31.108Z" fill="#FEFEFE"/>
<path d="M18.0003 21.0003L15.0002 18.0003L18.0003 15.0003L21.0002 18.0003L18.0003 21.0003ZM14.8127 12.4473L11.6688 9.30325L16.0791 4.8925C16.3504 4.6215 16.6543 4.42063 16.9908 4.28988C17.3272 4.15913 17.6638 4.09375 18.0003 4.09375C18.3368 4.09375 18.6733 4.15913 19.0098 4.28988C19.3463 4.42063 19.6501 4.6215 19.9214 4.8925L24.3318 9.30325L21.1877 12.4473L18.0003 9.25975L14.8127 12.4473ZM9.30325 24.3318L4.8925 19.9214C4.6215 19.6501 4.42062 19.3463 4.28987 19.0098C4.15912 18.6733 4.09375 18.3368 4.09375 18.0003C4.09375 17.6638 4.15912 17.3273 4.28987 16.9908C4.42062 16.6543 4.6215 16.3504 4.8925 16.0791L9.30325 11.6688L12.4473 14.8128L9.25975 18.0003L12.4473 21.1878L9.30325 24.3318ZM26.6973 24.3318L23.5533 21.1878L26.7408 18.0003L23.5533 14.8128L26.6973 11.6688L31.108 16.0791C31.379 16.3504 31.5799 16.6543 31.7106 16.9908C31.8414 17.3273 31.9068 17.6638 31.9068 18.0003C31.9068 18.3368 31.8414 18.6733 31.7106 19.0098C31.5799 19.3463 31.379 19.6501 31.108 19.9214L26.6973 24.3318ZM16.0791 31.108L11.6688 26.6973L14.8127 23.5533L18.0003 26.7408L21.1877 23.5533L24.3318 26.6973L19.9214 31.108C19.6501 31.379 19.3463 31.5799 19.0098 31.7106C18.6733 31.8414 18.3368 31.9068 18.0003 31.9068C17.6638 31.9068 17.3272 31.8414 16.9908 31.7106C16.6543 31.5799 16.3504 31.379 16.0791 31.108Z" fill="url(#paint0_angular_1257_10172)" style="mix-blend-mode:difference"/>
</g>
</g>
<defs>
<radialGradient id="paint0_angular_1257_10172" cx="0" cy="0" r="1" gradientUnits="userSpaceOnUse" gradientTransform="translate(17.3858 20.727) rotate(84.8081) scale(13.597 13.8415)">
<stop offset="0.0267408" stop-color="#2D2B2B"/>
<stop offset="0.144403" stop-color="#3D3838"/>
<stop offset="0.226247" stop-color="#201C1C"/>
<stop offset="0.411006"/>
<stop offset="0.492082" stop-color="#342B2B"/>
<stop offset="0.793963"/>
<stop offset="0.939288" stop-color="#262424"/>
</radialGradient>
</defs>
</svg>
