<svg width="37" height="36" viewBox="0 0 37 36" fill="none" xmlns="http://www.w3.org/2000/svg">
<g id="encrypted_24dp_5F6368_FILL0_wght300_GRAD0_opsz24 1">
<g id="Vector">
<path d="M17.2581 22.125L19.4099 22.125C19.6134 22.125 19.7897 22.0403 19.939 21.8708C20.0882 21.7013 20.1379 21.5149 20.0879 21.3117L19.3754 17.3884C19.8464 17.1864 20.2256 16.8689 20.5131 16.4359C20.8006 16.0029 20.9444 15.5243 20.9444 15C20.9444 14.282 20.6886 13.6674 20.1771 13.1562C19.6656 12.6452 19.0507 12.3897 18.3325 12.3897C17.6142 12.3897 16.9999 12.6452 16.4894 13.1562C15.9789 13.6674 15.7236 14.282 15.7236 15C15.7236 15.5243 15.8674 16.0029 16.1549 16.4359C16.4424 16.8689 16.8216 17.1864 17.2926 17.3884L16.5801 21.3117C16.5301 21.5149 16.5797 21.7013 16.729 21.8708C16.8782 22.0403 17.0546 22.125 17.2581 22.125ZM18.334 32.0565C18.1782 32.0565 18.0254 32.044 17.8754 32.019C17.7254 31.994 17.5801 31.9565 17.4396 31.9065C14.2764 30.7815 11.7596 28.7869 9.88936 25.9227C8.01911 23.0582 7.08398 19.9673 7.08398 16.65L7.08398 9.8944C7.08398 9.32465 7.24786 8.81178 7.57561 8.35578C7.90311 7.90003 8.32673 7.56966 8.84648 7.36466L17.3849 4.17716C17.7061 4.06166 18.0225 4.00391 18.334 4.00391C18.6455 4.00391 18.9619 4.06166 19.2831 4.17716L27.8215 7.36466C28.3412 7.56966 28.7649 7.90003 29.0924 8.35578C29.4201 8.81178 29.584 9.32465 29.584 9.8944L29.584 16.65C29.584 19.9673 28.6489 23.0582 26.7786 25.9227C24.9084 28.7869 22.3916 30.7815 19.2284 31.9065C19.0879 31.9565 18.9426 31.994 18.7926 32.019C18.6426 32.044 18.4897 32.0565 18.334 32.0565ZM18.334 29.85C20.934 29.025 23.084 27.375 24.784 24.9C26.484 22.425 27.334 19.675 27.334 16.65L27.334 9.87978C27.334 9.78378 27.3075 9.69728 27.2545 9.62028C27.2017 9.54328 27.1272 9.48553 27.031 9.44703L18.4926 6.25953C18.4446 6.24028 18.3917 6.23066 18.334 6.23066C18.2762 6.23066 18.2234 6.24028 18.1754 6.25953L9.63698 9.44703C9.54073 9.48553 9.46623 9.54328 9.41348 9.62028C9.36048 9.69728 9.33398 9.78378 9.33398 9.87978L9.33398 16.65C9.33398 19.675 10.184 22.425 11.884 24.9C13.584 27.375 15.734 29.025 18.334 29.85Z" fill="#FEFEFE"/>
<path d="M17.2581 22.125L19.4099 22.125C19.6134 22.125 19.7897 22.0403 19.939 21.8708C20.0882 21.7013 20.1379 21.5149 20.0879 21.3117L19.3754 17.3884C19.8464 17.1864 20.2256 16.8689 20.5131 16.4359C20.8006 16.0029 20.9444 15.5243 20.9444 15C20.9444 14.282 20.6886 13.6674 20.1771 13.1562C19.6656 12.6452 19.0507 12.3897 18.3325 12.3897C17.6142 12.3897 16.9999 12.6452 16.4894 13.1562C15.9789 13.6674 15.7236 14.282 15.7236 15C15.7236 15.5243 15.8674 16.0029 16.1549 16.4359C16.4424 16.8689 16.8216 17.1864 17.2926 17.3884L16.5801 21.3117C16.5301 21.5149 16.5797 21.7013 16.729 21.8708C16.8782 22.0403 17.0546 22.125 17.2581 22.125ZM18.334 32.0565C18.1782 32.0565 18.0254 32.044 17.8754 32.019C17.7254 31.994 17.5801 31.9565 17.4396 31.9065C14.2764 30.7815 11.7596 28.7869 9.88936 25.9227C8.01911 23.0582 7.08398 19.9673 7.08398 16.65L7.08398 9.8944C7.08398 9.32465 7.24786 8.81178 7.57561 8.35578C7.90311 7.90003 8.32673 7.56966 8.84648 7.36466L17.3849 4.17716C17.7061 4.06166 18.0225 4.00391 18.334 4.00391C18.6455 4.00391 18.9619 4.06166 19.2831 4.17716L27.8215 7.36466C28.3412 7.56966 28.7649 7.90003 29.0924 8.35578C29.4201 8.81178 29.584 9.32465 29.584 9.8944L29.584 16.65C29.584 19.9673 28.6489 23.0582 26.7786 25.9227C24.9084 28.7869 22.3916 30.7815 19.2284 31.9065C19.0879 31.9565 18.9426 31.994 18.7926 32.019C18.6426 32.044 18.4897 32.0565 18.334 32.0565ZM18.334 29.85C20.934 29.025 23.084 27.375 24.784 24.9C26.484 22.425 27.334 19.675 27.334 16.65L27.334 9.87978C27.334 9.78378 27.3075 9.69728 27.2545 9.62028C27.2017 9.54328 27.1272 9.48553 27.031 9.44703L18.4926 6.25953C18.4446 6.24028 18.3917 6.23066 18.334 6.23066C18.2762 6.23066 18.2234 6.24028 18.1754 6.25953L9.63698 9.44703C9.54073 9.48553 9.46623 9.54328 9.41348 9.62028C9.36048 9.69728 9.33398 9.78378 9.33398 9.87978L9.33398 16.65C9.33398 19.675 10.184 22.425 11.884 24.9C13.584 27.375 15.734 29.025 18.334 29.85Z" fill="url(#paint0_angular_1257_10413)" style="mix-blend-mode:difference"/>
</g>
</g>
<defs>
<radialGradient id="paint0_angular_1257_10413" cx="0" cy="0" r="1" gradientUnits="userSpaceOnUse" gradientTransform="translate(17.8369 20.7805) rotate(85.8317) scale(13.6941 11.2138)">
<stop offset="0.0267408" stop-color="#2D2B2B"/>
<stop offset="0.144403" stop-color="#3D3838"/>
<stop offset="0.226247" stop-color="#201C1C"/>
<stop offset="0.411006"/>
<stop offset="0.492082" stop-color="#342B2B"/>
<stop offset="0.793963"/>
<stop offset="0.939288" stop-color="#262424"/>
</radialGradient>
</defs>
</svg>
