<svg width="37" height="36" viewBox="0 0 37 36" fill="none" xmlns="http://www.w3.org/2000/svg">
<g id="group_work_24dp_5F6368_FILL0_wght300_GRAD0_opsz24 1">
<g id="Vector">
<path d="M12.9255 23.5672C13.6545 23.5672 14.2743 23.312 14.7848 22.8015C15.2953 22.2908 15.5505 21.671 15.5505 20.9423C15.5505 20.2135 15.2953 19.5939 14.7848 19.0834C14.2743 18.5726 13.6545 18.3173 12.9255 18.3173C12.1968 18.3173 11.5771 18.5726 11.0666 19.0834C10.5559 19.5939 10.3005 20.2135 10.3005 20.9423C10.3005 21.671 10.5559 22.2908 11.0666 22.8015C11.5771 23.312 12.1968 23.5672 12.9255 23.5672ZM24.4065 23.5672C25.1353 23.5672 25.7549 23.312 26.2654 22.8015C26.7761 22.2908 27.0315 21.671 27.0315 20.9423C27.0315 20.2135 26.7761 19.5939 26.2654 19.0834C25.7549 18.5726 25.1353 18.3173 24.4065 18.3173C23.6775 18.3173 23.0578 18.5726 22.5473 19.0834C22.0368 19.5939 21.7815 20.2135 21.7815 20.9423C21.7815 21.671 22.0368 22.2908 22.5473 22.8015C23.0578 23.312 23.6775 23.5672 24.4065 23.5672ZM18.666 14.7116C19.3948 14.7116 20.0145 14.4563 20.5253 13.9455C21.0358 13.435 21.291 12.8154 21.291 12.0866C21.291 11.3576 21.0358 10.7379 20.5253 10.2274C20.0145 9.71687 19.3948 9.46163 18.666 9.46163C17.9373 9.46163 17.3175 9.71687 16.8068 10.2274C16.2963 10.7379 16.041 11.3576 16.041 12.0866C16.041 12.8154 16.2963 13.435 16.8068 13.9455C17.3175 14.4563 17.9373 14.7116 18.666 14.7116ZM18.6686 32.25C16.6976 32.25 14.845 31.876 13.1108 31.128C11.3765 30.38 9.86802 29.3649 8.58527 28.0826C7.30252 26.8004 6.28689 25.2925 5.53839 23.559C4.79014 21.8255 4.41602 19.9734 4.41602 18.0026C4.41602 16.0316 4.79002 14.179 5.53802 12.4447C6.28602 10.7105 7.30114 9.202 8.58339 7.91925C9.86564 6.6365 11.3735 5.62087 13.107 4.87237C14.8405 4.12412 16.6926 3.75 18.6634 3.75C20.6344 3.75 22.487 4.124 24.2213 4.872C25.9555 5.62 27.464 6.63513 28.7468 7.91738C30.0295 9.19963 31.0451 10.7075 31.7936 12.441C32.5419 14.1745 32.916 16.0266 32.916 17.9974C32.916 19.9684 32.542 21.821 31.794 23.5553C31.046 25.2895 30.0309 26.798 28.7486 28.0808C27.4664 29.3635 25.9585 30.3791 24.225 31.1276C22.4915 31.8759 20.6394 32.25 18.6686 32.25ZM18.666 30C22.016 30 24.8535 28.8375 27.1785 26.5125C29.5035 24.1875 30.666 21.35 30.666 18C30.666 14.65 29.5035 11.8125 27.1785 9.4875C24.8535 7.1625 22.016 6 18.666 6C15.316 6 12.4785 7.1625 10.1535 9.4875C7.82852 11.8125 6.66602 14.65 6.66602 18C6.66602 21.35 7.82852 24.1875 10.1535 26.5125C12.4785 28.8375 15.316 30 18.666 30Z" fill="#FEFEFE"/>
<path d="M12.9255 23.5672C13.6545 23.5672 14.2743 23.312 14.7848 22.8015C15.2953 22.2908 15.5505 21.671 15.5505 20.9423C15.5505 20.2135 15.2953 19.5939 14.7848 19.0834C14.2743 18.5726 13.6545 18.3173 12.9255 18.3173C12.1968 18.3173 11.5771 18.5726 11.0666 19.0834C10.5559 19.5939 10.3005 20.2135 10.3005 20.9423C10.3005 21.671 10.5559 22.2908 11.0666 22.8015C11.5771 23.312 12.1968 23.5672 12.9255 23.5672ZM24.4065 23.5672C25.1353 23.5672 25.7549 23.312 26.2654 22.8015C26.7761 22.2908 27.0315 21.671 27.0315 20.9423C27.0315 20.2135 26.7761 19.5939 26.2654 19.0834C25.7549 18.5726 25.1353 18.3173 24.4065 18.3173C23.6775 18.3173 23.0578 18.5726 22.5473 19.0834C22.0368 19.5939 21.7815 20.2135 21.7815 20.9423C21.7815 21.671 22.0368 22.2908 22.5473 22.8015C23.0578 23.312 23.6775 23.5672 24.4065 23.5672ZM18.666 14.7116C19.3948 14.7116 20.0145 14.4563 20.5253 13.9455C21.0358 13.435 21.291 12.8154 21.291 12.0866C21.291 11.3576 21.0358 10.7379 20.5253 10.2274C20.0145 9.71687 19.3948 9.46163 18.666 9.46163C17.9373 9.46163 17.3175 9.71687 16.8068 10.2274C16.2963 10.7379 16.041 11.3576 16.041 12.0866C16.041 12.8154 16.2963 13.435 16.8068 13.9455C17.3175 14.4563 17.9373 14.7116 18.666 14.7116ZM18.6686 32.25C16.6976 32.25 14.845 31.876 13.1108 31.128C11.3765 30.38 9.86802 29.3649 8.58527 28.0826C7.30252 26.8004 6.28689 25.2925 5.53839 23.559C4.79014 21.8255 4.41602 19.9734 4.41602 18.0026C4.41602 16.0316 4.79002 14.179 5.53802 12.4447C6.28602 10.7105 7.30114 9.202 8.58339 7.91925C9.86564 6.6365 11.3735 5.62087 13.107 4.87237C14.8405 4.12412 16.6926 3.75 18.6634 3.75C20.6344 3.75 22.487 4.124 24.2213 4.872C25.9555 5.62 27.464 6.63513 28.7468 7.91738C30.0295 9.19963 31.0451 10.7075 31.7936 12.441C32.5419 14.1745 32.916 16.0266 32.916 17.9974C32.916 19.9684 32.542 21.821 31.794 23.5553C31.046 25.2895 30.0309 26.798 28.7486 28.0808C27.4664 29.3635 25.9585 30.3791 24.225 31.1276C22.4915 31.8759 20.6394 32.25 18.6686 32.25ZM18.666 30C22.016 30 24.8535 28.8375 27.1785 26.5125C29.5035 24.1875 30.666 21.35 30.666 18C30.666 14.65 29.5035 11.8125 27.1785 9.4875C24.8535 7.1625 22.016 6 18.666 6C15.316 6 12.4785 7.1625 10.1535 9.4875C7.82852 11.8125 6.66602 14.65 6.66602 18C6.66602 21.35 7.82852 24.1875 10.1535 26.5125C12.4785 28.8375 15.316 30 18.666 30Z" fill="url(#paint0_angular_1257_10377)" style="mix-blend-mode:difference"/>
</g>
</g>
<defs>
<radialGradient id="paint0_angular_1257_10377" cx="0" cy="0" r="1" gradientUnits="userSpaceOnUse" gradientTransform="translate(18.0364 20.7941) rotate(84.8081) scale(13.9329 14.1834)">
<stop offset="0.0267408" stop-color="#2D2B2B"/>
<stop offset="0.144403" stop-color="#3D3838"/>
<stop offset="0.226247" stop-color="#201C1C"/>
<stop offset="0.411006"/>
<stop offset="0.492082" stop-color="#342B2B"/>
<stop offset="0.793963"/>
<stop offset="0.939288" stop-color="#262424"/>
</radialGradient>
</defs>
</svg>
