<svg width="37" height="36" viewBox="0 0 37 36" fill="none" xmlns="http://www.w3.org/2000/svg">
<g id="bento_24dp_5F6368_FILL0_wght300_GRAD0_opsz24 1">
<g id="Vector">
<path d="M6.70772 27.8373C5.94997 27.8373 5.30859 27.5748 4.78359 27.0498C4.25859 26.5248 3.99609 25.8834 3.99609 25.1257L3.99609 10.8757C3.99609 10.1179 4.25859 9.47656 4.78359 8.95156C5.30859 8.42656 5.94997 8.16406 6.70772 8.16406L29.9577 8.16406C30.7155 8.16406 31.3568 8.42656 31.8818 8.95156C32.4068 9.47656 32.6693 10.1179 32.6693 10.8757L32.6693 25.1257C32.6693 25.8834 32.4068 26.5248 31.8818 27.0498C31.3568 27.5748 30.7155 27.8373 29.9577 27.8373L6.70772 27.8373ZM20.8133 16.8757L30.4193 16.8757L30.4193 10.8757C30.4193 10.7604 30.3712 10.6547 30.275 10.5584C30.1787 10.4622 30.073 10.4141 29.9577 10.4141L20.8133 10.4141L20.8133 16.8757ZM6.70772 25.5873L18.5633 25.5873L18.5633 10.4141L6.70772 10.4141C6.59247 10.4141 6.48672 10.4622 6.39047 10.5584C6.29422 10.6547 6.24609 10.7604 6.24609 10.8757L6.24609 25.1257C6.24609 25.2409 6.29422 25.3467 6.39047 25.4429C6.48672 25.5392 6.59247 25.5873 6.70772 25.5873ZM12.3327 19.9046C11.804 19.9046 11.3545 19.7194 10.9842 19.3492C10.614 18.9789 10.4288 18.5294 10.4288 18.0007C10.4288 17.4719 10.614 17.0224 10.9842 16.6522C11.3545 16.2819 11.804 16.0968 12.3327 16.0968C12.8615 16.0968 13.311 16.2819 13.6812 16.6522C14.0515 17.0224 14.2366 17.4719 14.2366 18.0007C14.2366 18.5294 14.0515 18.9789 13.6812 19.3492C13.311 19.7194 12.8615 19.9046 12.3327 19.9046ZM20.8133 25.5873L29.9577 25.5873C30.073 25.5873 30.1787 25.5392 30.275 25.4429C30.3712 25.3467 30.4193 25.2409 30.4193 25.1257L30.4193 19.1257L20.8133 19.1257L20.8133 25.5873Z" fill="#FEFEFE"/>
<path d="M6.70772 27.8373C5.94997 27.8373 5.30859 27.5748 4.78359 27.0498C4.25859 26.5248 3.99609 25.8834 3.99609 25.1257L3.99609 10.8757C3.99609 10.1179 4.25859 9.47656 4.78359 8.95156C5.30859 8.42656 5.94997 8.16406 6.70772 8.16406L29.9577 8.16406C30.7155 8.16406 31.3568 8.42656 31.8818 8.95156C32.4068 9.47656 32.6693 10.1179 32.6693 10.8757L32.6693 25.1257C32.6693 25.8834 32.4068 26.5248 31.8818 27.0498C31.3568 27.5748 30.7155 27.8373 29.9577 27.8373L6.70772 27.8373ZM20.8133 16.8757L30.4193 16.8757L30.4193 10.8757C30.4193 10.7604 30.3712 10.6547 30.275 10.5584C30.1787 10.4622 30.073 10.4141 29.9577 10.4141L20.8133 10.4141L20.8133 16.8757ZM6.70772 25.5873L18.5633 25.5873L18.5633 10.4141L6.70772 10.4141C6.59247 10.4141 6.48672 10.4622 6.39047 10.5584C6.29422 10.6547 6.24609 10.7604 6.24609 10.8757L6.24609 25.1257C6.24609 25.2409 6.29422 25.3467 6.39047 25.4429C6.48672 25.5392 6.59247 25.5873 6.70772 25.5873ZM12.3327 19.9046C11.804 19.9046 11.3545 19.7194 10.9842 19.3492C10.614 18.9789 10.4288 18.5294 10.4288 18.0007C10.4288 17.4719 10.614 17.0224 10.9842 16.6522C11.3545 16.2819 11.804 16.0968 12.3327 16.0968C12.8615 16.0968 13.311 16.2819 13.6812 16.6522C14.0515 17.0224 14.2366 17.4719 14.2366 18.0007C14.2366 18.5294 14.0515 18.9789 13.6812 19.3492C13.311 19.7194 12.8615 19.9046 12.3327 19.9046ZM20.8133 25.5873L29.9577 25.5873C30.073 25.5873 30.1787 25.5392 30.275 25.4429C30.3712 25.3467 30.4193 25.2409 30.4193 25.1257L30.4193 19.1257L20.8133 19.1257L20.8133 25.5873Z" fill="url(#paint0_angular_1257_6044)" style="mix-blend-mode:difference"/>
</g>
</g>
<defs>
<radialGradient id="paint0_angular_1257_6044" cx="0" cy="0" r="1" gradientUnits="userSpaceOnUse" gradientTransform="translate(17.6993 19.9294) rotate(82.4561) scale(9.66187 14.2044)">
<stop offset="0.0267408" stop-color="#2D2B2B"/>
<stop offset="0.144403" stop-color="#3D3838"/>
<stop offset="0.226247" stop-color="#201C1C"/>
<stop offset="0.411006"/>
<stop offset="0.492082" stop-color="#342B2B"/>
<stop offset="0.793963"/>
<stop offset="0.939288" stop-color="#262424"/>
</radialGradient>
</defs>
</svg>
