<svg width="36" height="36" viewBox="0 0 36 36" fill="none" xmlns="http://www.w3.org/2000/svg">
<g id="explosion_24dp_5F6368_FILL0_wght300_GRAD0_opsz24 1">
<g id="Vector">
<path d="M15.8573 23.0768L17.0509 24.2306C17.3221 24.5019 17.6385 24.6375 18 24.6375C18.3615 24.6375 18.6779 24.5019 18.9491 24.2306L20.1428 23.0768L21.7211 23.0768C22.1054 23.0768 22.4274 22.9469 22.6871 22.6871C22.9469 22.4274 23.0768 22.1054 23.0768 21.7211L23.0768 20.1428L24.2306 18.9491C24.5019 18.6779 24.6375 18.3615 24.6375 18C24.6375 17.6385 24.5019 17.3221 24.2306 17.0509L23.0768 15.8573L23.0768 14.2789C23.0768 13.8946 22.9469 13.5726 22.6871 13.3129C22.4274 13.0531 22.1054 12.9233 21.7211 12.9233L20.1405 12.9233L18.7155 11.5211C18.5115 11.3154 18.2734 11.2125 18.0011 11.2125C17.7291 11.2125 17.4903 11.3154 17.2845 11.5211L15.8595 12.9233L14.2789 12.9233C13.8946 12.9233 13.5726 13.0531 13.3129 13.3129C13.0531 13.5726 12.9233 13.8946 12.9233 14.2789L12.9233 15.8573L11.7694 17.0509C11.4981 17.3221 11.3625 17.6385 11.3625 18C11.3625 18.3615 11.4981 18.6779 11.7694 18.9491L12.9233 20.1428L12.9233 21.7211C12.9233 22.1054 13.0531 22.4274 13.3129 22.6871C13.5726 22.9469 13.8946 23.0768 14.2789 23.0768L15.8573 23.0768ZM13.287 29.25L9.46163 29.25C8.71588 29.25 8.0775 28.9845 7.5465 28.4535C7.0155 27.9225 6.75 27.2841 6.75 26.5384L6.75 22.713L3.96338 19.8979C3.70763 19.6269 3.51438 19.3279 3.38363 19.0009C3.25288 18.6736 3.1875 18.3409 3.1875 18.0026C3.1875 17.6644 3.25288 17.3308 3.38363 17.0018C3.51438 16.673 3.70763 16.3731 3.96338 16.1021L6.75 13.287L6.75 9.46163C6.75 8.71588 7.0155 8.0775 7.5465 7.5465C8.0775 7.0155 8.71588 6.75 9.46163 6.75L13.287 6.75L16.1021 3.96338C16.3731 3.70763 16.6721 3.51437 16.9991 3.38362C17.3264 3.25287 17.6591 3.1875 17.9974 3.1875C18.3356 3.1875 18.6693 3.25287 18.9983 3.38362C19.327 3.51437 19.6269 3.70763 19.8979 3.96338L22.713 6.75L26.5384 6.75C27.2841 6.75 27.9225 7.0155 28.4535 7.5465C28.9845 8.0775 29.25 8.71588 29.25 9.46163L29.25 13.287L32.0366 16.1021C32.2924 16.3731 32.4856 16.6721 32.6164 16.9991C32.7471 17.3264 32.8125 17.6591 32.8125 17.9974C32.8125 18.3356 32.7471 18.6693 32.6164 18.9983C32.4856 19.327 32.2924 19.6269 32.0366 19.8979L29.25 22.713L29.25 26.5384C29.25 27.2841 28.9845 27.9225 28.4535 28.4535C27.9225 28.9845 27.2841 29.25 26.5384 29.25L22.713 29.25L19.8979 32.0366C19.6269 32.2924 19.3279 32.4856 19.0009 32.6164C18.6736 32.7471 18.3409 32.8125 18.0026 32.8125C17.6644 32.8125 17.3308 32.7471 17.0018 32.6164C16.673 32.4856 16.3731 32.2924 16.1021 32.0366L13.287 29.25ZM14.2489 27L17.6681 30.4181C17.7546 30.5046 17.8653 30.5479 18 30.5479C18.1348 30.5479 18.2454 30.5046 18.3319 30.4181L21.7511 27L26.5384 27C26.6731 27 26.7838 26.9568 26.8703 26.8703C26.9568 26.7838 27 26.6731 27 26.5384L27 21.7511L30.4181 18.3319C30.5046 18.2454 30.5479 18.1348 30.5479 18C30.5479 17.8653 30.5046 17.7546 30.4181 17.6681L27 14.2489L27 9.46163C27 9.32688 26.9568 9.21625 26.8703 9.12975C26.7838 9.04325 26.6731 9 26.5384 9L21.7511 9L18.3319 5.58187C18.2454 5.49537 18.1348 5.45213 18 5.45213C17.8653 5.45213 17.7546 5.49537 17.6681 5.58187L14.2489 9L9.46163 9C9.32688 9 9.21625 9.04325 9.12975 9.12975C9.04325 9.21625 9 9.32688 9 9.46163L9 14.2489L5.58188 17.6681C5.49538 17.7546 5.45213 17.8653 5.45213 18C5.45213 18.1348 5.49538 18.2454 5.58188 18.3319L9 21.7511L9 26.5384C9 26.6731 9.04325 26.7838 9.12975 26.8703C9.21625 26.9568 9.32688 27 9.46163 27L14.2489 27Z" fill="#FEFEFE"/>
<path d="M15.8573 23.0768L17.0509 24.2306C17.3221 24.5019 17.6385 24.6375 18 24.6375C18.3615 24.6375 18.6779 24.5019 18.9491 24.2306L20.1428 23.0768L21.7211 23.0768C22.1054 23.0768 22.4274 22.9469 22.6871 22.6871C22.9469 22.4274 23.0768 22.1054 23.0768 21.7211L23.0768 20.1428L24.2306 18.9491C24.5019 18.6779 24.6375 18.3615 24.6375 18C24.6375 17.6385 24.5019 17.3221 24.2306 17.0509L23.0768 15.8573L23.0768 14.2789C23.0768 13.8946 22.9469 13.5726 22.6871 13.3129C22.4274 13.0531 22.1054 12.9233 21.7211 12.9233L20.1405 12.9233L18.7155 11.5211C18.5115 11.3154 18.2734 11.2125 18.0011 11.2125C17.7291 11.2125 17.4903 11.3154 17.2845 11.5211L15.8595 12.9233L14.2789 12.9233C13.8946 12.9233 13.5726 13.0531 13.3129 13.3129C13.0531 13.5726 12.9233 13.8946 12.9233 14.2789L12.9233 15.8573L11.7694 17.0509C11.4981 17.3221 11.3625 17.6385 11.3625 18C11.3625 18.3615 11.4981 18.6779 11.7694 18.9491L12.9233 20.1428L12.9233 21.7211C12.9233 22.1054 13.0531 22.4274 13.3129 22.6871C13.5726 22.9469 13.8946 23.0768 14.2789 23.0768L15.8573 23.0768ZM13.287 29.25L9.46163 29.25C8.71588 29.25 8.0775 28.9845 7.5465 28.4535C7.0155 27.9225 6.75 27.2841 6.75 26.5384L6.75 22.713L3.96338 19.8979C3.70763 19.6269 3.51438 19.3279 3.38363 19.0009C3.25288 18.6736 3.1875 18.3409 3.1875 18.0026C3.1875 17.6644 3.25288 17.3308 3.38363 17.0018C3.51438 16.673 3.70763 16.3731 3.96338 16.1021L6.75 13.287L6.75 9.46163C6.75 8.71588 7.0155 8.0775 7.5465 7.5465C8.0775 7.0155 8.71588 6.75 9.46163 6.75L13.287 6.75L16.1021 3.96338C16.3731 3.70763 16.6721 3.51437 16.9991 3.38362C17.3264 3.25287 17.6591 3.1875 17.9974 3.1875C18.3356 3.1875 18.6693 3.25287 18.9983 3.38362C19.327 3.51437 19.6269 3.70763 19.8979 3.96338L22.713 6.75L26.5384 6.75C27.2841 6.75 27.9225 7.0155 28.4535 7.5465C28.9845 8.0775 29.25 8.71588 29.25 9.46163L29.25 13.287L32.0366 16.1021C32.2924 16.3731 32.4856 16.6721 32.6164 16.9991C32.7471 17.3264 32.8125 17.6591 32.8125 17.9974C32.8125 18.3356 32.7471 18.6693 32.6164 18.9983C32.4856 19.327 32.2924 19.6269 32.0366 19.8979L29.25 22.713L29.25 26.5384C29.25 27.2841 28.9845 27.9225 28.4535 28.4535C27.9225 28.9845 27.2841 29.25 26.5384 29.25L22.713 29.25L19.8979 32.0366C19.6269 32.2924 19.3279 32.4856 19.0009 32.6164C18.6736 32.7471 18.3409 32.8125 18.0026 32.8125C17.6644 32.8125 17.3308 32.7471 17.0018 32.6164C16.673 32.4856 16.3731 32.2924 16.1021 32.0366L13.287 29.25ZM14.2489 27L17.6681 30.4181C17.7546 30.5046 17.8653 30.5479 18 30.5479C18.1348 30.5479 18.2454 30.5046 18.3319 30.4181L21.7511 27L26.5384 27C26.6731 27 26.7838 26.9568 26.8703 26.8703C26.9568 26.7838 27 26.6731 27 26.5384L27 21.7511L30.4181 18.3319C30.5046 18.2454 30.5479 18.1348 30.5479 18C30.5479 17.8653 30.5046 17.7546 30.4181 17.6681L27 14.2489L27 9.46163C27 9.32688 26.9568 9.21625 26.8703 9.12975C26.7838 9.04325 26.6731 9 26.5384 9L21.7511 9L18.3319 5.58187C18.2454 5.49537 18.1348 5.45213 18 5.45213C17.8653 5.45213 17.7546 5.49537 17.6681 5.58187L14.2489 9L9.46163 9C9.32688 9 9.21625 9.04325 9.12975 9.12975C9.04325 9.21625 9 9.32688 9 9.46163L9 14.2489L5.58188 17.6681C5.49538 17.7546 5.45213 17.8653 5.45213 18C5.45213 18.1348 5.49538 18.2454 5.58188 18.3319L9 21.7511L9 26.5384C9 26.6731 9.04325 26.7838 9.12975 26.8703C9.21625 26.9568 9.32688 27 9.46163 27L14.2489 27Z" fill="url(#paint0_angular_1257_6202)" style="mix-blend-mode:difference"/>
</g>
</g>
<defs>
<radialGradient id="paint0_angular_1257_6202" cx="0" cy="0" r="1" gradientUnits="userSpaceOnUse" gradientTransform="translate(17.3455 20.9044) rotate(84.8081) scale(14.4828 14.7433)">
<stop offset="0.0267408" stop-color="#2D2B2B"/>
<stop offset="0.144403" stop-color="#3D3838"/>
<stop offset="0.226247" stop-color="#201C1C"/>
<stop offset="0.411006"/>
<stop offset="0.492082" stop-color="#342B2B"/>
<stop offset="0.793963"/>
<stop offset="0.939288" stop-color="#262424"/>
</radialGradient>
</defs>
</svg>
