<svg width="37" height="36" viewBox="0 0 37 36" fill="none" xmlns="http://www.w3.org/2000/svg">
<g id="workspaces_24dp_5F6368_FILL0_wght300_GRAD0_opsz24 1">
<g id="Vector">
<path d="M9.66897 30.9219C8.17772 30.9219 6.90109 30.3909 5.83909 29.3289C4.77709 28.2669 4.24609 26.9903 4.24609 25.499C4.24609 24.0078 4.77709 22.7312 5.83909 21.6692C6.90109 20.6072 8.17772 20.0762 9.66897 20.0762C11.1602 20.0762 12.4368 20.6072 13.4988 21.6692C14.5608 22.7312 15.0918 24.0078 15.0918 25.499C15.0918 26.9903 14.5608 28.2669 13.4988 29.3289C12.4368 30.3909 11.1602 30.9219 9.66897 30.9219ZM27.669 30.9219C26.1777 30.9219 24.9011 30.3909 23.8391 29.3289C22.7771 28.2669 22.2461 26.9903 22.2461 25.499C22.2461 24.0078 22.7771 22.7312 23.8391 21.6692C24.9011 20.6072 26.1777 20.0762 27.669 20.0762C29.1602 20.0762 30.4368 20.6072 31.4988 21.6692C32.5608 22.7312 33.0918 24.0078 33.0918 25.499C33.0918 26.9903 32.5608 28.2669 31.4988 29.3289C30.4368 30.3909 29.1602 30.9219 27.669 30.9219ZM9.66934 28.6723C10.5421 28.6723 11.2891 28.3615 11.9103 27.74C12.5316 27.1185 12.8422 26.3714 12.8422 25.4987C12.8422 24.6259 12.5315 23.8789 11.91 23.2577C11.2885 22.6364 10.5413 22.3258 9.66859 22.3258C8.79584 22.3258 8.04884 22.6365 7.42759 23.258C6.80634 23.8795 6.49572 24.6267 6.49572 25.4994C6.49572 26.3722 6.80647 27.1192 7.42797 27.7404C8.04947 28.3617 8.79659 28.6723 9.66934 28.6723ZM27.6693 28.6723C28.5421 28.6723 29.2891 28.3615 29.9103 27.74C30.5316 27.1185 30.8422 26.3714 30.8422 25.4987C30.8422 24.6259 30.5315 23.8789 29.91 23.2577C29.2885 22.6364 28.5413 22.3258 27.6686 22.3258C26.7958 22.3258 26.0488 22.6365 25.4276 23.258C24.8063 23.8795 24.4957 24.6267 24.4957 25.4994C24.4957 26.3722 24.8065 27.1192 25.428 27.7404C26.0495 28.3617 26.7966 28.6723 27.6693 28.6723ZM18.669 15.9219C17.1777 15.9219 15.9011 15.3909 14.8391 14.3289C13.7771 13.2669 13.2461 11.9903 13.2461 10.499C13.2461 9.0078 13.7771 7.73117 14.8391 6.66917C15.9011 5.60717 17.1777 5.07617 18.669 5.07617C20.1602 5.07617 21.4368 5.60717 22.4988 6.66917C23.5608 7.73117 24.0918 9.0078 24.0918 10.499C24.0918 11.9903 23.5608 13.2669 22.4988 14.3289C21.4368 15.3909 20.1602 15.9219 18.669 15.9219ZM18.6693 13.6723C19.5421 13.6723 20.2891 13.3615 20.9103 12.74C21.5316 12.1185 21.8422 11.3714 21.8422 10.4987C21.8422 9.62592 21.5315 8.87892 20.91 8.25767C20.2885 7.63642 19.5413 7.3258 18.6686 7.3258C17.7958 7.3258 17.0488 7.63655 16.4276 8.25805C15.8063 8.87955 15.4957 9.62667 15.4957 10.4994C15.4957 11.3722 15.8065 12.1192 16.428 12.7404C17.0495 13.3617 17.7966 13.6723 18.6693 13.6723Z" fill="#FEFEFE"/>
<path d="M9.66897 30.9219C8.17772 30.9219 6.90109 30.3909 5.83909 29.3289C4.77709 28.2669 4.24609 26.9903 4.24609 25.499C4.24609 24.0078 4.77709 22.7312 5.83909 21.6692C6.90109 20.6072 8.17772 20.0762 9.66897 20.0762C11.1602 20.0762 12.4368 20.6072 13.4988 21.6692C14.5608 22.7312 15.0918 24.0078 15.0918 25.499C15.0918 26.9903 14.5608 28.2669 13.4988 29.3289C12.4368 30.3909 11.1602 30.9219 9.66897 30.9219ZM27.669 30.9219C26.1777 30.9219 24.9011 30.3909 23.8391 29.3289C22.7771 28.2669 22.2461 26.9903 22.2461 25.499C22.2461 24.0078 22.7771 22.7312 23.8391 21.6692C24.9011 20.6072 26.1777 20.0762 27.669 20.0762C29.1602 20.0762 30.4368 20.6072 31.4988 21.6692C32.5608 22.7312 33.0918 24.0078 33.0918 25.499C33.0918 26.9903 32.5608 28.2669 31.4988 29.3289C30.4368 30.3909 29.1602 30.9219 27.669 30.9219ZM9.66934 28.6723C10.5421 28.6723 11.2891 28.3615 11.9103 27.74C12.5316 27.1185 12.8422 26.3714 12.8422 25.4987C12.8422 24.6259 12.5315 23.8789 11.91 23.2577C11.2885 22.6364 10.5413 22.3258 9.66859 22.3258C8.79584 22.3258 8.04884 22.6365 7.42759 23.258C6.80634 23.8795 6.49572 24.6267 6.49572 25.4994C6.49572 26.3722 6.80647 27.1192 7.42797 27.7404C8.04947 28.3617 8.79659 28.6723 9.66934 28.6723ZM27.6693 28.6723C28.5421 28.6723 29.2891 28.3615 29.9103 27.74C30.5316 27.1185 30.8422 26.3714 30.8422 25.4987C30.8422 24.6259 30.5315 23.8789 29.91 23.2577C29.2885 22.6364 28.5413 22.3258 27.6686 22.3258C26.7958 22.3258 26.0488 22.6365 25.4276 23.258C24.8063 23.8795 24.4957 24.6267 24.4957 25.4994C24.4957 26.3722 24.8065 27.1192 25.428 27.7404C26.0495 28.3617 26.7966 28.6723 27.6693 28.6723ZM18.669 15.9219C17.1777 15.9219 15.9011 15.3909 14.8391 14.3289C13.7771 13.2669 13.2461 11.9903 13.2461 10.499C13.2461 9.0078 13.7771 7.73117 14.8391 6.66917C15.9011 5.60717 17.1777 5.07617 18.669 5.07617C20.1602 5.07617 21.4368 5.60717 22.4988 6.66917C23.5608 7.73117 24.0918 9.0078 24.0918 10.499C24.0918 11.9903 23.5608 13.2669 22.4988 14.3289C21.4368 15.3909 20.1602 15.9219 18.669 15.9219ZM18.6693 13.6723C19.5421 13.6723 20.2891 13.3615 20.9103 12.74C21.5316 12.1185 21.8422 11.3714 21.8422 10.4987C21.8422 9.62592 21.5315 8.87892 20.91 8.25767C20.2885 7.63642 19.5413 7.3258 18.6686 7.3258C17.7958 7.3258 17.0488 7.63655 16.4276 8.25805C15.8063 8.87955 15.4957 9.62667 15.4957 10.4994C15.4957 11.3722 15.8065 12.1192 16.428 12.7404C17.0495 13.3617 17.7966 13.6723 18.6693 13.6723Z" fill="url(#paint0_angular_1257_6240)" style="mix-blend-mode:difference"/>
</g>
</g>
<defs>
<radialGradient id="paint0_angular_1257_6240" cx="0" cy="0" r="1" gradientUnits="userSpaceOnUse" gradientTransform="translate(18.0317 20.5329) rotate(84.2093) scale(12.648 14.341)">
<stop offset="0.0267408" stop-color="#2D2B2B"/>
<stop offset="0.144403" stop-color="#3D3838"/>
<stop offset="0.226247" stop-color="#201C1C"/>
<stop offset="0.411006"/>
<stop offset="0.492082" stop-color="#342B2B"/>
<stop offset="0.793963"/>
<stop offset="0.939288" stop-color="#262424"/>
</radialGradient>
</defs>
</svg>
